<svg xmlns="http://www.w3.org/2000/svg" xmlns:xlink="http://www.w3.org/1999/xlink" width="566" zoomAndPan="magnify" viewBox="0 0 425.03998 283.499996" height="377" preserveAspectRatio="xMidYMid meet" version="1.0"><defs><g/><clipPath id="id1"><path d="M 252 87.523438 L 301 87.523438 L 301 181.753906 L 252 181.753906 Z M 252 87.523438 " clip-rule="nonzero"/></clipPath><clipPath id="id2"><path d="M 243.601562 102 L 262 102 L 262 122 L 243.601562 122 Z M 243.601562 102 " clip-rule="nonzero"/></clipPath><clipPath id="id3"><path d="M 255 87.523438 L 267 87.523438 L 267 93 L 255 93 Z M 255 87.523438 " clip-rule="nonzero"/></clipPath><clipPath id="id4"><path d="M 298 123 L 306.425781 123 L 306.425781 159 L 298 159 Z M 298 123 " clip-rule="nonzero"/></clipPath></defs><g clip-path="url(#id1)"><path fill="#dce1de" d="M 295.871094 110.453125 C 293.933594 105.761719 289.71875 101.789062 284.894531 98.515625 C 277.742188 93.660156 269.261719 90.328125 265.09375 88.390625 C 263.316406 87.566406 260.957031 87.644531 258.789062 88.234375 C 256.632812 88.816406 254.667969 89.902344 253.65625 91.03125 C 253.027344 91.730469 252.679688 93.011719 252.539062 94.480469 C 252.222656 97.710938 252.828125 101.839844 252.828125 101.839844 C 252.859375 102.046875 253.042969 102.191406 253.246094 102.179688 C 253.246094 102.179688 256.390625 101.984375 258.976562 104.125 C 260.722656 105.570312 262.195312 108.074219 262.332031 112.386719 C 262.621094 121.6875 252.855469 121.578125 252.855469 121.578125 C 252.746094 121.578125 252.644531 121.621094 252.566406 121.699219 C 252.492188 121.777344 252.449219 121.878906 252.453125 121.988281 L 253.375 152.769531 C 253.382812 152.976562 253.550781 153.148438 253.761719 153.152344 C 253.761719 153.152344 262.902344 153.476562 263.066406 162.9375 C 263.210938 171.273438 255.769531 172.90625 255.769531 172.90625 C 255.582031 172.945312 255.453125 173.113281 255.457031 173.304688 L 255.675781 180.601562 C 255.679688 180.808594 255.84375 180.976562 256.050781 180.984375 C 256.050781 180.984375 271.296875 181.707031 278.339844 179.78125 C 282.566406 178.625 288.246094 177.734375 292.511719 175.640625 C 295.453125 174.199219 297.726562 172.1875 298.480469 169.1875 C 301.367188 157.671875 301.421875 123.902344 295.871094 110.453125 Z M 295.136719 110.757812 C 300.640625 124.089844 300.574219 157.578125 297.707031 168.992188 C 297.011719 171.769531 294.878906 173.597656 292.164062 174.929688 C 287.941406 177 282.3125 177.871094 278.132812 179.015625 C 271.808594 180.746094 258.804688 180.304688 256.457031 180.210938 C 256.457031 180.210938 256.261719 173.59375 256.261719 173.59375 C 257.761719 173.15625 264 170.855469 263.859375 162.925781 C 263.703125 153.890625 255.964844 152.574219 254.160156 152.390625 C 254.066406 149.210938 253.359375 125.703125 253.261719 122.359375 C 255.210938 122.25 263.402344 121.265625 263.125 112.363281 C 262.980469 107.734375 261.355469 105.066406 259.484375 103.515625 C 257.207031 101.628906 254.535156 101.402344 253.570312 101.382812 C 253.4375 100.347656 253.074219 97.15625 253.328125 94.558594 C 253.453125 93.289062 253.703125 92.164062 254.246094 91.558594 C 255.183594 90.515625 257.007812 89.539062 258.996094 88.996094 C 260.980469 88.460938 263.132812 88.355469 264.757812 89.109375 C 268.902344 91.035156 277.335938 94.339844 284.449219 99.171875 C 289.136719 102.355469 293.253906 106.195312 295.136719 110.757812 Z M 295.136719 110.757812 " fill-opacity="1" fill-rule="evenodd"/></g><g clip-path="url(#id2)"><path fill="#dce1de" d="M 253.246094 102.777344 C 251.546875 102.667969 248.433594 103.132812 246.210938 105.320312 C 244.730469 106.777344 243.636719 108.992188 243.628906 112.324219 C 243.617188 116.488281 246.273438 119.089844 249.128906 120.34375 C 251.035156 121.183594 253.035156 121.410156 254.378906 121.128906 C 259.273438 120.089844 261.300781 117.304688 261.488281 113.941406 C 261.6875 110.359375 260.925781 107.902344 259.75 106.222656 C 257.960938 103.671875 255.203125 102.898438 253.246094 102.777344 Z M 253.195312 103.566406 C 254.96875 103.679688 257.480469 104.363281 259.101562 106.679688 C 260.199219 108.246094 260.882812 110.550781 260.695312 113.898438 C 260.523438 116.9375 258.644531 119.414062 254.214844 120.351562 C 252.992188 120.609375 251.183594 120.378906 249.449219 119.617188 C 246.847656 118.476562 244.414062 116.117188 244.421875 112.324219 C 244.429688 109.265625 245.410156 107.222656 246.769531 105.886719 C 248.796875 103.886719 251.644531 103.46875 253.195312 103.566406 Z M 253.195312 103.566406 " fill-opacity="1" fill-rule="evenodd"/></g><path fill="#dce1de" d="M 253.964844 153.828125 C 252.265625 153.722656 249.152344 154.1875 246.929688 156.375 C 245.449219 157.832031 244.355469 160.046875 244.347656 163.375 C 244.335938 167.542969 246.988281 170.140625 249.847656 171.398438 C 251.753906 172.234375 253.753906 172.464844 255.097656 172.179688 C 259.992188 171.144531 262.019531 168.355469 262.207031 164.996094 C 262.40625 161.414062 261.644531 158.957031 260.46875 157.277344 C 258.679688 154.722656 255.921875 153.953125 253.964844 153.828125 Z M 253.914062 154.621094 C 255.6875 154.734375 258.199219 155.417969 259.820312 157.730469 C 260.917969 159.300781 261.601562 161.605469 261.414062 164.953125 C 261.242188 167.992188 259.363281 170.46875 254.933594 171.40625 C 253.710938 171.664062 251.902344 171.433594 250.167969 170.671875 C 247.566406 169.527344 245.132812 167.171875 245.140625 163.378906 C 245.148438 160.320312 246.128906 158.277344 247.488281 156.9375 C 249.515625 154.941406 252.363281 154.523438 253.914062 154.621094 Z M 253.914062 154.621094 " fill-opacity="1" fill-rule="evenodd"/><path fill="#dce1de" d="M 253.074219 104.441406 C 251.71875 104.351562 249.238281 104.734375 247.464844 106.542969 C 246.292969 107.738281 245.417969 109.5625 245.414062 112.300781 C 245.40625 115.730469 247.515625 117.875 249.789062 118.90625 C 251.3125 119.601562 252.90625 119.789062 253.980469 119.550781 C 257.878906 118.695312 259.488281 116.398438 259.636719 113.625 C 259.839844 109.933594 258.832031 107.695312 257.484375 106.351562 C 256.117188 104.980469 254.371094 104.527344 253.074219 104.441406 Z M 253.023438 105.230469 C 254.167969 105.308594 255.714844 105.703125 256.921875 106.910156 C 258.15625 108.140625 259.027344 110.203125 258.84375 113.582031 C 258.710938 116.03125 257.25 118.023438 253.808594 118.777344 C 252.863281 118.984375 251.460938 118.796875 250.117188 118.1875 C 248.09375 117.265625 246.199219 115.363281 246.207031 112.300781 C 246.214844 109.832031 246.976562 108.175781 248.035156 107.097656 C 249.609375 105.488281 251.816406 105.152344 253.023438 105.230469 Z M 253.023438 105.230469 " fill-opacity="1" fill-rule="evenodd"/><path fill="#dce1de" d="M 253.792969 155.496094 C 252.4375 155.40625 249.957031 155.789062 248.183594 157.597656 C 247.011719 158.792969 246.136719 160.617188 246.132812 163.355469 C 246.121094 166.785156 248.234375 168.925781 250.507812 169.960938 C 252.03125 170.652344 253.625 170.84375 254.699219 170.605469 C 258.597656 169.75 260.207031 167.453125 260.355469 164.679688 C 260.558594 160.988281 259.550781 158.75 258.203125 157.402344 C 256.835938 156.035156 255.089844 155.578125 253.792969 155.496094 Z M 253.742188 156.285156 C 254.886719 156.359375 256.429688 156.753906 257.640625 157.964844 C 258.875 159.195312 259.746094 161.257812 259.5625 164.636719 C 259.429688 167.082031 257.96875 169.074219 254.527344 169.832031 C 253.582031 170.039062 252.179688 169.851562 250.835938 169.238281 C 248.8125 168.316406 246.917969 166.414062 246.925781 163.355469 C 246.929688 160.882812 247.695312 159.230469 248.753906 158.152344 C 250.328125 156.542969 252.535156 156.207031 253.742188 156.285156 Z M 253.742188 156.285156 " fill-opacity="1" fill-rule="evenodd"/><path fill="#dce1de" d="M 259.832031 157.328125 C 259.539062 156.871094 259.207031 156.4375 258.832031 156 C 258.730469 155.882812 258.570312 155.644531 258.417969 155.480469 C 258.308594 155.359375 258.195312 155.269531 258.09375 155.21875 C 257.871094 155.109375 257.707031 155.160156 257.605469 155.210938 C 257.53125 155.246094 257.464844 155.300781 257.414062 155.371094 C 255.765625 154.511719 253.472656 154.222656 251.730469 154.511719 C 250.734375 154.675781 249.144531 154.875 248.273438 155.394531 C 246.625 156.382812 245.273438 158.199219 245.027344 160.160156 C 245.007812 160.339844 244.992188 160.519531 244.984375 160.703125 C 244.9375 160.933594 244.910156 161.1875 244.910156 161.1875 C 244.898438 161.300781 244.925781 161.410156 244.984375 161.5 C 245 161.953125 245.023438 162.40625 245.023438 162.835938 C 245.023438 163.605469 244.78125 164.386719 244.914062 165.179688 C 245.144531 166.566406 246.03125 167.667969 246.84375 168.75 C 247.253906 169.292969 247.492188 169.84375 248.125 170.207031 C 249.019531 170.714844 250.027344 170.875 250.988281 171.113281 C 251.1875 171.164062 251.367188 171.269531 251.546875 171.363281 C 251.808594 171.5 252.070312 171.621094 252.355469 171.667969 C 254.089844 171.957031 256.390625 172.007812 257.949219 170.96875 C 261.914062 168.332031 263.242188 162.5 260.757812 158.371094 C 260.519531 157.972656 260.195312 157.628906 259.832031 157.328125 Z M 259.855469 166.425781 C 259.835938 166.410156 259.820312 166.398438 259.804688 166.378906 C 259.765625 166.339844 259.644531 166.210938 259.664062 165.972656 C 259.675781 165.847656 259.816406 165.296875 259.824219 165.238281 C 259.917969 164.472656 259.929688 163.574219 259.859375 162.800781 C 259.652344 160.527344 259.183594 158.355469 257.234375 156.898438 C 256.378906 156.257812 255.335938 155.898438 254.242188 155.777344 C 253.046875 155.660156 251.835938 155.882812 250.503906 156.414062 C 249.859375 156.671875 249.171875 156.847656 248.628906 157.277344 C 248.355469 157.5 248.160156 157.832031 247.984375 158.175781 C 247.777344 158.589844 247.609375 159.023438 247.429688 159.382812 C 247.105469 160.027344 246.667969 160.75 246.488281 161.46875 C 246.460938 161.574219 246.441406 161.683594 246.421875 161.796875 C 246.421875 161.949219 246.425781 162.097656 246.425781 162.25 C 246.425781 162.335938 246.402344 162.414062 246.367188 162.480469 C 246.339844 163.515625 246.550781 164.703125 246.726562 165.59375 C 246.769531 165.792969 246.867188 165.96875 246.96875 166.148438 C 247.105469 166.394531 247.25 166.640625 247.339844 166.902344 C 247.5 167.382812 247.945312 168.183594 248.402344 168.488281 C 248.984375 168.875 249.550781 169.367188 250.226562 169.707031 C 250.703125 169.941406 251.300781 169.933594 251.8125 170.058594 C 253.121094 170.386719 254.621094 170.621094 255.925781 170.1875 C 256.992188 169.832031 258.011719 168.695312 258.789062 167.921875 C 259.234375 167.476562 259.585938 166.972656 259.855469 166.425781 Z M 259.855469 166.425781 " fill-opacity="1" fill-rule="evenodd"/><path fill="#dce1de" d="M 259.039062 106.28125 C 258.746094 105.828125 258.414062 105.394531 258.039062 104.957031 C 257.9375 104.839844 257.777344 104.601562 257.625 104.4375 C 257.515625 104.316406 257.398438 104.226562 257.300781 104.175781 C 257.074219 104.066406 256.914062 104.117188 256.8125 104.167969 C 256.738281 104.203125 256.671875 104.257812 256.621094 104.328125 C 254.972656 103.46875 252.679688 103.179688 250.9375 103.46875 C 249.9375 103.632812 248.347656 103.828125 247.480469 104.351562 C 245.832031 105.335938 244.480469 107.15625 244.234375 109.117188 C 244.210938 109.292969 244.199219 109.476562 244.191406 109.660156 C 244.144531 109.890625 244.117188 110.144531 244.117188 110.144531 C 244.105469 110.257812 244.132812 110.367188 244.191406 110.457031 C 244.203125 110.910156 244.230469 111.363281 244.230469 111.792969 C 244.230469 112.5625 243.988281 113.34375 244.121094 114.136719 C 244.351562 115.523438 245.238281 116.625 246.050781 117.707031 C 246.457031 118.25 246.695312 118.800781 247.332031 119.164062 C 248.222656 119.671875 249.230469 119.832031 250.195312 120.070312 C 250.394531 120.121094 250.574219 120.222656 250.753906 120.320312 C 251.011719 120.453125 251.277344 120.578125 251.5625 120.625 C 253.292969 120.914062 255.59375 120.964844 257.15625 119.925781 C 261.121094 117.289062 262.449219 111.457031 259.964844 107.328125 C 259.722656 106.925781 259.402344 106.585938 259.039062 106.28125 Z M 259.058594 115.382812 C 259.042969 115.367188 259.027344 115.351562 259.011719 115.335938 C 258.96875 115.296875 258.847656 115.167969 258.867188 114.929688 C 258.878906 114.800781 259.023438 114.253906 259.027344 114.191406 C 259.125 113.429688 259.136719 112.53125 259.066406 111.757812 C 258.859375 109.484375 258.390625 107.3125 256.441406 105.855469 C 255.582031 105.214844 254.542969 104.855469 253.449219 104.734375 C 252.253906 104.617188 251.042969 104.839844 249.710938 105.371094 C 249.066406 105.625 248.378906 105.804688 247.835938 106.234375 C 247.5625 106.453125 247.363281 106.789062 247.191406 107.132812 C 246.984375 107.546875 246.816406 107.980469 246.636719 108.339844 C 246.3125 108.984375 245.875 109.707031 245.695312 110.425781 C 245.667969 110.53125 245.644531 110.640625 245.628906 110.753906 C 245.628906 110.902344 245.628906 111.054688 245.628906 111.207031 C 245.628906 111.289062 245.609375 111.367188 245.570312 111.4375 C 245.546875 112.472656 245.753906 113.660156 245.933594 114.546875 C 245.972656 114.75 246.074219 114.925781 246.171875 115.101562 C 246.3125 115.351562 246.457031 115.59375 246.542969 115.855469 C 246.707031 116.339844 247.152344 117.140625 247.605469 117.441406 C 248.191406 117.832031 248.757812 118.324219 249.433594 118.664062 C 249.90625 118.898438 250.503906 118.890625 251.015625 119.015625 C 252.328125 119.34375 253.828125 119.578125 255.128906 119.144531 C 256.195312 118.789062 257.21875 117.652344 257.992188 116.878906 C 258.4375 116.433594 258.792969 115.929688 259.058594 115.382812 Z M 259.058594 115.382812 " fill-opacity="1" fill-rule="evenodd"/><path fill="#dce1de" d="M 279.707031 99.679688 C 279.597656 99.753906 279.460938 99.9375 279.375 100.253906 C 279.246094 100.714844 279.148438 101.558594 279.085938 102.667969 C 278.796875 107.585938 279.101562 117.878906 279.667969 122.417969 C 279.820312 123.648438 280.019531 124.480469 280.203125 124.742188 C 280.257812 124.816406 280.34375 124.898438 280.472656 124.972656 C 280.644531 125.066406 280.929688 125.160156 281.304688 125.246094 C 283.195312 125.664062 287.660156 125.898438 290.613281 125.691406 C 291.769531 125.609375 292.703125 125.453125 293.191406 125.230469 C 293.539062 125.070312 293.710938 124.847656 293.757812 124.636719 C 293.84375 124.222656 293.957031 120.1875 293.53125 116.128906 C 293.246094 113.402344 292.714844 110.671875 291.800781 109 C 290.207031 106.085938 285.898438 102.125 282.898438 100.394531 C 282.089844 99.929688 281.371094 99.621094 280.820312 99.523438 C 280.34375 99.4375 279.96875 99.5 279.707031 99.679688 Z M 292.984375 124.429688 C 292.941406 124.457031 292.800781 124.539062 292.675781 124.578125 C 292.203125 124.734375 291.453125 124.835938 290.558594 124.898438 C 288.03125 125.078125 284.375 124.925781 282.261719 124.613281 C 281.742188 124.535156 281.320312 124.449219 281.039062 124.351562 C 280.960938 124.328125 280.871094 124.28125 280.839844 124.265625 C 280.796875 124.191406 280.761719 124.058594 280.71875 123.886719 C 280.625 123.515625 280.539062 122.980469 280.457031 122.320312 C 279.894531 117.8125 279.59375 107.59375 279.878906 102.714844 C 279.929688 101.820312 280 101.109375 280.09375 100.652344 C 280.125 100.511719 280.175781 100.363281 280.195312 100.308594 C 280.316406 100.253906 280.480469 100.265625 280.675781 100.300781 C 281.164062 100.390625 281.789062 100.671875 282.5 101.082031 C 285.394531 102.753906 289.5625 106.566406 291.105469 109.378906 C 291.980469 110.980469 292.46875 113.601562 292.742188 116.210938 C 293.140625 120.042969 293.070312 123.855469 292.984375 124.429688 Z M 292.984375 124.429688 " fill-opacity="1" fill-rule="evenodd"/><path fill="#dce1de" d="M 293.367188 131.671875 C 293.183594 131.429688 292.738281 131.203125 292.082031 131.0625 C 290.824219 130.789062 288.710938 130.71875 286.628906 130.765625 C 284.261719 130.816406 281.9375 131.019531 280.996094 131.230469 C 280.792969 131.273438 280.640625 131.324219 280.550781 131.371094 C 280.453125 131.414062 280.394531 131.46875 280.355469 131.515625 C 280.253906 131.636719 280.152344 131.832031 280.070312 132.101562 C 279.914062 132.59375 279.789062 133.382812 279.703125 134.363281 C 279.425781 137.527344 279.5 142.757812 279.792969 146.421875 C 279.921875 148.015625 280.09375 149.320312 280.289062 150.042969 C 280.40625 150.464844 280.570312 150.722656 280.699219 150.824219 C 280.933594 151 281.390625 151.160156 282.019531 151.28125 C 283.308594 151.523438 285.378906 151.628906 287.4375 151.613281 C 289.496094 151.597656 291.542969 151.460938 292.792969 151.214844 C 293.40625 151.097656 293.847656 150.9375 294.054688 150.773438 C 294.195312 150.664062 294.351562 150.394531 294.453125 149.972656 C 294.625 149.246094 294.730469 147.957031 294.765625 146.386719 C 294.851562 142.78125 294.59375 137.65625 294.136719 134.511719 C 293.925781 133.078125 293.648438 132.039062 293.367188 131.671875 Z M 293.546875 150.160156 C 293.394531 150.273438 293.070312 150.355469 292.640625 150.4375 C 291.425781 150.675781 289.433594 150.804688 287.429688 150.820312 C 285.429688 150.835938 283.417969 150.734375 282.164062 150.5 C 281.71875 150.417969 281.375 150.328125 281.199219 150.207031 C 281.183594 150.171875 281.101562 149.992188 281.058594 149.832031 C 280.867188 149.140625 280.707031 147.890625 280.585938 146.359375 C 280.292969 142.734375 280.21875 137.5625 280.496094 134.433594 C 280.566406 133.648438 280.65625 132.996094 280.769531 132.535156 C 280.824219 132.332031 280.871094 132.171875 280.933594 132.070312 C 281.019531 132.046875 281.292969 131.972656 281.554688 131.929688 C 282.636719 131.757812 284.625 131.601562 286.648438 131.558594 C 288.65625 131.511719 290.699219 131.574219 291.914062 131.835938 C 292.148438 131.886719 292.351562 131.945312 292.511719 132.015625 C 292.613281 132.058594 292.695312 132.097656 292.734375 132.152344 C 292.820312 132.261719 292.894531 132.460938 292.96875 132.722656 C 293.109375 133.191406 293.234375 133.847656 293.347656 134.628906 C 293.804688 137.734375 294.054688 142.800781 293.972656 146.367188 C 293.941406 147.660156 293.867188 148.753906 293.742188 149.476562 C 293.703125 149.695312 293.664062 149.878906 293.613281 150.015625 C 293.59375 150.074219 293.558594 150.144531 293.546875 150.160156 Z M 293.546875 150.160156 " fill-opacity="1" fill-rule="evenodd"/><path fill="#dce1de" d="M 293.464844 155.949219 C 293.378906 155.828125 293.195312 155.691406 292.890625 155.601562 C 292.4375 155.46875 291.640625 155.386719 290.667969 155.351562 C 288.472656 155.277344 285.351562 155.453125 283.363281 155.785156 C 282.4375 155.941406 281.742188 156.148438 281.449219 156.359375 C 281.269531 156.488281 281.089844 156.742188 280.957031 157.128906 C 280.714844 157.816406 280.558594 158.988281 280.480469 160.394531 C 280.304688 163.589844 280.511719 168.027344 280.886719 170.640625 C 281.003906 171.453125 281.136719 172.09375 281.277344 172.480469 C 281.363281 172.710938 281.460938 172.867188 281.546875 172.957031 C 281.660156 173.070312 281.851562 173.171875 282.121094 173.230469 C 282.550781 173.320312 283.246094 173.316406 284.085938 173.207031 C 285.683594 173 287.820312 172.433594 289.570312 171.589844 C 290.777344 171.003906 291.800781 170.28125 292.359375 169.464844 C 293.519531 167.769531 294.09375 163.824219 294.125 160.613281 C 294.136719 159.335938 294.0625 158.171875 293.914062 157.320312 C 293.808594 156.6875 293.648438 156.214844 293.464844 155.949219 Z M 292.828125 156.429688 C 292.960938 156.636719 293.054688 156.992188 293.132812 157.453125 C 293.273438 158.269531 293.339844 159.382812 293.328125 160.605469 C 293.300781 163.65625 292.804688 167.410156 291.703125 169.015625 C 291.207031 169.738281 290.292969 170.359375 289.222656 170.875 C 287.550781 171.683594 285.507812 172.222656 283.980469 172.421875 C 283.351562 172.503906 282.816406 172.527344 282.4375 172.480469 C 282.335938 172.46875 282.246094 172.449219 282.175781 172.425781 C 282.148438 172.417969 282.125 172.414062 282.113281 172.398438 C 282.058594 172.34375 282.023438 172.222656 281.976562 172.058594 C 281.867188 171.695312 281.765625 171.167969 281.671875 170.527344 C 281.304688 167.953125 281.101562 163.582031 281.277344 160.4375 C 281.339844 159.304688 281.449219 158.335938 281.621094 157.671875 C 281.671875 157.476562 281.730469 157.308594 281.792969 157.175781 C 281.832031 157.097656 281.863281 157.035156 281.910156 157.003906 C 282.152344 156.828125 282.734375 156.695312 283.492188 156.566406 C 285.4375 156.242188 288.496094 156.074219 290.640625 156.144531 C 291.410156 156.171875 292.058594 156.226562 292.488281 156.320312 C 292.628906 156.347656 292.789062 156.410156 292.828125 156.429688 Z M 292.828125 156.429688 " fill-opacity="1" fill-rule="evenodd"/><path fill="#dce1de" d="M 253.589844 111.46875 C 253.539062 111.386719 253.472656 111.304688 253.386719 111.230469 C 253.15625 111.03125 252.796875 110.871094 252.507812 110.839844 C 252.316406 110.816406 252.144531 110.851562 252.019531 110.914062 C 251.675781 111.085938 251.5 111.328125 251.421875 111.578125 C 251.308594 111.941406 251.421875 112.355469 251.691406 112.667969 C 252.125 113.171875 252.914062 113.390625 253.5 112.800781 C 253.980469 112.324219 253.886719 111.835938 253.589844 111.46875 Z M 253.589844 111.46875 " fill-opacity="1" fill-rule="evenodd"/><path fill="#dce1de" d="M 254.308594 162.523438 C 254.257812 162.441406 254.191406 162.359375 254.105469 162.285156 C 253.875 162.085938 253.515625 161.925781 253.226562 161.894531 C 253.035156 161.871094 252.863281 161.902344 252.738281 161.96875 C 252.394531 162.136719 252.21875 162.382812 252.140625 162.628906 C 252.027344 162.996094 252.140625 163.410156 252.410156 163.722656 C 252.84375 164.226562 253.632812 164.441406 254.21875 163.855469 C 254.699219 163.378906 254.605469 162.886719 254.308594 162.523438 Z M 254.308594 162.523438 " fill-opacity="1" fill-rule="evenodd"/><path fill="#dce1de" d="M 258.953125 110.789062 L 258.914062 110.796875 C 258.226562 110.886719 254.371094 111.261719 253.089844 111.449219 C 252.824219 111.488281 252.640625 111.734375 252.679688 111.996094 C 252.71875 112.261719 252.964844 112.445312 253.230469 112.40625 C 254.507812 112.21875 258.355469 111.84375 259.039062 111.753906 C 259.195312 111.734375 259.28125 111.699219 259.296875 111.691406 C 259.578125 111.550781 259.574219 111.320312 259.566406 111.207031 C 259.554688 111.101562 259.511719 110.863281 259.195312 110.785156 C 259.113281 110.765625 259.027344 110.769531 258.953125 110.789062 Z M 258.714844 110.941406 C 258.664062 110.996094 258.628906 111.0625 258.609375 111.140625 C 258.589844 111.21875 258.59375 111.300781 258.613281 111.375 C 258.574219 111.242188 258.578125 111.085938 258.714844 110.941406 Z M 258.648438 111.476562 C 258.6875 111.554688 258.769531 111.675781 258.964844 111.726562 C 258.824219 111.691406 258.710938 111.59375 258.648438 111.476562 Z M 258.648438 111.476562 " fill-opacity="1" fill-rule="evenodd"/><path fill="#dce1de" d="M 259.671875 161.84375 L 259.632812 161.847656 C 258.945312 161.941406 255.089844 162.316406 253.804688 162.503906 C 253.542969 162.542969 253.359375 162.789062 253.398438 163.050781 C 253.4375 163.316406 253.683594 163.496094 253.945312 163.460938 C 255.226562 163.273438 259.074219 162.898438 259.757812 162.808594 C 259.914062 162.789062 260 162.75 260.015625 162.742188 C 260.292969 162.605469 260.292969 162.375 260.285156 162.261719 C 260.273438 162.15625 260.230469 161.917969 259.914062 161.839844 C 259.832031 161.820312 259.746094 161.820312 259.671875 161.84375 Z M 259.433594 161.992188 C 259.382812 162.050781 259.347656 162.117188 259.328125 162.195312 C 259.308594 162.273438 259.3125 162.355469 259.332031 162.429688 C 259.292969 162.296875 259.296875 162.140625 259.433594 161.992188 Z M 259.367188 162.527344 C 259.40625 162.609375 259.488281 162.730469 259.683594 162.777344 C 259.542969 162.742188 259.429688 162.648438 259.367188 162.527344 Z M 259.367188 162.527344 " fill-opacity="1" fill-rule="evenodd"/><path fill="#dce1de" d="M 252.644531 112.871094 C 253.117188 113.546875 255.347656 117.40625 256.199219 118.25 C 256.386719 118.441406 256.695312 118.441406 256.882812 118.25 C 257.074219 118.0625 257.074219 117.757812 256.882812 117.566406 C 256.046875 116.734375 253.863281 112.910156 253.425781 112.296875 C 253.222656 112.011719 252.96875 112.007812 252.925781 112.007812 C 252.785156 112.019531 252.671875 112.078125 252.582031 112.183594 C 252.53125 112.242188 252.476562 112.335938 252.46875 112.480469 C 252.464844 112.636719 252.535156 112.777344 252.644531 112.871094 Z M 253.386719 112.710938 C 253.414062 112.660156 253.433594 112.597656 253.4375 112.515625 C 253.433594 112.585938 253.417969 112.652344 253.386719 112.710938 Z M 253.386719 112.710938 " fill-opacity="1" fill-rule="evenodd"/><path fill="#dce1de" d="M 253.363281 163.925781 C 253.835938 164.601562 256.066406 168.457031 256.917969 169.304688 C 257.105469 169.496094 257.414062 169.496094 257.601562 169.304688 C 257.792969 169.117188 257.792969 168.8125 257.601562 168.621094 C 256.765625 167.789062 254.582031 163.960938 254.144531 163.351562 C 253.941406 163.0625 253.6875 163.058594 253.644531 163.0625 C 253.503906 163.074219 253.390625 163.132812 253.300781 163.234375 C 253.25 163.296875 253.195312 163.390625 253.1875 163.535156 C 253.183594 163.691406 253.253906 163.832031 253.363281 163.925781 Z M 254.105469 163.765625 C 254.132812 163.714844 254.152344 163.652344 254.15625 163.570312 C 254.152344 163.640625 254.136719 163.707031 254.105469 163.765625 Z M 254.105469 163.765625 " fill-opacity="1" fill-rule="evenodd"/><path fill="#dce1de" d="M 252.011719 112.316406 C 251.625 113.097656 249.410156 116.542969 248.761719 117.839844 C 248.640625 118.078125 248.738281 118.371094 248.976562 118.488281 C 249.214844 118.609375 249.507812 118.511719 249.628906 118.273438 C 250.277344 116.976562 252.492188 113.527344 252.878906 112.746094 C 253 112.507812 252.902344 112.21875 252.660156 112.097656 C 252.421875 111.980469 252.128906 112.078125 252.011719 112.316406 Z M 252.011719 112.316406 " fill-opacity="1" fill-rule="evenodd"/><path fill="#dce1de" d="M 252.730469 163.371094 C 252.34375 164.152344 250.128906 167.597656 249.480469 168.894531 C 249.359375 169.132812 249.457031 169.425781 249.695312 169.542969 C 249.933594 169.664062 250.226562 169.566406 250.347656 169.328125 C 250.996094 168.03125 253.210938 164.582031 253.597656 163.800781 C 253.71875 163.5625 253.617188 163.269531 253.378906 163.152344 C 253.140625 163.035156 252.847656 163.132812 252.730469 163.371094 Z M 252.730469 163.371094 " fill-opacity="1" fill-rule="evenodd"/><path fill="#dce1de" d="M 252.355469 111.625 L 252.234375 111.613281 C 251.359375 111.539062 246.863281 111.125 246.660156 111.058594 C 246.542969 111.019531 246.222656 111 246.144531 110.996094 L 246.125 110.996094 L 246.144531 110.996094 C 246.261719 111.003906 246.320312 111.042969 246.332031 111.046875 C 246.273438 111.019531 246.210938 111 246.140625 110.996094 L 246.109375 110.996094 C 246.035156 110.996094 245.878906 111.175781 245.785156 111.378906 L 245.625 111.476562 L 245.730469 111.550781 C 245.683594 111.761719 245.753906 111.953125 246.105469 111.960938 C 246.132812 111.960938 246.367188 111.980469 246.367188 111.980469 C 246.367188 111.980469 246.359375 111.976562 246.355469 111.976562 C 246.5625 112.046875 251.238281 112.496094 252.148438 112.578125 C 252.261719 112.585938 252.328125 112.589844 252.339844 112.589844 C 252.742188 112.589844 252.808594 112.234375 252.816406 112.195312 C 252.835938 112.082031 252.824219 111.960938 252.742188 111.835938 C 252.714844 111.796875 252.652344 111.699219 252.488281 111.648438 C 252.445312 111.632812 252.402344 111.625 252.355469 111.625 Z M 246.277344 111.929688 C 246.234375 111.945312 246.1875 111.957031 246.140625 111.960938 C 246.222656 111.957031 246.269531 111.933594 246.277344 111.929688 Z M 252.140625 112.546875 C 252.105469 112.53125 252.074219 112.511719 252.042969 112.492188 C 252.066406 112.507812 252.097656 112.53125 252.140625 112.546875 Z M 252.164062 112.558594 L 252.144531 112.550781 L 252.160156 112.554688 Z M 252.164062 112.558594 " fill-opacity="1" fill-rule="evenodd"/><path fill="#dce1de" d="M 253.074219 162.679688 L 252.949219 162.667969 C 252.078125 162.589844 247.582031 162.179688 247.378906 162.113281 C 247.261719 162.074219 246.941406 162.054688 246.863281 162.050781 L 246.855469 162.050781 L 246.851562 162.046875 L 246.84375 162.046875 L 246.855469 162.046875 L 246.859375 162.050781 L 246.863281 162.050781 C 246.980469 162.058594 247.039062 162.09375 247.050781 162.101562 C 246.992188 162.070312 246.929688 162.054688 246.859375 162.050781 L 246.847656 162.046875 L 246.828125 162.046875 C 246.753906 162.046875 246.597656 162.230469 246.503906 162.433594 L 246.34375 162.53125 L 246.449219 162.601562 C 246.402344 162.816406 246.472656 163.007812 246.824219 163.015625 C 246.851562 163.015625 247.085938 163.035156 247.085938 163.035156 C 247.085938 163.035156 247.078125 163.03125 247.074219 163.03125 C 247.28125 163.097656 251.957031 163.550781 252.867188 163.628906 C 252.980469 163.640625 253.046875 163.644531 253.058594 163.644531 C 253.460938 163.644531 253.527344 163.285156 253.535156 163.25 C 253.554688 163.136719 253.542969 163.011719 253.460938 162.890625 C 253.433594 162.851562 253.371094 162.753906 253.207031 162.699219 C 253.164062 162.6875 253.121094 162.679688 253.074219 162.679688 Z M 246.996094 162.984375 C 246.953125 163 246.90625 163.011719 246.855469 163.015625 C 246.941406 163.011719 246.988281 162.988281 246.996094 162.984375 Z M 252.859375 163.601562 C 252.824219 163.585938 252.792969 163.566406 252.761719 163.542969 C 252.785156 163.5625 252.816406 163.582031 252.859375 163.601562 Z M 252.882812 163.609375 L 252.863281 163.605469 L 252.878906 163.609375 Z M 252.882812 163.609375 " fill-opacity="1" fill-rule="evenodd"/><path fill="#dce1de" d="M 254.929688 105.34375 L 252.636719 111.058594 C 252.539062 111.308594 252.660156 111.589844 252.90625 111.6875 C 253.15625 111.789062 253.4375 111.667969 253.539062 111.417969 L 255.828125 105.703125 C 255.929688 105.457031 255.808594 105.175781 255.558594 105.074219 C 255.3125 104.976562 255.027344 105.097656 254.929688 105.34375 Z M 254.929688 105.34375 " fill-opacity="1" fill-rule="evenodd"/><path fill="#dce1de" d="M 255.648438 156.398438 L 253.355469 162.113281 C 253.257812 162.363281 253.378906 162.644531 253.625 162.742188 C 253.875 162.839844 254.15625 162.71875 254.257812 162.472656 L 256.546875 156.757812 C 256.648438 156.507812 256.527344 156.226562 256.277344 156.128906 C 256.03125 156.03125 255.746094 156.152344 255.648438 156.398438 Z M 255.648438 156.398438 " fill-opacity="1" fill-rule="evenodd"/><path fill="#dce1de" d="M 247.710938 107.082031 C 247.710938 107.082031 251.242188 110.695312 252.289062 111.738281 C 252.476562 111.929688 252.785156 111.929688 252.972656 111.738281 C 253.160156 111.550781 253.160156 111.246094 252.972656 111.054688 C 251.929688 110.015625 248.402344 106.40625 248.402344 106.40625 C 248.21875 106.214844 247.910156 106.210938 247.71875 106.398438 C 247.527344 106.582031 247.523438 106.890625 247.710938 107.082031 Z M 247.710938 107.082031 " fill-opacity="1" fill-rule="evenodd"/><path fill="#dce1de" d="M 248.429688 158.136719 C 248.429688 158.136719 251.960938 161.75 253.007812 162.792969 C 253.195312 162.984375 253.503906 162.984375 253.691406 162.792969 C 253.878906 162.605469 253.878906 162.300781 253.691406 162.109375 C 252.648438 161.070312 249.121094 157.460938 249.121094 157.460938 C 248.9375 157.269531 248.628906 157.265625 248.4375 157.453125 C 248.246094 157.636719 248.242188 157.945312 248.429688 158.136719 Z M 248.429688 158.136719 " fill-opacity="1" fill-rule="evenodd"/><g clip-path="url(#id3)"><path fill="#dce1de" d="M 265.535156 88.945312 C 265.253906 88.449219 264.84375 88.191406 264.375 88.066406 C 264.164062 87.972656 263.9375 87.902344 263.695312 87.847656 C 262.476562 87.578125 260.90625 87.835938 259.914062 87.945312 C 259.15625 88.03125 258.261719 88.0625 257.554688 88.414062 C 257.320312 88.53125 256.183594 89.152344 255.730469 89.71875 C 255.367188 90.167969 255.351562 90.617188 255.699219 90.960938 C 256.25 91.507812 256.742188 91.949219 257.476562 92.386719 C 258.394531 92.9375 260.027344 93.066406 261.066406 92.917969 C 263.492188 92.570312 265.777344 92.054688 266.25 89.453125 C 266.296875 89.191406 266.121094 88.941406 265.859375 88.894531 C 265.746094 88.871094 265.632812 88.894531 265.535156 88.945312 Z M 265.535156 88.945312 " fill-opacity="1" fill-rule="evenodd"/></g><g clip-path="url(#id4)"><path fill="#dce1de" d="M 303.722656 124.363281 C 303.753906 124.523438 303.804688 124.800781 303.832031 125.066406 C 304.09375 127.386719 304.257812 132.785156 304.359375 133.589844 C 305.117188 139.625 305.460938 145.488281 305.460938 151.667969 C 305.460938 152.164062 305.394531 154.769531 305.234375 156.40625 C 305.195312 156.8125 305.117188 157.234375 305.082031 157.421875 C 304.910156 157.453125 304.542969 157.511719 304.222656 157.53125 C 302.789062 157.617188 300.546875 157.558594 300.171875 157.558594 C 299.90625 157.558594 299.6875 157.777344 299.6875 158.042969 C 299.6875 158.308594 299.90625 158.527344 300.171875 158.527344 C 300.609375 158.527344 303.53125 158.601562 304.875 158.445312 C 305.15625 158.410156 305.378906 158.363281 305.519531 158.308594 C 305.648438 158.261719 305.738281 158.199219 305.796875 158.140625 C 305.855469 158.082031 305.921875 157.992188 305.972656 157.851562 C 306.023438 157.707031 306.078125 157.46875 306.121094 157.160156 C 306.339844 155.644531 306.433594 152.246094 306.433594 151.667969 C 306.433594 145.445312 306.082031 139.542969 305.320312 133.46875 C 305.222656 132.664062 305.054688 127.277344 304.796875 124.957031 C 304.746094 124.515625 304.691406 124.175781 304.636719 123.984375 C 304.582031 123.796875 304.503906 123.683594 304.445312 123.625 C 304.382812 123.5625 304.285156 123.496094 304.148438 123.453125 C 304.007812 123.40625 303.785156 123.378906 303.503906 123.371094 C 302.199219 123.34375 299.367188 123.761719 298.792969 123.90625 C 298.535156 123.972656 298.378906 124.234375 298.445312 124.492188 C 298.507812 124.75 298.773438 124.90625 299.03125 124.84375 C 299.507812 124.722656 301.625 124.40625 302.976562 124.34375 C 303.246094 124.332031 303.554688 124.351562 303.722656 124.363281 Z M 303.722656 124.363281 " fill-opacity="1" fill-rule="evenodd"/></g><path fill="#dce1de" d="M 253.234375 129.582031 C 253.355469 129.574219 253.679688 129.5625 254.054688 129.546875 C 260.320312 129.320312 296.722656 128.179688 298.796875 128.4375 C 299.0625 128.472656 299.304688 128.285156 299.339844 128.019531 C 299.371094 127.753906 299.183594 127.511719 298.917969 127.480469 C 296.835938 127.21875 260.308594 128.351562 254.019531 128.582031 C 253.4375 128.601562 253.101562 128.617188 253.066406 128.625 C 252.96875 128.636719 252.917969 128.664062 252.898438 128.675781 C 252.667969 128.792969 252.640625 128.980469 252.636719 129.09375 C 252.636719 129.222656 252.667969 129.375 252.839844 129.496094 C 252.847656 129.503906 252.941406 129.589844 253.152344 129.589844 C 253.179688 129.589844 253.207031 129.585938 253.234375 129.582031 Z M 253.421875 128.703125 C 253.363281 128.660156 253.285156 128.628906 253.183594 128.621094 C 253.269531 128.628906 253.351562 128.65625 253.421875 128.703125 Z M 253.421875 128.703125 " fill-opacity="1" fill-rule="evenodd"/><g fill="#dce1de" fill-opacity="1"><g transform="translate(56.382416, 177.762752)"><g><path d="M 33.421875 2.203125 C 32.140625 2.015625 30.671875 1.921875 29.015625 1.921875 L 25.71875 2 C 25.070312 2.039062 24.15625 2.0625 22.96875 2.0625 C 22.925781 1.738281 22.90625 1.257812 22.90625 0.625 L 21.59375 0.6875 C 21.457031 -1.789062 21.390625 -5.894531 21.390625 -11.625 L 21.25 -20.078125 C 21.113281 -19.710938 20.847656 -18.976562 20.453125 -17.875 C 20.066406 -16.78125 19.6875 -15.96875 19.3125 -15.4375 C 18.945312 -14.90625 18.609375 -14.640625 18.296875 -14.640625 C 17.921875 -14.640625 17.460938 -15.097656 16.921875 -16.015625 C 16.234375 -16.066406 15.40625 -17.238281 14.4375 -19.53125 C 14.394531 -18.425781 14.375 -16.820312 14.375 -14.71875 C 14.375 -10.6875 14.601562 -5.1875 15.0625 1.78125 C 13.269531 2.0625 11.367188 2.203125 9.359375 2.203125 L 7.15625 2.265625 C 6.050781 2.265625 5.1875 2.160156 4.5625 1.953125 C 3.945312 1.753906 3.640625 1.332031 3.640625 0.6875 L 3.296875 0.6875 C 2.929688 0.6875 2.613281 0.410156 2.34375 -0.140625 C 2.25 -0.410156 2.1875 -1.492188 2.15625 -3.390625 C 2.132812 -5.296875 2.125 -7.945312 2.125 -11.34375 C 2.125 -23.769531 2.195312 -35.875 2.34375 -47.65625 C 3.570312 -48.070312 4.96875 -48.28125 6.53125 -48.28125 C 7.40625 -48.28125 8.070312 -48.253906 8.53125 -48.203125 L 10.734375 -48.140625 C 11.554688 -48.140625 12.21875 -48.160156 12.71875 -48.203125 L 13.6875 -46.765625 L 14.09375 -46.828125 C 14.96875 -45.816406 15.929688 -43.753906 16.984375 -40.640625 L 17.609375 -38.921875 C 17.921875 -40.429688 18.429688 -42.160156 19.140625 -44.109375 C 19.859375 -46.054688 20.539062 -47.488281 21.1875 -48.40625 C 21.820312 -48.320312 22.367188 -48.28125 22.828125 -48.28125 C 23.648438 -48.28125 25.164062 -48.320312 27.375 -48.40625 C 29.15625 -48.550781 30.800781 -48.625 32.3125 -48.625 L 32.25 -47.234375 L 33.6875 -47.234375 C 33.644531 -46.085938 33.625 -44.117188 33.625 -41.328125 L 33.6875 -34.109375 C 33.738281 -32.503906 33.765625 -30.070312 33.765625 -26.8125 L 33.765625 -24.28125 C 33.765625 -22.582031 33.71875 -21.296875 33.625 -20.421875 L 33.625 -20.484375 Z M 31.5625 -21.875 C 31.65625 -22.789062 31.703125 -24.140625 31.703125 -25.921875 L 31.703125 -28.609375 C 31.703125 -31.722656 31.675781 -34.0625 31.625 -35.625 L 31.5625 -42.703125 C 31.5625 -45.035156 31.582031 -46.773438 31.625 -47.921875 C 30.207031 -47.921875 28.601562 -47.851562 26.8125 -47.71875 L 22.5625 -47.578125 C 21.914062 -47.578125 21.546875 -47.601562 21.453125 -47.65625 C 21.046875 -47.101562 20.585938 -46.101562 20.078125 -44.65625 C 19.578125 -43.21875 19.117188 -41.8125 18.703125 -40.4375 C 18.429688 -39.519531 18.164062 -38.691406 17.90625 -37.953125 C 17.65625 -37.222656 17.484375 -36.878906 17.390625 -36.921875 C 17.117188 -36.921875 16.800781 -37.332031 16.4375 -38.15625 C 16.070312 -38.988281 15.519531 -40.34375 14.78125 -42.21875 C 14.375 -43.363281 13.960938 -44.453125 13.546875 -45.484375 C 13.128906 -46.515625 12.765625 -47.191406 12.453125 -47.515625 L 12.375 -47.515625 C 11.875 -47.472656 11.070312 -47.453125 9.96875 -47.453125 L 7.5 -47.515625 L 6.390625 -47.515625 C 4.878906 -47.515625 3.757812 -47.398438 3.03125 -47.171875 C 2.882812 -35.429688 2.8125 -23.488281 2.8125 -11.34375 C 2.8125 -6.488281 2.847656 -3.382812 2.921875 -2.03125 C 2.992188 -0.675781 3.117188 0 3.296875 0 L 8.453125 0.0625 C 10.203125 0.0625 11.691406 -0.0234375 12.921875 -0.203125 C 12.515625 -6.484375 12.3125 -11.78125 12.3125 -16.09375 C 12.3125 -19.53125 12.445312 -22.921875 12.71875 -26.265625 L 12.921875 -25.578125 L 13.484375 -24.140625 C 14.210938 -22.023438 14.875 -20.253906 15.46875 -18.828125 C 16.0625 -17.410156 16.566406 -16.703125 16.984375 -16.703125 C 17.171875 -16.703125 17.492188 -17.253906 17.953125 -18.359375 C 18.410156 -19.460938 18.867188 -20.65625 19.328125 -21.9375 C 20.335938 -24.59375 21 -26.195312 21.3125 -26.75 C 21.726562 -23.039062 21.984375 -17.21875 22.078125 -9.28125 C 22.078125 -8.226562 22.097656 -6.726562 22.140625 -4.78125 C 22.191406 -2.832031 22.238281 -1.238281 22.28125 0 L 26.609375 -0.0625 L 29.09375 -0.0625 C 29.59375 -0.0625 30.347656 -0.0195312 31.359375 0.0625 Z M 31.5625 -21.875 "/></g></g></g><g fill="#dce1de" fill-opacity="1"><g transform="translate(90.829835, 177.762752)"><g><path d="M 12.453125 -48.6875 L 13.828125 -48.6875 L 13.890625 -44.96875 C 13.984375 -42.3125 14.03125 -40.316406 14.03125 -38.984375 C 13.519531 -38.210938 12.421875 -37.828125 10.734375 -37.828125 C 10.316406 -37.828125 9.421875 -37.867188 8.046875 -37.953125 L 8.109375 -37.953125 L 5.78125 -38.03125 C 4.863281 -38.03125 4.0625 -38.003906 3.375 -37.953125 L 3.375 -39.40625 L 2 -39.328125 C 2 -40.203125 1.953125 -41.507812 1.859375 -43.25 C 1.765625 -45.363281 1.71875 -47.222656 1.71875 -48.828125 L 1.71875 -50.265625 L 12.453125 -50.0625 Z M 2.40625 -48.484375 C 2.40625 -47.054688 2.453125 -45.378906 2.546875 -43.453125 C 2.640625 -41.898438 2.6875 -40.78125 2.6875 -40.09375 L 3.84375 -40.09375 C 4.53125 -40.09375 5.519531 -40.046875 6.8125 -39.953125 L 9.28125 -39.890625 C 10.789062 -39.890625 11.6875 -40.117188 11.96875 -40.578125 C 11.96875 -42.035156 11.921875 -44.050781 11.828125 -46.625 C 11.785156 -47.445312 11.765625 -48.363281 11.765625 -49.375 L 2.40625 -49.578125 Z M 12.71875 -33.765625 L 14.09375 -33.5625 C 14.09375 -30.945312 14.046875 -26.976562 13.953125 -21.65625 C 13.816406 -17.664062 13.75 -13.585938 13.75 -9.421875 C 13.75 -5.335938 13.84375 -1.804688 14.03125 1.171875 C 13.664062 1.535156 13.160156 1.785156 12.515625 1.921875 C 11.867188 2.054688 11.046875 2.125 10.046875 2.125 C 8.710938 2.125 7.703125 2.101562 7.015625 2.0625 L 7.078125 2.0625 L 5.4375 2 C 4.425781 2 3.578125 2.113281 2.890625 2.34375 C 2.890625 2.019531 2.9375 1.445312 3.03125 0.625 C 2.34375 0.707031 1.835938 0.820312 1.515625 0.96875 C 1.742188 -2.101562 1.859375 -5.269531 1.859375 -8.53125 C 1.859375 -10.363281 1.8125 -13.113281 1.71875 -16.78125 C 1.625 -20.445312 1.578125 -23.242188 1.578125 -25.171875 C 1.578125 -28.378906 1.738281 -31.75 2.0625 -35.28125 C 2.382812 -35.28125 2.613281 -35.300781 2.75 -35.34375 L 3.84375 -35.484375 C 4.21875 -35.484375 4.921875 -35.445312 5.953125 -35.375 C 6.984375 -35.3125 8.09375 -35.28125 9.28125 -35.28125 L 10.859375 -35.28125 L 12.71875 -34.9375 Z M 9.28125 -34.59375 C 7.769531 -34.59375 6.328125 -34.640625 4.953125 -34.734375 L 2.953125 -34.796875 L 2.6875 -34.796875 L 2.6875 -34.734375 C 2.40625 -32.296875 2.265625 -29.15625 2.265625 -25.3125 C 2.265625 -23.5625 2.3125 -20.804688 2.40625 -17.046875 C 2.5 -13.296875 2.546875 -10.429688 2.546875 -8.453125 C 2.546875 -5.335938 2.453125 -2.519531 2.265625 0 C 2.359375 -0.0390625 2.726562 -0.0625 3.375 -0.0625 C 4.332031 -0.0625 5.109375 -0.0390625 5.703125 0 L 8.796875 0.0625 C 9.804688 0.0625 10.550781 0.0390625 11.03125 0 C 11.519531 -0.0390625 11.832031 -0.175781 11.96875 -0.40625 C 11.78125 -3.664062 11.6875 -7.359375 11.6875 -11.484375 C 11.6875 -15.972656 11.753906 -20.421875 11.890625 -24.828125 C 11.984375 -29.128906 12.03125 -32.316406 12.03125 -34.390625 L 12.03125 -34.59375 Z M 9.28125 -34.59375 "/></g></g></g><g fill="#dce1de" fill-opacity="1"><g transform="translate(105.062596, 177.762752)"><g><path d="M 13.546875 -32.65625 C 15.796875 -34.039062 18.226562 -34.734375 20.84375 -34.734375 C 22.300781 -34.734375 23.71875 -34.476562 25.09375 -33.96875 C 26.46875 -33.46875 27.5 -32.6875 28.1875 -31.625 L 29.015625 -31.015625 C 30.210938 -30.097656 30.8125 -26.242188 30.8125 -19.453125 C 30.8125 -17.671875 30.765625 -14.992188 30.671875 -11.421875 C 30.578125 -7.929688 30.53125 -5.382812 30.53125 -3.78125 C 30.53125 -1.945312 30.578125 -0.0664062 30.671875 1.859375 C 29.015625 2.085938 27.085938 2.203125 24.890625 2.203125 L 20.765625 2.203125 C 20.722656 1.878906 20.703125 1.421875 20.703125 0.828125 L 19.390625 0.828125 C 19.253906 -0.597656 19.1875 -3.375 19.1875 -7.5 L 19.1875 -10.9375 C 19.1875 -13.59375 19.140625 -15.65625 19.046875 -17.125 C 18.953125 -18.59375 18.703125 -19.832031 18.296875 -20.84375 C 17.921875 -20.976562 17.4375 -21.046875 16.84375 -21.046875 C 15.46875 -21.046875 14.515625 -20.585938 13.984375 -19.671875 C 13.460938 -18.753906 13.203125 -16.988281 13.203125 -14.375 C 13.203125 -13.132812 13.25 -11.414062 13.34375 -9.21875 C 13.4375 -6.925781 13.484375 -5.25 13.484375 -4.1875 C 13.484375 -2.21875 13.390625 -0.5 13.203125 0.96875 L 13.203125 1.71875 C 11.597656 2.132812 10.269531 2.34375 9.21875 2.34375 C 8.570312 2.34375 8.066406 2.316406 7.703125 2.265625 L 6.046875 2.203125 L 5.296875 2.203125 C 4.609375 2.203125 3.941406 2.25 3.296875 2.34375 L 3.296875 0.828125 L 1.921875 0.96875 L 1.859375 -12.03125 C 1.765625 -17.8125 1.71875 -22.191406 1.71875 -25.171875 C 1.71875 -27.597656 1.765625 -30.875 1.859375 -35 C 2.953125 -34.863281 3.984375 -34.796875 4.953125 -34.796875 C 5.316406 -34.796875 5.921875 -34.863281 6.765625 -35 C 7.617188 -35.132812 8.78125 -35.203125 10.25 -35.203125 C 11.488281 -35.203125 12.128906 -34.929688 12.171875 -34.390625 C 12.171875 -34.109375 12.390625 -33.863281 12.828125 -33.65625 C 13.265625 -33.445312 13.503906 -33.226562 13.546875 -33 Z M 10.65625 -34.59375 C 9.375 -34.59375 7.929688 -34.476562 6.328125 -34.25 C 5.585938 -34.15625 5.128906 -34.109375 4.953125 -34.109375 L 4.125 -34.109375 C 3.53125 -34.109375 3.003906 -34.15625 2.546875 -34.25 C 2.453125 -32.820312 2.40625 -30.734375 2.40625 -27.984375 L 2.40625 -23.796875 C 2.40625 -20.992188 2.453125 -16.9375 2.546875 -11.625 L 2.609375 0.203125 C 3.160156 0.160156 3.894531 0.140625 4.8125 0.140625 L 8.109375 0.203125 C 9.078125 0.203125 10.085938 0.0664062 11.140625 -0.203125 L 11.140625 -0.484375 C 11.328125 -1.992188 11.421875 -3.6875 11.421875 -5.5625 C 11.421875 -6.757812 11.375 -8.503906 11.28125 -10.796875 C 11.1875 -13.085938 11.140625 -14.828125 11.140625 -16.015625 C 11.140625 -18.765625 11.484375 -20.632812 12.171875 -21.625 C 12.859375 -22.613281 13.957031 -23.109375 15.46875 -23.109375 C 17.125 -23.109375 18.191406 -22.613281 18.671875 -21.625 C 19.148438 -20.632812 19.4375 -19.53125 19.53125 -18.3125 C 19.625 -17.101562 19.691406 -16.269531 19.734375 -15.8125 C 19.828125 -15.125 19.875 -14.023438 19.875 -12.515625 L 19.875 -2.8125 C 19.875 -1.4375 19.921875 -0.453125 20.015625 0.140625 L 24 0.203125 C 25.644531 0.203125 27.179688 0.0859375 28.609375 -0.140625 C 28.515625 -1.878906 28.46875 -3.320312 28.46875 -4.46875 C 28.46875 -6.070312 28.515625 -8.660156 28.609375 -12.234375 C 28.703125 -15.992188 28.75 -18.742188 28.75 -20.484375 C 28.75 -23.648438 28.632812 -26.207031 28.40625 -28.15625 C 28.175781 -30.101562 27.757812 -31.351562 27.15625 -31.90625 C 25.601562 -33.320312 23.472656 -34.03125 20.765625 -34.03125 C 19.296875 -34.03125 17.988281 -33.800781 16.84375 -33.34375 C 15.695312 -32.882812 14.617188 -32.367188 13.609375 -31.796875 C 12.609375 -31.222656 11.945312 -30.847656 11.625 -30.671875 L 11.6875 -32.25 C 11.6875 -33.8125 11.34375 -34.59375 10.65625 -34.59375 Z M 10.65625 -34.59375 "/></g></g></g><g fill="#dce1de" fill-opacity="1"><g transform="translate(136.003382, 177.762752)"><g><path d="M 12.453125 -48.6875 L 13.828125 -48.6875 L 13.890625 -44.96875 C 13.984375 -42.3125 14.03125 -40.316406 14.03125 -38.984375 C 13.519531 -38.210938 12.421875 -37.828125 10.734375 -37.828125 C 10.316406 -37.828125 9.421875 -37.867188 8.046875 -37.953125 L 8.109375 -37.953125 L 5.78125 -38.03125 C 4.863281 -38.03125 4.0625 -38.003906 3.375 -37.953125 L 3.375 -39.40625 L 2 -39.328125 C 2 -40.203125 1.953125 -41.507812 1.859375 -43.25 C 1.765625 -45.363281 1.71875 -47.222656 1.71875 -48.828125 L 1.71875 -50.265625 L 12.453125 -50.0625 Z M 2.40625 -48.484375 C 2.40625 -47.054688 2.453125 -45.378906 2.546875 -43.453125 C 2.640625 -41.898438 2.6875 -40.78125 2.6875 -40.09375 L 3.84375 -40.09375 C 4.53125 -40.09375 5.519531 -40.046875 6.8125 -39.953125 L 9.28125 -39.890625 C 10.789062 -39.890625 11.6875 -40.117188 11.96875 -40.578125 C 11.96875 -42.035156 11.921875 -44.050781 11.828125 -46.625 C 11.785156 -47.445312 11.765625 -48.363281 11.765625 -49.375 L 2.40625 -49.578125 Z M 12.71875 -33.765625 L 14.09375 -33.5625 C 14.09375 -30.945312 14.046875 -26.976562 13.953125 -21.65625 C 13.816406 -17.664062 13.75 -13.585938 13.75 -9.421875 C 13.75 -5.335938 13.84375 -1.804688 14.03125 1.171875 C 13.664062 1.535156 13.160156 1.785156 12.515625 1.921875 C 11.867188 2.054688 11.046875 2.125 10.046875 2.125 C 8.710938 2.125 7.703125 2.101562 7.015625 2.0625 L 7.078125 2.0625 L 5.4375 2 C 4.425781 2 3.578125 2.113281 2.890625 2.34375 C 2.890625 2.019531 2.9375 1.445312 3.03125 0.625 C 2.34375 0.707031 1.835938 0.820312 1.515625 0.96875 C 1.742188 -2.101562 1.859375 -5.269531 1.859375 -8.53125 C 1.859375 -10.363281 1.8125 -13.113281 1.71875 -16.78125 C 1.625 -20.445312 1.578125 -23.242188 1.578125 -25.171875 C 1.578125 -28.378906 1.738281 -31.75 2.0625 -35.28125 C 2.382812 -35.28125 2.613281 -35.300781 2.75 -35.34375 L 3.84375 -35.484375 C 4.21875 -35.484375 4.921875 -35.445312 5.953125 -35.375 C 6.984375 -35.3125 8.09375 -35.28125 9.28125 -35.28125 L 10.859375 -35.28125 L 12.71875 -34.9375 Z M 9.28125 -34.59375 C 7.769531 -34.59375 6.328125 -34.640625 4.953125 -34.734375 L 2.953125 -34.796875 L 2.6875 -34.796875 L 2.6875 -34.734375 C 2.40625 -32.296875 2.265625 -29.15625 2.265625 -25.3125 C 2.265625 -23.5625 2.3125 -20.804688 2.40625 -17.046875 C 2.5 -13.296875 2.546875 -10.429688 2.546875 -8.453125 C 2.546875 -5.335938 2.453125 -2.519531 2.265625 0 C 2.359375 -0.0390625 2.726562 -0.0625 3.375 -0.0625 C 4.332031 -0.0625 5.109375 -0.0390625 5.703125 0 L 8.796875 0.0625 C 9.804688 0.0625 10.550781 0.0390625 11.03125 0 C 11.519531 -0.0390625 11.832031 -0.175781 11.96875 -0.40625 C 11.78125 -3.664062 11.6875 -7.359375 11.6875 -11.484375 C 11.6875 -15.972656 11.753906 -20.421875 11.890625 -24.828125 C 11.984375 -29.128906 12.03125 -32.316406 12.03125 -34.390625 L 12.03125 -34.59375 Z M 9.28125 -34.59375 "/></g></g></g><g fill="#dce1de" fill-opacity="1"><g transform="translate(150.236143, 177.762752)"><g><path d="M 12.375 -32.9375 C 12.5625 -32.019531 13.019531 -29.222656 13.75 -24.546875 C 14.34375 -20.648438 14.867188 -17.488281 15.328125 -15.0625 L 16.640625 -21.53125 C 17.742188 -27.71875 18.773438 -32.140625 19.734375 -34.796875 C 20.648438 -34.796875 21.9375 -34.84375 23.59375 -34.9375 C 25.238281 -35.03125 26.519531 -35.078125 27.4375 -35.078125 L 28.40625 -35.078125 C 29.175781 -35.078125 29.835938 -35.03125 30.390625 -34.9375 L 29.90625 -33.6875 C 30.132812 -33.6875 30.753906 -33.644531 31.765625 -33.5625 C 30.578125 -30.394531 29.582031 -27.226562 28.78125 -24.0625 C 27.976562 -20.90625 27.070312 -16.875 26.0625 -11.96875 C 25.875 -11.1875 25.457031 -9.304688 24.8125 -6.328125 C 24.175781 -3.347656 23.492188 -0.550781 22.765625 2.0625 C 21.390625 2.289062 19.554688 2.40625 17.265625 2.40625 L 12.65625 2.34375 C 11.6875 2.289062 10.359375 2.265625 8.671875 2.265625 L 8.453125 0.890625 L 7.296875 0.890625 C 5.085938 -12.816406 2.585938 -24.875 -0.203125 -35.28125 C 1.210938 -35.050781 2.359375 -34.9375 3.234375 -34.9375 C 4.285156 -34.9375 5.085938 -34.957031 5.640625 -35 C 5.960938 -35 6.640625 -35 7.671875 -35 C 8.703125 -35 9.609375 -34.953125 10.390625 -34.859375 L 11 -34.3125 C 11 -33.945312 11.046875 -33.71875 11.140625 -33.625 C 11.234375 -33.53125 11.441406 -33.484375 11.765625 -33.484375 Z M 3.640625 -34.25 L 2.46875 -34.25 C 1.738281 -34.25 1.164062 -34.296875 0.75 -34.390625 C 3.320312 -24.984375 5.707031 -13.453125 7.90625 0.203125 C 9.332031 0.203125 10.457031 0.226562 11.28125 0.28125 L 15.75 0.34375 C 17.851562 0.34375 19.550781 0.25 20.84375 0.0625 C 21.84375 -3.644531 22.914062 -8.273438 24.0625 -13.828125 C 25.03125 -18.453125 25.898438 -22.3125 26.671875 -25.40625 C 27.453125 -28.5 28.375 -31.46875 29.4375 -34.3125 L 27.296875 -34.390625 C 26.378906 -34.390625 25.144531 -34.34375 23.59375 -34.25 C 22.125 -34.15625 21 -34.109375 20.21875 -34.109375 C 19.757812 -32.960938 19.34375 -31.5625 18.96875 -29.90625 C 18.601562 -28.257812 18.257812 -26.625 17.9375 -25 C 17.625 -23.375 17.421875 -22.304688 17.328125 -21.796875 C 16.367188 -16.203125 15.546875 -12.488281 14.859375 -10.65625 C 14.253906 -12.3125 13.710938 -14.421875 13.234375 -16.984375 C 12.753906 -19.554688 12.21875 -22.695312 11.625 -26.40625 C 11.300781 -28.65625 10.863281 -31.242188 10.3125 -34.171875 C 9.125 -34.265625 8.234375 -34.3125 7.640625 -34.3125 Z M 3.640625 -34.25 "/></g></g></g><g fill="#dce1de" fill-opacity="1"><g transform="translate(179.733033, 177.762752)"><g><path d="M 32.25 -32.9375 C 32.34375 -32.207031 32.390625 -31.632812 32.390625 -31.21875 L 32.390625 -30.53125 C 32.335938 -29.289062 32.3125 -27.503906 32.3125 -25.171875 L 32.390625 -17.46875 C 32.429688 -15.726562 32.453125 -13.140625 32.453125 -9.703125 C 32.453125 -6.992188 32.382812 -4.21875 32.25 -1.375 L 32.25 -0.890625 C 32.25 0.0664062 32.179688 0.773438 32.046875 1.234375 C 31.910156 1.691406 31.5 1.988281 30.8125 2.125 L 29.84375 2.125 C 29.195312 2.125 28.375 2.082031 27.375 2 L 25.375 1.921875 C 25.050781 1.921875 24.570312 1.96875 23.9375 2.0625 L 22.421875 2.125 C 21.679688 1.945312 21.195312 1.488281 20.96875 0.75 C 20.375 0.519531 20.007812 0.269531 19.875 0 C 17.488281 1.46875 15.128906 2.203125 12.796875 2.203125 C 10.359375 2.203125 8.210938 1.148438 6.359375 -0.953125 C 4.503906 -3.066406 3.082031 -5.71875 2.09375 -8.90625 C 1.113281 -12.09375 0.625 -15.222656 0.625 -18.296875 C 0.625 -21.773438 1.21875 -24.765625 2.40625 -27.265625 C 3.59375 -29.765625 5.226562 -31.65625 7.3125 -32.9375 C 9.40625 -34.21875 11.757812 -34.859375 14.375 -34.859375 C 15.65625 -34.859375 16.648438 -34.765625 17.359375 -34.578125 C 18.066406 -34.398438 18.722656 -33.945312 19.328125 -33.21875 C 19.367188 -33.445312 19.410156 -33.8125 19.453125 -34.3125 C 19.503906 -34.820312 19.617188 -35.144531 19.796875 -35.28125 C 19.984375 -35.414062 20.285156 -35.484375 20.703125 -35.484375 C 21.109375 -35.484375 21.484375 -35.445312 21.828125 -35.375 C 22.171875 -35.3125 22.503906 -35.28125 22.828125 -35.28125 L 23.453125 -35.28125 C 24.640625 -35.28125 26.90625 -35.164062 30.25 -34.9375 L 30.875 -34.3125 L 30.9375 -33.5625 L 31.625 -33.5625 Z M 22.6875 -34.59375 L 20.84375 -34.65625 C 20.375 -34.65625 20.09375 -34.367188 20 -33.796875 C 19.914062 -33.222656 19.875 -32.410156 19.875 -31.359375 L 19.875 -31.015625 C 19.457031 -32.023438 18.925781 -32.757812 18.28125 -33.21875 C 17.644531 -33.675781 16.9375 -33.945312 16.15625 -34.03125 C 15.375 -34.125 14.273438 -34.171875 12.859375 -34.171875 C 10.703125 -34.128906 8.738281 -33.40625 6.96875 -32 C 5.207031 -30.601562 3.820312 -28.710938 2.8125 -26.328125 C 1.8125 -23.953125 1.3125 -21.273438 1.3125 -18.296875 C 1.3125 -15.585938 1.675781 -12.8125 2.40625 -9.96875 C 3.132812 -7.125 4.265625 -4.726562 5.796875 -2.78125 C 7.335938 -0.832031 9.210938 0.140625 11.421875 0.140625 C 12.972656 0.140625 14.582031 -0.234375 16.25 -0.984375 C 17.925781 -1.742188 19.335938 -2.695312 20.484375 -3.84375 C 20.484375 -3.570312 20.4375 -3.195312 20.34375 -2.71875 C 20.257812 -2.238281 20.21875 -1.8125 20.21875 -1.4375 C 20.21875 -0.664062 20.492188 -0.164062 21.046875 0.0625 C 21.410156 0.0625 21.914062 0.0195312 22.5625 -0.0625 L 24 -0.140625 L 26.265625 -0.0625 C 27.273438 0.0195312 28.007812 0.0625 28.46875 0.0625 L 29.296875 0.0625 C 29.660156 -0.0195312 29.898438 -0.210938 30.015625 -0.515625 C 30.128906 -0.816406 30.1875 -1.238281 30.1875 -1.78125 L 30.1875 -2.75 C 30.375 -5.457031 30.46875 -8.460938 30.46875 -11.765625 L 30.390625 -19.328125 C 30.296875 -22.710938 30.25 -25.28125 30.25 -27.03125 C 30.25 -29.175781 30.273438 -30.800781 30.328125 -31.90625 L 30.328125 -32.59375 C 30.328125 -32.957031 30.28125 -33.507812 30.1875 -34.25 C 28.90625 -34.34375 26.660156 -34.457031 23.453125 -34.59375 Z M 16.578125 -24.96875 C 17.722656 -24.96875 18.535156 -24.863281 19.015625 -24.65625 C 19.492188 -24.445312 19.800781 -24.007812 19.9375 -23.34375 C 20.070312 -22.675781 20.140625 -21.566406 20.140625 -20.015625 L 20.140625 -16.234375 C 20.140625 -14.578125 20.0625 -13.289062 19.90625 -12.375 C 19.75 -11.457031 19.359375 -10.742188 18.734375 -10.234375 C 18.117188 -9.734375 17.171875 -9.484375 15.890625 -9.484375 C 14.003906 -9.484375 12.507812 -10.191406 11.40625 -11.609375 C 10.3125 -13.035156 9.765625 -14.804688 9.765625 -16.921875 C 9.765625 -18.429688 9.898438 -19.644531 10.171875 -20.5625 C 10.453125 -21.800781 11.140625 -22.84375 12.234375 -23.6875 C 13.335938 -24.539062 14.785156 -24.96875 16.578125 -24.96875 Z M 12.234375 -18.984375 C 11.960938 -18.066406 11.828125 -16.921875 11.828125 -15.546875 C 11.828125 -11.960938 13.179688 -10.171875 15.890625 -10.171875 C 17.035156 -10.171875 17.859375 -10.421875 18.359375 -10.921875 C 18.859375 -11.429688 19.164062 -12.117188 19.28125 -12.984375 C 19.394531 -13.859375 19.453125 -15.191406 19.453125 -16.984375 L 19.453125 -18.765625 L 19.53125 -20.84375 C 19.53125 -21.570312 19.425781 -22.097656 19.21875 -22.421875 C 19.007812 -22.742188 18.585938 -22.90625 17.953125 -22.90625 C 16.347656 -22.90625 15.0625 -22.535156 14.09375 -21.796875 C 13.132812 -21.066406 12.515625 -20.148438 12.234375 -19.046875 Z M 12.234375 -18.984375 "/></g></g></g><g fill="#dce1de" fill-opacity="1"><g transform="translate(212.461513, 177.762752)"><g><path d="M 13.546875 -32.65625 C 15.796875 -34.039062 18.226562 -34.734375 20.84375 -34.734375 C 22.300781 -34.734375 23.71875 -34.476562 25.09375 -33.96875 C 26.46875 -33.46875 27.5 -32.6875 28.1875 -31.625 L 29.015625 -31.015625 C 30.210938 -30.097656 30.8125 -26.242188 30.8125 -19.453125 C 30.8125 -17.671875 30.765625 -14.992188 30.671875 -11.421875 C 30.578125 -7.929688 30.53125 -5.382812 30.53125 -3.78125 C 30.53125 -1.945312 30.578125 -0.0664062 30.671875 1.859375 C 29.015625 2.085938 27.085938 2.203125 24.890625 2.203125 L 20.765625 2.203125 C 20.722656 1.878906 20.703125 1.421875 20.703125 0.828125 L 19.390625 0.828125 C 19.253906 -0.597656 19.1875 -3.375 19.1875 -7.5 L 19.1875 -10.9375 C 19.1875 -13.59375 19.140625 -15.65625 19.046875 -17.125 C 18.953125 -18.59375 18.703125 -19.832031 18.296875 -20.84375 C 17.921875 -20.976562 17.4375 -21.046875 16.84375 -21.046875 C 15.46875 -21.046875 14.515625 -20.585938 13.984375 -19.671875 C 13.460938 -18.753906 13.203125 -16.988281 13.203125 -14.375 C 13.203125 -13.132812 13.25 -11.414062 13.34375 -9.21875 C 13.4375 -6.925781 13.484375 -5.25 13.484375 -4.1875 C 13.484375 -2.21875 13.390625 -0.5 13.203125 0.96875 L 13.203125 1.71875 C 11.597656 2.132812 10.269531 2.34375 9.21875 2.34375 C 8.570312 2.34375 8.066406 2.316406 7.703125 2.265625 L 6.046875 2.203125 L 5.296875 2.203125 C 4.609375 2.203125 3.941406 2.25 3.296875 2.34375 L 3.296875 0.828125 L 1.921875 0.96875 L 1.859375 -12.03125 C 1.765625 -17.8125 1.71875 -22.191406 1.71875 -25.171875 C 1.71875 -27.597656 1.765625 -30.875 1.859375 -35 C 2.953125 -34.863281 3.984375 -34.796875 4.953125 -34.796875 C 5.316406 -34.796875 5.921875 -34.863281 6.765625 -35 C 7.617188 -35.132812 8.78125 -35.203125 10.25 -35.203125 C 11.488281 -35.203125 12.128906 -34.929688 12.171875 -34.390625 C 12.171875 -34.109375 12.390625 -33.863281 12.828125 -33.65625 C 13.265625 -33.445312 13.503906 -33.226562 13.546875 -33 Z M 10.65625 -34.59375 C 9.375 -34.59375 7.929688 -34.476562 6.328125 -34.25 C 5.585938 -34.15625 5.128906 -34.109375 4.953125 -34.109375 L 4.125 -34.109375 C 3.53125 -34.109375 3.003906 -34.15625 2.546875 -34.25 C 2.453125 -32.820312 2.40625 -30.734375 2.40625 -27.984375 L 2.40625 -23.796875 C 2.40625 -20.992188 2.453125 -16.9375 2.546875 -11.625 L 2.609375 0.203125 C 3.160156 0.160156 3.894531 0.140625 4.8125 0.140625 L 8.109375 0.203125 C 9.078125 0.203125 10.085938 0.0664062 11.140625 -0.203125 L 11.140625 -0.484375 C 11.328125 -1.992188 11.421875 -3.6875 11.421875 -5.5625 C 11.421875 -6.757812 11.375 -8.503906 11.28125 -10.796875 C 11.1875 -13.085938 11.140625 -14.828125 11.140625 -16.015625 C 11.140625 -18.765625 11.484375 -20.632812 12.171875 -21.625 C 12.859375 -22.613281 13.957031 -23.109375 15.46875 -23.109375 C 17.125 -23.109375 18.191406 -22.613281 18.671875 -21.625 C 19.148438 -20.632812 19.4375 -19.53125 19.53125 -18.3125 C 19.625 -17.101562 19.691406 -16.269531 19.734375 -15.8125 C 19.828125 -15.125 19.875 -14.023438 19.875 -12.515625 L 19.875 -2.8125 C 19.875 -1.4375 19.921875 -0.453125 20.015625 0.140625 L 24 0.203125 C 25.644531 0.203125 27.179688 0.0859375 28.609375 -0.140625 C 28.515625 -1.878906 28.46875 -3.320312 28.46875 -4.46875 C 28.46875 -6.070312 28.515625 -8.660156 28.609375 -12.234375 C 28.703125 -15.992188 28.75 -18.742188 28.75 -20.484375 C 28.75 -23.648438 28.632812 -26.207031 28.40625 -28.15625 C 28.175781 -30.101562 27.757812 -31.351562 27.15625 -31.90625 C 25.601562 -33.320312 23.472656 -34.03125 20.765625 -34.03125 C 19.296875 -34.03125 17.988281 -33.800781 16.84375 -33.34375 C 15.695312 -32.882812 14.617188 -32.367188 13.609375 -31.796875 C 12.609375 -31.222656 11.945312 -30.847656 11.625 -30.671875 L 11.6875 -32.25 C 11.6875 -33.8125 11.34375 -34.59375 10.65625 -34.59375 Z M 10.65625 -34.59375 "/></g></g></g><g fill="#dce1de" fill-opacity="1"><g transform="translate(304.694231, 177.762752)"><g><path d="M 32.25 -32.9375 C 32.34375 -32.207031 32.390625 -31.632812 32.390625 -31.21875 L 32.390625 -30.53125 C 32.335938 -29.289062 32.3125 -27.503906 32.3125 -25.171875 L 32.390625 -17.46875 C 32.429688 -15.726562 32.453125 -13.140625 32.453125 -9.703125 C 32.453125 -6.992188 32.382812 -4.21875 32.25 -1.375 L 32.25 -0.890625 C 32.25 0.0664062 32.179688 0.773438 32.046875 1.234375 C 31.910156 1.691406 31.5 1.988281 30.8125 2.125 L 29.84375 2.125 C 29.195312 2.125 28.375 2.082031 27.375 2 L 25.375 1.921875 C 25.050781 1.921875 24.570312 1.96875 23.9375 2.0625 L 22.421875 2.125 C 21.679688 1.945312 21.195312 1.488281 20.96875 0.75 C 20.375 0.519531 20.007812 0.269531 19.875 0 C 17.488281 1.46875 15.128906 2.203125 12.796875 2.203125 C 10.359375 2.203125 8.210938 1.148438 6.359375 -0.953125 C 4.503906 -3.066406 3.082031 -5.71875 2.09375 -8.90625 C 1.113281 -12.09375 0.625 -15.222656 0.625 -18.296875 C 0.625 -21.773438 1.21875 -24.765625 2.40625 -27.265625 C 3.59375 -29.765625 5.226562 -31.65625 7.3125 -32.9375 C 9.40625 -34.21875 11.757812 -34.859375 14.375 -34.859375 C 15.65625 -34.859375 16.648438 -34.765625 17.359375 -34.578125 C 18.066406 -34.398438 18.722656 -33.945312 19.328125 -33.21875 C 19.367188 -33.445312 19.410156 -33.8125 19.453125 -34.3125 C 19.503906 -34.820312 19.617188 -35.144531 19.796875 -35.28125 C 19.984375 -35.414062 20.285156 -35.484375 20.703125 -35.484375 C 21.109375 -35.484375 21.484375 -35.445312 21.828125 -35.375 C 22.171875 -35.3125 22.503906 -35.28125 22.828125 -35.28125 L 23.453125 -35.28125 C 24.640625 -35.28125 26.90625 -35.164062 30.25 -34.9375 L 30.875 -34.3125 L 30.9375 -33.5625 L 31.625 -33.5625 Z M 22.6875 -34.59375 L 20.84375 -34.65625 C 20.375 -34.65625 20.09375 -34.367188 20 -33.796875 C 19.914062 -33.222656 19.875 -32.410156 19.875 -31.359375 L 19.875 -31.015625 C 19.457031 -32.023438 18.925781 -32.757812 18.28125 -33.21875 C 17.644531 -33.675781 16.9375 -33.945312 16.15625 -34.03125 C 15.375 -34.125 14.273438 -34.171875 12.859375 -34.171875 C 10.703125 -34.128906 8.738281 -33.40625 6.96875 -32 C 5.207031 -30.601562 3.820312 -28.710938 2.8125 -26.328125 C 1.8125 -23.953125 1.3125 -21.273438 1.3125 -18.296875 C 1.3125 -15.585938 1.675781 -12.8125 2.40625 -9.96875 C 3.132812 -7.125 4.265625 -4.726562 5.796875 -2.78125 C 7.335938 -0.832031 9.210938 0.140625 11.421875 0.140625 C 12.972656 0.140625 14.582031 -0.234375 16.25 -0.984375 C 17.925781 -1.742188 19.335938 -2.695312 20.484375 -3.84375 C 20.484375 -3.570312 20.4375 -3.195312 20.34375 -2.71875 C 20.257812 -2.238281 20.21875 -1.8125 20.21875 -1.4375 C 20.21875 -0.664062 20.492188 -0.164062 21.046875 0.0625 C 21.410156 0.0625 21.914062 0.0195312 22.5625 -0.0625 L 24 -0.140625 L 26.265625 -0.0625 C 27.273438 0.0195312 28.007812 0.0625 28.46875 0.0625 L 29.296875 0.0625 C 29.660156 -0.0195312 29.898438 -0.210938 30.015625 -0.515625 C 30.128906 -0.816406 30.1875 -1.238281 30.1875 -1.78125 L 30.1875 -2.75 C 30.375 -5.457031 30.46875 -8.460938 30.46875 -11.765625 L 30.390625 -19.328125 C 30.296875 -22.710938 30.25 -25.28125 30.25 -27.03125 C 30.25 -29.175781 30.273438 -30.800781 30.328125 -31.90625 L 30.328125 -32.59375 C 30.328125 -32.957031 30.28125 -33.507812 30.1875 -34.25 C 28.90625 -34.34375 26.660156 -34.457031 23.453125 -34.59375 Z M 16.578125 -24.96875 C 17.722656 -24.96875 18.535156 -24.863281 19.015625 -24.65625 C 19.492188 -24.445312 19.800781 -24.007812 19.9375 -23.34375 C 20.070312 -22.675781 20.140625 -21.566406 20.140625 -20.015625 L 20.140625 -16.234375 C 20.140625 -14.578125 20.0625 -13.289062 19.90625 -12.375 C 19.75 -11.457031 19.359375 -10.742188 18.734375 -10.234375 C 18.117188 -9.734375 17.171875 -9.484375 15.890625 -9.484375 C 14.003906 -9.484375 12.507812 -10.191406 11.40625 -11.609375 C 10.3125 -13.035156 9.765625 -14.804688 9.765625 -16.921875 C 9.765625 -18.429688 9.898438 -19.644531 10.171875 -20.5625 C 10.453125 -21.800781 11.140625 -22.84375 12.234375 -23.6875 C 13.335938 -24.539062 14.785156 -24.96875 16.578125 -24.96875 Z M 12.234375 -18.984375 C 11.960938 -18.066406 11.828125 -16.921875 11.828125 -15.546875 C 11.828125 -11.960938 13.179688 -10.171875 15.890625 -10.171875 C 17.035156 -10.171875 17.859375 -10.421875 18.359375 -10.921875 C 18.859375 -11.429688 19.164062 -12.117188 19.28125 -12.984375 C 19.394531 -13.859375 19.453125 -15.191406 19.453125 -16.984375 L 19.453125 -18.765625 L 19.53125 -20.84375 C 19.53125 -21.570312 19.425781 -22.097656 19.21875 -22.421875 C 19.007812 -22.742188 18.585938 -22.90625 17.953125 -22.90625 C 16.347656 -22.90625 15.0625 -22.535156 14.09375 -21.796875 C 13.132812 -21.066406 12.515625 -20.148438 12.234375 -19.046875 Z M 12.234375 -18.984375 "/></g></g></g><g fill="#dce1de" fill-opacity="1"><g transform="translate(337.422711, 177.762752)"><g><path d="M 13.546875 -32.65625 C 15.796875 -34.039062 18.226562 -34.734375 20.84375 -34.734375 C 22.300781 -34.734375 23.71875 -34.476562 25.09375 -33.96875 C 26.46875 -33.46875 27.5 -32.6875 28.1875 -31.625 L 29.015625 -31.015625 C 30.210938 -30.097656 30.8125 -26.242188 30.8125 -19.453125 C 30.8125 -17.671875 30.765625 -14.992188 30.671875 -11.421875 C 30.578125 -7.929688 30.53125 -5.382812 30.53125 -3.78125 C 30.53125 -1.945312 30.578125 -0.0664062 30.671875 1.859375 C 29.015625 2.085938 27.085938 2.203125 24.890625 2.203125 L 20.765625 2.203125 C 20.722656 1.878906 20.703125 1.421875 20.703125 0.828125 L 19.390625 0.828125 C 19.253906 -0.597656 19.1875 -3.375 19.1875 -7.5 L 19.1875 -10.9375 C 19.1875 -13.59375 19.140625 -15.65625 19.046875 -17.125 C 18.953125 -18.59375 18.703125 -19.832031 18.296875 -20.84375 C 17.921875 -20.976562 17.4375 -21.046875 16.84375 -21.046875 C 15.46875 -21.046875 14.515625 -20.585938 13.984375 -19.671875 C 13.460938 -18.753906 13.203125 -16.988281 13.203125 -14.375 C 13.203125 -13.132812 13.25 -11.414062 13.34375 -9.21875 C 13.4375 -6.925781 13.484375 -5.25 13.484375 -4.1875 C 13.484375 -2.21875 13.390625 -0.5 13.203125 0.96875 L 13.203125 1.71875 C 11.597656 2.132812 10.269531 2.34375 9.21875 2.34375 C 8.570312 2.34375 8.066406 2.316406 7.703125 2.265625 L 6.046875 2.203125 L 5.296875 2.203125 C 4.609375 2.203125 3.941406 2.25 3.296875 2.34375 L 3.296875 0.828125 L 1.921875 0.96875 L 1.859375 -12.03125 C 1.765625 -17.8125 1.71875 -22.191406 1.71875 -25.171875 C 1.71875 -27.597656 1.765625 -30.875 1.859375 -35 C 2.953125 -34.863281 3.984375 -34.796875 4.953125 -34.796875 C 5.316406 -34.796875 5.921875 -34.863281 6.765625 -35 C 7.617188 -35.132812 8.78125 -35.203125 10.25 -35.203125 C 11.488281 -35.203125 12.128906 -34.929688 12.171875 -34.390625 C 12.171875 -34.109375 12.390625 -33.863281 12.828125 -33.65625 C 13.265625 -33.445312 13.503906 -33.226562 13.546875 -33 Z M 10.65625 -34.59375 C 9.375 -34.59375 7.929688 -34.476562 6.328125 -34.25 C 5.585938 -34.15625 5.128906 -34.109375 4.953125 -34.109375 L 4.125 -34.109375 C 3.53125 -34.109375 3.003906 -34.15625 2.546875 -34.25 C 2.453125 -32.820312 2.40625 -30.734375 2.40625 -27.984375 L 2.40625 -23.796875 C 2.40625 -20.992188 2.453125 -16.9375 2.546875 -11.625 L 2.609375 0.203125 C 3.160156 0.160156 3.894531 0.140625 4.8125 0.140625 L 8.109375 0.203125 C 9.078125 0.203125 10.085938 0.0664062 11.140625 -0.203125 L 11.140625 -0.484375 C 11.328125 -1.992188 11.421875 -3.6875 11.421875 -5.5625 C 11.421875 -6.757812 11.375 -8.503906 11.28125 -10.796875 C 11.1875 -13.085938 11.140625 -14.828125 11.140625 -16.015625 C 11.140625 -18.765625 11.484375 -20.632812 12.171875 -21.625 C 12.859375 -22.613281 13.957031 -23.109375 15.46875 -23.109375 C 17.125 -23.109375 18.191406 -22.613281 18.671875 -21.625 C 19.148438 -20.632812 19.4375 -19.53125 19.53125 -18.3125 C 19.625 -17.101562 19.691406 -16.269531 19.734375 -15.8125 C 19.828125 -15.125 19.875 -14.023438 19.875 -12.515625 L 19.875 -2.8125 C 19.875 -1.4375 19.921875 -0.453125 20.015625 0.140625 L 24 0.203125 C 25.644531 0.203125 27.179688 0.0859375 28.609375 -0.140625 C 28.515625 -1.878906 28.46875 -3.320312 28.46875 -4.46875 C 28.46875 -6.070312 28.515625 -8.660156 28.609375 -12.234375 C 28.703125 -15.992188 28.75 -18.742188 28.75 -20.484375 C 28.75 -23.648438 28.632812 -26.207031 28.40625 -28.15625 C 28.175781 -30.101562 27.757812 -31.351562 27.15625 -31.90625 C 25.601562 -33.320312 23.472656 -34.03125 20.765625 -34.03125 C 19.296875 -34.03125 17.988281 -33.800781 16.84375 -33.34375 C 15.695312 -32.882812 14.617188 -32.367188 13.609375 -31.796875 C 12.609375 -31.222656 11.945312 -30.847656 11.625 -30.671875 L 11.6875 -32.25 C 11.6875 -33.8125 11.34375 -34.59375 10.65625 -34.59375 Z M 10.65625 -34.59375 "/></g></g></g></svg>