<svg xmlns="http://www.w3.org/2000/svg" xmlns:xlink="http://www.w3.org/1999/xlink" width="300" zoomAndPan="magnify" viewBox="0 0 224.87999 74.999997" height="100" preserveAspectRatio="xMidYMid meet" version="1.0"><defs><g/><clipPath id="id1"><path d="M 125 7.515625 L 157 7.515625 L 157 68 L 125 68 Z M 125 7.515625 " clip-rule="nonzero"/></clipPath><clipPath id="id2"><path d="M 119.734375 17 L 132 17 L 132 30 L 119.734375 30 Z M 119.734375 17 " clip-rule="nonzero"/></clipPath><clipPath id="id3"><path d="M 127 7.515625 L 135 7.515625 L 135 12 L 127 12 Z M 127 7.515625 " clip-rule="nonzero"/></clipPath><clipPath id="id4"><path d="M 155 30 L 160.214844 30 L 160.214844 54 L 155 54 Z M 155 30 " clip-rule="nonzero"/></clipPath></defs><g clip-path="url(#id1)"><path fill="#dce1de" d="M 153.414062 22.296875 C 152.164062 19.273438 149.449219 16.714844 146.339844 14.605469 C 141.734375 11.472656 136.269531 9.328125 133.582031 8.082031 C 132.4375 7.550781 130.917969 7.601562 129.519531 7.980469 C 128.128906 8.355469 126.867188 9.054688 126.210938 9.78125 C 125.808594 10.230469 125.582031 11.058594 125.492188 12.003906 C 125.289062 14.085938 125.679688 16.746094 125.679688 16.746094 C 125.699219 16.878906 125.816406 16.972656 125.949219 16.964844 C 125.949219 16.964844 127.972656 16.835938 129.640625 18.21875 C 130.765625 19.148438 131.714844 20.761719 131.800781 23.539062 C 131.988281 29.53125 125.695312 29.460938 125.695312 29.460938 C 125.628906 29.460938 125.558594 29.488281 125.511719 29.539062 C 125.460938 29.589844 125.4375 29.65625 125.4375 29.726562 L 126.03125 49.554688 C 126.035156 49.691406 126.144531 49.800781 126.28125 49.804688 C 126.28125 49.804688 132.167969 50.011719 132.277344 56.109375 C 132.371094 61.476562 127.574219 62.527344 127.574219 62.527344 C 127.453125 62.554688 127.371094 62.664062 127.375 62.785156 L 127.511719 67.484375 C 127.515625 67.621094 127.625 67.726562 127.757812 67.734375 C 127.757812 67.734375 137.582031 68.199219 142.117188 66.957031 C 144.839844 66.214844 148.5 65.636719 151.25 64.292969 C 153.144531 63.363281 154.609375 62.066406 155.09375 60.132812 C 156.957031 52.714844 156.988281 30.957031 153.414062 22.296875 Z M 152.9375 22.488281 C 156.484375 31.078125 156.441406 52.652344 154.597656 60.007812 C 154.148438 61.796875 152.773438 62.972656 151.023438 63.832031 C 148.304688 65.167969 144.675781 65.726562 141.984375 66.464844 C 137.910156 67.578125 129.53125 67.296875 128.019531 67.234375 C 128.019531 67.234375 127.890625 62.972656 127.890625 62.972656 C 128.859375 62.691406 132.878906 61.207031 132.789062 56.097656 C 132.6875 50.277344 127.699219 49.429688 126.539062 49.3125 C 126.476562 47.261719 126.023438 32.117188 125.957031 29.964844 C 127.214844 29.894531 132.492188 29.261719 132.3125 23.523438 C 132.21875 20.542969 131.175781 18.824219 129.96875 17.824219 C 128.5 16.609375 126.777344 16.460938 126.15625 16.453125 C 126.070312 15.785156 125.839844 13.726562 126 12.054688 C 126.082031 11.234375 126.242188 10.511719 126.59375 10.121094 C 127.195312 9.449219 128.371094 8.820312 129.65625 8.472656 C 130.929688 8.125 132.320312 8.058594 133.367188 8.542969 C 136.035156 9.785156 141.472656 11.914062 146.054688 15.027344 C 149.074219 17.078125 151.726562 19.550781 152.9375 22.488281 Z M 152.9375 22.488281 " fill-opacity="1" fill-rule="evenodd"/></g><g clip-path="url(#id2)"><path fill="#dce1de" d="M 125.949219 17.347656 C 124.851562 17.28125 122.847656 17.578125 121.414062 18.988281 C 120.460938 19.925781 119.753906 21.355469 119.75 23.5 C 119.742188 26.183594 121.453125 27.859375 123.296875 28.667969 C 124.523438 29.207031 125.8125 29.355469 126.679688 29.171875 C 129.832031 28.503906 131.136719 26.707031 131.257812 24.542969 C 131.390625 22.234375 130.898438 20.652344 130.140625 19.570312 C 128.988281 17.925781 127.207031 17.429688 125.949219 17.347656 Z M 125.917969 17.859375 C 127.058594 17.929688 128.675781 18.371094 129.71875 19.863281 C 130.429688 20.871094 130.867188 22.355469 130.746094 24.515625 C 130.636719 26.472656 129.425781 28.066406 126.574219 28.671875 C 125.785156 28.835938 124.617188 28.6875 123.503906 28.199219 C 121.824219 27.460938 120.257812 25.945312 120.261719 23.5 C 120.265625 21.53125 120.898438 20.210938 121.773438 19.351562 C 123.082031 18.0625 124.914062 17.796875 125.917969 17.859375 Z M 125.917969 17.859375 " fill-opacity="1" fill-rule="evenodd"/></g><path fill="#dce1de" d="M 126.410156 50.238281 C 125.316406 50.167969 123.3125 50.46875 121.878906 51.878906 C 120.925781 52.816406 120.21875 54.246094 120.214844 56.390625 C 120.207031 59.074219 121.917969 60.746094 123.757812 61.558594 C 124.988281 62.097656 126.273438 62.246094 127.140625 62.0625 C 130.296875 61.394531 131.601562 59.597656 131.722656 57.433594 C 131.851562 55.125 131.359375 53.539062 130.601562 52.460938 C 129.449219 50.816406 127.671875 50.320312 126.410156 50.238281 Z M 126.378906 50.75 C 127.523438 50.820312 129.140625 51.261719 130.183594 52.753906 C 130.890625 53.761719 131.332031 55.246094 131.210938 57.40625 C 131.101562 59.363281 129.890625 60.957031 127.035156 61.5625 C 126.246094 61.726562 125.082031 61.578125 123.964844 61.089844 C 122.289062 60.351562 120.71875 58.835938 120.726562 56.390625 C 120.730469 54.421875 121.363281 53.101562 122.238281 52.242188 C 123.546875 50.953125 125.378906 50.6875 126.378906 50.75 Z M 126.378906 50.75 " fill-opacity="1" fill-rule="evenodd"/><path fill="#dce1de" d="M 125.835938 18.421875 C 124.964844 18.363281 123.367188 18.609375 122.222656 19.773438 C 121.46875 20.546875 120.90625 21.71875 120.902344 23.484375 C 120.894531 25.695312 122.257812 27.074219 123.71875 27.742188 C 124.703125 28.1875 125.730469 28.308594 126.421875 28.15625 C 128.933594 27.605469 129.96875 26.125 130.066406 24.335938 C 130.195312 21.960938 129.550781 20.515625 128.679688 19.652344 C 127.796875 18.769531 126.675781 18.476562 125.835938 18.421875 Z M 125.804688 18.929688 C 126.542969 18.980469 127.539062 19.234375 128.316406 20.011719 C 129.113281 20.804688 129.671875 22.132812 129.554688 24.308594 C 129.46875 25.886719 128.527344 27.171875 126.3125 27.65625 C 125.699219 27.792969 124.796875 27.667969 123.933594 27.277344 C 122.628906 26.683594 121.410156 25.457031 121.414062 23.484375 C 121.417969 21.894531 121.90625 20.828125 122.589844 20.132812 C 123.605469 19.097656 125.027344 18.878906 125.804688 18.929688 Z M 125.804688 18.929688 " fill-opacity="1" fill-rule="evenodd"/><path fill="#dce1de" d="M 126.300781 51.3125 C 125.425781 51.253906 123.828125 51.5 122.6875 52.664062 C 121.929688 53.4375 121.367188 54.609375 121.363281 56.375 C 121.359375 58.585938 122.71875 59.964844 124.183594 60.632812 C 125.164062 61.078125 126.191406 61.199219 126.882812 61.046875 C 129.394531 60.496094 130.433594 59.015625 130.53125 57.226562 C 130.660156 54.851562 130.011719 53.410156 129.144531 52.542969 C 128.261719 51.660156 127.136719 51.367188 126.300781 51.3125 Z M 126.265625 51.820312 C 127.007812 51.871094 128 52.125 128.78125 52.902344 C 129.574219 53.695312 130.136719 55.023438 130.019531 57.199219 C 129.933594 58.777344 128.992188 60.0625 126.773438 60.546875 C 126.164062 60.683594 125.261719 60.558594 124.394531 60.167969 C 123.089844 59.574219 121.871094 58.347656 121.875 56.375 C 121.878906 54.785156 122.371094 53.71875 123.054688 53.023438 C 124.066406 51.988281 125.492188 51.769531 126.265625 51.820312 Z M 126.265625 51.820312 " fill-opacity="1" fill-rule="evenodd"/><path fill="#dce1de" d="M 130.191406 52.492188 C 130.003906 52.199219 129.789062 51.917969 129.546875 51.636719 C 129.480469 51.5625 129.378906 51.410156 129.28125 51.300781 C 129.210938 51.226562 129.136719 51.167969 129.074219 51.136719 C 128.929688 51.0625 128.824219 51.097656 128.757812 51.128906 C 128.710938 51.152344 128.667969 51.1875 128.636719 51.234375 C 127.574219 50.679688 126.09375 50.492188 124.972656 50.679688 C 124.328125 50.785156 123.304688 50.910156 122.746094 51.246094 C 121.683594 51.882812 120.8125 53.054688 120.652344 54.316406 C 120.640625 54.433594 120.628906 54.546875 120.625 54.667969 C 120.59375 54.816406 120.578125 54.980469 120.578125 54.980469 C 120.570312 55.050781 120.589844 55.121094 120.625 55.179688 C 120.632812 55.472656 120.652344 55.765625 120.652344 56.042969 C 120.652344 56.535156 120.492188 57.039062 120.578125 57.550781 C 120.730469 58.445312 121.300781 59.15625 121.824219 59.851562 C 122.085938 60.199219 122.238281 60.554688 122.648438 60.789062 C 123.226562 61.117188 123.875 61.21875 124.492188 61.375 C 124.621094 61.40625 124.738281 61.472656 124.855469 61.535156 C 125.023438 61.621094 125.191406 61.703125 125.375 61.730469 C 126.492188 61.917969 127.972656 61.949219 128.980469 61.28125 C 131.535156 59.582031 132.390625 55.824219 130.789062 53.164062 C 130.632812 52.90625 130.425781 52.6875 130.191406 52.492188 Z M 130.207031 58.351562 C 130.195312 58.34375 130.183594 58.335938 130.175781 58.324219 C 130.148438 58.296875 130.070312 58.214844 130.082031 58.0625 C 130.089844 57.980469 130.183594 57.625 130.1875 57.585938 C 130.25 57.09375 130.257812 56.515625 130.210938 56.019531 C 130.078125 54.554688 129.773438 53.15625 128.519531 52.214844 C 127.964844 51.800781 127.296875 51.570312 126.589844 51.496094 C 125.820312 51.417969 125.039062 51.5625 124.179688 51.902344 C 123.765625 52.070312 123.324219 52.183594 122.972656 52.460938 C 122.796875 52.601562 122.671875 52.816406 122.558594 53.039062 C 122.425781 53.304688 122.316406 53.585938 122.199219 53.816406 C 121.992188 54.230469 121.710938 54.699219 121.59375 55.160156 C 121.578125 55.230469 121.5625 55.296875 121.550781 55.371094 C 121.550781 55.46875 121.554688 55.566406 121.554688 55.664062 C 121.554688 55.71875 121.539062 55.769531 121.515625 55.8125 C 121.5 56.480469 121.632812 57.246094 121.75 57.816406 C 121.773438 57.945312 121.839844 58.0625 121.902344 58.175781 C 121.992188 58.332031 122.085938 58.492188 122.140625 58.660156 C 122.246094 58.972656 122.53125 59.488281 122.828125 59.679688 C 123.203125 59.933594 123.566406 60.25 124.003906 60.46875 C 124.308594 60.621094 124.695312 60.613281 125.023438 60.695312 C 125.867188 60.90625 126.835938 61.054688 127.675781 60.777344 C 128.359375 60.546875 129.019531 59.816406 129.519531 59.316406 C 129.804688 59.03125 130.035156 58.707031 130.207031 58.351562 Z M 130.207031 58.351562 " fill-opacity="1" fill-rule="evenodd"/><path fill="#dce1de" d="M 129.679688 19.609375 C 129.492188 19.3125 129.277344 19.035156 129.035156 18.753906 C 128.96875 18.675781 128.867188 18.523438 128.769531 18.417969 C 128.699219 18.339844 128.625 18.28125 128.5625 18.25 C 128.417969 18.179688 128.3125 18.210938 128.246094 18.246094 C 128.199219 18.269531 128.15625 18.300781 128.125 18.347656 C 127.0625 17.796875 125.582031 17.609375 124.460938 17.792969 C 123.816406 17.902344 122.792969 18.027344 122.234375 18.363281 C 121.171875 19 120.300781 20.167969 120.140625 21.433594 C 120.128906 21.546875 120.117188 21.664062 120.113281 21.78125 C 120.082031 21.933594 120.066406 22.09375 120.066406 22.09375 C 120.058594 22.167969 120.078125 22.238281 120.113281 22.296875 C 120.121094 22.589844 120.140625 22.878906 120.140625 23.15625 C 120.140625 23.652344 119.980469 24.15625 120.066406 24.667969 C 120.21875 25.5625 120.789062 26.269531 121.3125 26.964844 C 121.574219 27.316406 121.726562 27.671875 122.136719 27.90625 C 122.714844 28.234375 123.363281 28.335938 123.980469 28.492188 C 124.109375 28.523438 124.226562 28.589844 124.34375 28.648438 C 124.511719 28.738281 124.679688 28.816406 124.863281 28.847656 C 125.980469 29.03125 127.460938 29.066406 128.46875 28.398438 C 131.023438 26.699219 131.878906 22.941406 130.277344 20.28125 C 130.121094 20.023438 129.914062 19.804688 129.679688 19.609375 Z M 129.695312 25.46875 C 129.683594 25.460938 129.671875 25.449219 129.664062 25.441406 C 129.636719 25.414062 129.558594 25.332031 129.570312 25.175781 C 129.578125 25.097656 129.671875 24.742188 129.675781 24.703125 C 129.738281 24.210938 129.746094 23.632812 129.699219 23.136719 C 129.566406 21.667969 129.261719 20.269531 128.007812 19.332031 C 127.453125 18.917969 126.785156 18.6875 126.078125 18.609375 C 125.308594 18.535156 124.527344 18.675781 123.667969 19.019531 C 123.253906 19.183594 122.8125 19.296875 122.460938 19.578125 C 122.285156 19.71875 122.160156 19.933594 122.046875 20.15625 C 121.914062 20.421875 121.804688 20.703125 121.6875 20.933594 C 121.480469 21.347656 121.199219 21.8125 121.082031 22.277344 C 121.066406 22.34375 121.050781 22.414062 121.039062 22.488281 C 121.039062 22.585938 121.042969 22.683594 121.042969 22.78125 C 121.042969 22.832031 121.027344 22.882812 121.003906 22.929688 C 120.988281 23.597656 121.121094 24.359375 121.238281 24.933594 C 121.261719 25.0625 121.328125 25.175781 121.390625 25.289062 C 121.480469 25.449219 121.574219 25.605469 121.628906 25.777344 C 121.734375 26.085938 122.019531 26.601562 122.3125 26.796875 C 122.691406 27.046875 123.054688 27.367188 123.492188 27.582031 C 123.796875 27.734375 124.183594 27.730469 124.511719 27.8125 C 125.355469 28.019531 126.324219 28.171875 127.164062 27.894531 C 127.847656 27.664062 128.507812 26.933594 129.007812 26.433594 C 129.292969 26.148438 129.523438 25.820312 129.695312 25.46875 Z M 129.695312 25.46875 " fill-opacity="1" fill-rule="evenodd"/><path fill="#dce1de" d="M 143 15.351562 C 142.929688 15.402344 142.839844 15.519531 142.785156 15.722656 C 142.703125 16.019531 142.640625 16.5625 142.597656 17.277344 C 142.414062 20.445312 142.609375 27.078125 142.972656 30.003906 C 143.070312 30.792969 143.199219 31.332031 143.320312 31.5 C 143.351562 31.546875 143.40625 31.601562 143.492188 31.648438 C 143.601562 31.707031 143.785156 31.769531 144.027344 31.824219 C 145.246094 32.09375 148.125 32.246094 150.027344 32.109375 C 150.773438 32.058594 151.371094 31.957031 151.6875 31.8125 C 151.910156 31.710938 152.023438 31.566406 152.050781 31.433594 C 152.109375 31.167969 152.179688 28.566406 151.90625 25.949219 C 151.722656 24.195312 151.382812 22.433594 150.792969 21.359375 C 149.761719 19.480469 146.988281 16.929688 145.054688 15.8125 C 144.535156 15.515625 144.070312 15.316406 143.714844 15.253906 C 143.410156 15.195312 143.167969 15.238281 143 15.351562 Z M 151.554688 31.300781 C 151.527344 31.316406 151.433594 31.367188 151.355469 31.394531 C 151.050781 31.496094 150.566406 31.5625 149.992188 31.601562 C 148.363281 31.714844 146.003906 31.617188 144.644531 31.414062 C 144.308594 31.367188 144.039062 31.308594 143.855469 31.25 C 143.804688 31.230469 143.75 31.203125 143.730469 31.195312 C 143.703125 31.144531 143.679688 31.058594 143.648438 30.949219 C 143.589844 30.707031 143.535156 30.363281 143.480469 29.941406 C 143.121094 27.035156 142.925781 20.453125 143.109375 17.308594 C 143.140625 16.730469 143.1875 16.273438 143.25 15.980469 C 143.265625 15.890625 143.300781 15.792969 143.3125 15.757812 C 143.390625 15.722656 143.496094 15.730469 143.625 15.753906 C 143.9375 15.8125 144.339844 15.992188 144.796875 16.257812 C 146.664062 17.332031 149.351562 19.789062 150.34375 21.601562 C 150.90625 22.632812 151.222656 24.324219 151.398438 26.003906 C 151.65625 28.472656 151.609375 30.929688 151.554688 31.300781 Z M 151.554688 31.300781 " fill-opacity="1" fill-rule="evenodd"/><path fill="#dce1de" d="M 151.800781 35.964844 C 151.679688 35.808594 151.394531 35.664062 150.972656 35.570312 C 150.164062 35.394531 148.800781 35.351562 147.460938 35.378906 C 145.933594 35.414062 144.4375 35.542969 143.828125 35.679688 C 143.695312 35.707031 143.601562 35.738281 143.542969 35.769531 C 143.480469 35.800781 143.441406 35.835938 143.414062 35.863281 C 143.351562 35.941406 143.285156 36.066406 143.230469 36.242188 C 143.132812 36.558594 143.050781 37.066406 142.996094 37.699219 C 142.816406 39.734375 142.863281 43.105469 143.054688 45.46875 C 143.136719 46.496094 143.246094 47.332031 143.375 47.796875 C 143.449219 48.070312 143.554688 48.238281 143.636719 48.300781 C 143.789062 48.414062 144.082031 48.519531 144.488281 48.597656 C 145.320312 48.753906 146.652344 48.820312 147.980469 48.8125 C 149.304688 48.800781 150.625 48.710938 151.429688 48.554688 C 151.828125 48.476562 152.109375 48.375 152.242188 48.269531 C 152.332031 48.199219 152.433594 48.027344 152.5 47.753906 C 152.613281 47.285156 152.679688 46.457031 152.703125 45.441406 C 152.757812 43.121094 152.589844 39.820312 152.296875 37.792969 C 152.160156 36.871094 151.980469 36.199219 151.800781 35.964844 Z M 151.917969 47.875 C 151.816406 47.949219 151.609375 48 151.332031 48.054688 C 150.550781 48.207031 149.265625 48.292969 147.976562 48.300781 C 146.6875 48.3125 145.390625 48.246094 144.582031 48.09375 C 144.292969 48.039062 144.074219 47.984375 143.960938 47.902344 C 143.949219 47.882812 143.898438 47.765625 143.867188 47.664062 C 143.746094 47.21875 143.644531 46.410156 143.5625 45.425781 C 143.375 43.089844 143.328125 39.757812 143.507812 37.742188 C 143.550781 37.238281 143.609375 36.816406 143.683594 36.519531 C 143.71875 36.390625 143.746094 36.285156 143.789062 36.222656 C 143.84375 36.207031 144.019531 36.160156 144.1875 36.132812 C 144.886719 36.019531 146.167969 35.917969 147.472656 35.890625 C 148.765625 35.863281 150.082031 35.902344 150.863281 36.070312 C 151.015625 36.101562 151.144531 36.140625 151.25 36.183594 C 151.3125 36.214844 151.367188 36.238281 151.394531 36.273438 C 151.449219 36.34375 151.496094 36.472656 151.542969 36.640625 C 151.632812 36.945312 151.714844 37.363281 151.789062 37.867188 C 152.082031 39.871094 152.242188 43.136719 152.191406 45.429688 C 152.171875 46.265625 152.125 46.96875 152.042969 47.433594 C 152.019531 47.574219 151.992188 47.691406 151.960938 47.78125 C 151.945312 47.820312 151.921875 47.863281 151.917969 47.875 Z M 151.917969 47.875 " fill-opacity="1" fill-rule="evenodd"/><path fill="#dce1de" d="M 151.863281 51.605469 C 151.808594 51.527344 151.6875 51.4375 151.492188 51.382812 C 151.203125 51.296875 150.6875 51.242188 150.0625 51.21875 C 148.648438 51.171875 146.632812 51.285156 145.355469 51.5 C 144.757812 51.597656 144.308594 51.730469 144.121094 51.867188 C 144.003906 51.949219 143.890625 52.117188 143.804688 52.367188 C 143.648438 52.808594 143.546875 53.5625 143.496094 54.46875 C 143.382812 56.527344 143.515625 59.386719 143.757812 61.070312 C 143.832031 61.59375 143.921875 62.007812 144.011719 62.253906 C 144.066406 62.402344 144.128906 62.503906 144.183594 62.5625 C 144.257812 62.636719 144.378906 62.699219 144.554688 62.738281 C 144.832031 62.796875 145.277344 62.792969 145.820312 62.722656 C 146.847656 62.589844 148.226562 62.226562 149.351562 61.679688 C 150.132812 61.304688 150.789062 60.835938 151.152344 60.3125 C 151.898438 59.21875 152.269531 56.679688 152.289062 54.609375 C 152.296875 53.785156 152.25 53.035156 152.152344 52.488281 C 152.082031 52.082031 151.980469 51.773438 151.863281 51.605469 Z M 151.453125 51.914062 C 151.539062 52.046875 151.597656 52.277344 151.648438 52.574219 C 151.738281 53.101562 151.78125 53.816406 151.777344 54.605469 C 151.757812 56.570312 151.4375 58.988281 150.726562 60.023438 C 150.410156 60.488281 149.816406 60.886719 149.128906 61.222656 C 148.054688 61.742188 146.738281 62.089844 145.753906 62.214844 C 145.347656 62.269531 145 62.285156 144.757812 62.253906 C 144.691406 62.246094 144.636719 62.234375 144.589844 62.21875 C 144.574219 62.214844 144.558594 62.210938 144.550781 62.203125 C 144.515625 62.167969 144.492188 62.089844 144.460938 61.980469 C 144.390625 61.75 144.324219 61.410156 144.265625 60.996094 C 144.027344 59.339844 143.898438 56.523438 144.007812 54.496094 C 144.050781 53.765625 144.121094 53.140625 144.230469 52.714844 C 144.265625 52.589844 144.300781 52.480469 144.34375 52.394531 C 144.367188 52.34375 144.386719 52.304688 144.417969 52.28125 C 144.574219 52.171875 144.949219 52.085938 145.4375 52.003906 C 146.691406 51.792969 148.660156 51.683594 150.042969 51.730469 C 150.539062 51.746094 150.957031 51.78125 151.234375 51.84375 C 151.324219 51.863281 151.425781 51.902344 151.453125 51.914062 Z M 151.453125 51.914062 " fill-opacity="1" fill-rule="evenodd"/><path fill="#dce1de" d="M 126.171875 22.949219 C 126.136719 22.894531 126.09375 22.84375 126.039062 22.796875 C 125.890625 22.667969 125.660156 22.5625 125.472656 22.542969 C 125.347656 22.53125 125.238281 22.550781 125.15625 22.589844 C 124.9375 22.699219 124.824219 22.855469 124.773438 23.019531 C 124.699219 23.253906 124.773438 23.519531 124.949219 23.722656 C 125.226562 24.046875 125.734375 24.1875 126.113281 23.808594 C 126.421875 23.5 126.359375 23.183594 126.171875 22.949219 Z M 126.171875 22.949219 " fill-opacity="1" fill-rule="evenodd"/><path fill="#dce1de" d="M 126.632812 55.839844 C 126.601562 55.785156 126.558594 55.734375 126.503906 55.6875 C 126.355469 55.558594 126.121094 55.453125 125.9375 55.433594 C 125.8125 55.421875 125.703125 55.441406 125.621094 55.480469 C 125.398438 55.589844 125.285156 55.75 125.234375 55.910156 C 125.164062 56.144531 125.234375 56.410156 125.410156 56.613281 C 125.691406 56.9375 126.195312 57.078125 126.574219 56.699219 C 126.882812 56.390625 126.824219 56.074219 126.632812 55.839844 Z M 126.632812 55.839844 " fill-opacity="1" fill-rule="evenodd"/><path fill="#dce1de" d="M 129.625 22.511719 L 129.601562 22.515625 C 129.15625 22.574219 126.671875 22.816406 125.847656 22.9375 C 125.675781 22.960938 125.558594 23.117188 125.582031 23.289062 C 125.609375 23.460938 125.765625 23.578125 125.9375 23.550781 C 126.761719 23.429688 129.238281 23.191406 129.683594 23.132812 C 129.78125 23.117188 129.835938 23.097656 129.847656 23.089844 C 130.027344 23.003906 130.027344 22.851562 130.019531 22.78125 C 130.011719 22.714844 129.988281 22.558594 129.78125 22.507812 C 129.730469 22.496094 129.675781 22.496094 129.625 22.511719 Z M 129.472656 22.609375 C 129.441406 22.644531 129.417969 22.6875 129.40625 22.738281 C 129.390625 22.789062 129.394531 22.839844 129.40625 22.886719 C 129.378906 22.800781 129.382812 22.703125 129.472656 22.609375 Z M 129.429688 22.953125 C 129.453125 23.003906 129.507812 23.082031 129.632812 23.113281 C 129.542969 23.089844 129.46875 23.03125 129.429688 22.953125 Z M 129.429688 22.953125 " fill-opacity="1" fill-rule="evenodd"/><path fill="#dce1de" d="M 130.085938 55.402344 L 130.0625 55.40625 C 129.621094 55.464844 127.136719 55.707031 126.308594 55.828125 C 126.140625 55.851562 126.019531 56.011719 126.046875 56.179688 C 126.070312 56.351562 126.230469 56.46875 126.398438 56.441406 C 127.226562 56.320312 129.703125 56.082031 130.144531 56.023438 C 130.246094 56.011719 130.300781 55.988281 130.3125 55.980469 C 130.492188 55.894531 130.488281 55.742188 130.484375 55.671875 C 130.476562 55.605469 130.449219 55.449219 130.246094 55.398438 C 130.191406 55.386719 130.136719 55.386719 130.085938 55.402344 Z M 129.933594 55.5 C 129.902344 55.535156 129.878906 55.578125 129.867188 55.628906 C 129.855469 55.679688 129.855469 55.730469 129.867188 55.777344 C 129.84375 55.695312 129.847656 55.59375 129.933594 55.5 Z M 129.894531 55.84375 C 129.917969 55.894531 129.96875 55.972656 130.097656 56.003906 C 130.003906 55.980469 129.933594 55.921875 129.894531 55.84375 Z M 129.894531 55.84375 " fill-opacity="1" fill-rule="evenodd"/><path fill="#dce1de" d="M 125.5625 23.851562 C 125.867188 24.285156 127.304688 26.773438 127.851562 27.320312 C 127.972656 27.441406 128.171875 27.441406 128.292969 27.320312 C 128.414062 27.195312 128.414062 27 128.292969 26.878906 C 127.753906 26.339844 126.34375 23.875 126.0625 23.480469 C 125.933594 23.296875 125.769531 23.292969 125.742188 23.296875 C 125.652344 23.304688 125.578125 23.339844 125.523438 23.40625 C 125.488281 23.445312 125.453125 23.507812 125.449219 23.601562 C 125.445312 23.699219 125.488281 23.792969 125.5625 23.851562 Z M 126.039062 23.75 C 126.058594 23.714844 126.070312 23.675781 126.070312 23.625 C 126.070312 23.667969 126.058594 23.710938 126.039062 23.75 Z M 126.039062 23.75 " fill-opacity="1" fill-rule="evenodd"/><path fill="#dce1de" d="M 126.023438 56.742188 C 126.328125 57.175781 127.765625 59.664062 128.3125 60.210938 C 128.4375 60.332031 128.632812 60.332031 128.753906 60.210938 C 128.878906 60.085938 128.878906 59.890625 128.753906 59.769531 C 128.21875 59.230469 126.808594 56.765625 126.527344 56.371094 C 126.398438 56.1875 126.234375 56.183594 126.203125 56.1875 C 126.113281 56.195312 126.042969 56.230469 125.984375 56.296875 C 125.953125 56.335938 125.914062 56.398438 125.910156 56.492188 C 125.90625 56.589844 125.953125 56.683594 126.023438 56.742188 Z M 126.503906 56.640625 C 126.519531 56.609375 126.53125 56.566406 126.535156 56.515625 C 126.535156 56.558594 126.523438 56.601562 126.503906 56.640625 Z M 126.503906 56.640625 " fill-opacity="1" fill-rule="evenodd"/><path fill="#dce1de" d="M 125.152344 23.496094 C 124.902344 24 123.476562 26.21875 123.058594 27.054688 C 122.980469 27.207031 123.042969 27.394531 123.199219 27.472656 C 123.351562 27.546875 123.539062 27.484375 123.617188 27.332031 C 124.035156 26.496094 125.464844 24.273438 125.714844 23.773438 C 125.789062 23.617188 125.726562 23.429688 125.570312 23.355469 C 125.417969 23.277344 125.230469 23.339844 125.152344 23.496094 Z M 125.152344 23.496094 " fill-opacity="1" fill-rule="evenodd"/><path fill="#dce1de" d="M 125.617188 56.386719 C 125.367188 56.890625 123.941406 59.109375 123.523438 59.945312 C 123.445312 60.097656 123.507812 60.285156 123.660156 60.363281 C 123.816406 60.4375 124.003906 60.375 124.078125 60.222656 C 124.5 59.386719 125.925781 57.164062 126.175781 56.664062 C 126.253906 56.507812 126.1875 56.320312 126.035156 56.246094 C 125.878906 56.167969 125.691406 56.230469 125.617188 56.386719 Z M 125.617188 56.386719 " fill-opacity="1" fill-rule="evenodd"/><path fill="#dce1de" d="M 125.375 23.046875 L 125.296875 23.042969 C 124.730469 22.992188 121.835938 22.726562 121.707031 22.683594 C 121.628906 22.660156 121.425781 22.644531 121.371094 22.644531 L 121.359375 22.644531 L 121.371094 22.644531 C 121.449219 22.648438 121.484375 22.671875 121.492188 22.675781 C 121.457031 22.660156 121.414062 22.644531 121.371094 22.644531 L 121.351562 22.644531 C 121.304688 22.644531 121.199219 22.757812 121.140625 22.890625 L 121.039062 22.953125 L 121.105469 23 C 121.078125 23.136719 121.121094 23.261719 121.347656 23.265625 C 121.367188 23.265625 121.515625 23.277344 121.515625 23.277344 C 121.515625 23.277344 121.511719 23.277344 121.507812 23.273438 C 121.644531 23.320312 124.65625 23.609375 125.242188 23.664062 C 125.3125 23.667969 125.359375 23.671875 125.363281 23.671875 C 125.625 23.671875 125.667969 23.441406 125.671875 23.417969 C 125.683594 23.34375 125.675781 23.265625 125.621094 23.183594 C 125.605469 23.160156 125.566406 23.097656 125.460938 23.0625 C 125.433594 23.054688 125.402344 23.050781 125.375 23.046875 Z M 121.460938 23.246094 C 121.429688 23.257812 121.402344 23.261719 121.367188 23.265625 C 121.425781 23.261719 121.453125 23.25 121.460938 23.246094 Z M 125.238281 23.644531 C 125.214844 23.632812 125.195312 23.621094 125.175781 23.605469 C 125.1875 23.617188 125.207031 23.632812 125.238281 23.644531 Z M 125.25 23.648438 L 125.238281 23.644531 L 125.246094 23.648438 Z M 125.25 23.648438 " fill-opacity="1" fill-rule="evenodd"/><path fill="#dce1de" d="M 125.839844 55.9375 L 125.757812 55.933594 C 125.195312 55.882812 122.296875 55.617188 122.167969 55.574219 C 122.089844 55.550781 121.886719 55.539062 121.835938 55.535156 L 121.824219 55.535156 L 121.835938 55.535156 C 121.910156 55.539062 121.949219 55.5625 121.957031 55.566406 C 121.917969 55.550781 121.878906 55.539062 121.835938 55.535156 L 121.8125 55.535156 C 121.765625 55.535156 121.664062 55.648438 121.605469 55.78125 L 121.5 55.84375 L 121.566406 55.890625 C 121.539062 56.027344 121.585938 56.152344 121.8125 56.15625 C 121.828125 56.15625 121.980469 56.167969 121.980469 56.167969 C 121.980469 56.167969 121.972656 56.167969 121.972656 56.167969 C 122.105469 56.210938 125.117188 56.5 125.703125 56.554688 C 125.777344 56.558594 125.820312 56.5625 125.828125 56.5625 C 126.085938 56.5625 126.128906 56.332031 126.132812 56.308594 C 126.148438 56.234375 126.140625 56.15625 126.085938 56.078125 C 126.070312 56.050781 126.027344 55.988281 125.921875 55.953125 C 125.894531 55.945312 125.867188 55.941406 125.839844 55.9375 Z M 121.921875 56.136719 C 121.894531 56.148438 121.863281 56.152344 121.832031 56.15625 C 121.886719 56.152344 121.917969 56.140625 121.921875 56.136719 Z M 125.699219 56.535156 C 125.675781 56.523438 125.65625 56.511719 125.636719 56.496094 C 125.652344 56.507812 125.671875 56.523438 125.699219 56.535156 Z M 125.714844 56.539062 L 125.703125 56.535156 L 125.710938 56.539062 Z M 125.714844 56.539062 " fill-opacity="1" fill-rule="evenodd"/><path fill="#dce1de" d="M 127.035156 19.003906 L 125.554688 22.683594 C 125.492188 22.84375 125.570312 23.027344 125.730469 23.089844 C 125.890625 23.152344 126.074219 23.074219 126.136719 22.917969 L 127.613281 19.234375 C 127.675781 19.074219 127.597656 18.894531 127.4375 18.828125 C 127.28125 18.765625 127.097656 18.84375 127.035156 19.003906 Z M 127.035156 19.003906 " fill-opacity="1" fill-rule="evenodd"/><path fill="#dce1de" d="M 127.496094 51.894531 L 126.019531 55.574219 C 125.957031 55.734375 126.035156 55.917969 126.195312 55.980469 C 126.355469 56.042969 126.535156 55.96875 126.597656 55.808594 L 128.078125 52.125 C 128.140625 51.964844 128.0625 51.785156 127.902344 51.71875 C 127.742188 51.65625 127.558594 51.734375 127.496094 51.894531 Z M 127.496094 51.894531 " fill-opacity="1" fill-rule="evenodd"/><path fill="#dce1de" d="M 122.382812 20.121094 C 122.382812 20.121094 124.65625 22.449219 125.332031 23.125 C 125.453125 23.246094 125.652344 23.246094 125.773438 23.125 C 125.894531 23 125.894531 22.804688 125.773438 22.683594 C 125.097656 22.011719 122.828125 19.6875 122.828125 19.6875 C 122.707031 19.5625 122.511719 19.5625 122.386719 19.679688 C 122.265625 19.800781 122.261719 20 122.382812 20.121094 Z M 122.382812 20.121094 " fill-opacity="1" fill-rule="evenodd"/><path fill="#dce1de" d="M 122.84375 53.011719 C 122.84375 53.011719 125.121094 55.339844 125.792969 56.015625 C 125.914062 56.136719 126.113281 56.136719 126.234375 56.015625 C 126.355469 55.894531 126.355469 55.695312 126.234375 55.574219 C 125.5625 54.902344 123.292969 52.578125 123.292969 52.578125 C 123.171875 52.457031 122.972656 52.453125 122.851562 52.574219 C 122.726562 52.691406 122.722656 52.890625 122.84375 53.011719 Z M 122.84375 53.011719 " fill-opacity="1" fill-rule="evenodd"/><g clip-path="url(#id3)"><path fill="#dce1de" d="M 133.867188 8.4375 C 133.683594 8.117188 133.421875 7.953125 133.121094 7.871094 C 132.984375 7.8125 132.835938 7.765625 132.683594 7.730469 C 131.898438 7.554688 130.882812 7.722656 130.246094 7.796875 C 129.757812 7.847656 129.179688 7.871094 128.722656 8.097656 C 128.574219 8.171875 127.839844 8.570312 127.550781 8.933594 C 127.316406 9.226562 127.304688 9.515625 127.527344 9.738281 C 127.882812 10.089844 128.203125 10.371094 128.671875 10.65625 C 129.265625 11.011719 130.320312 11.09375 130.988281 10.996094 C 132.550781 10.773438 134.023438 10.441406 134.328125 8.765625 C 134.359375 8.597656 134.246094 8.433594 134.074219 8.402344 C 134 8.390625 133.929688 8.40625 133.867188 8.4375 Z M 133.867188 8.4375 " fill-opacity="1" fill-rule="evenodd"/></g><g clip-path="url(#id4)"><path fill="#dce1de" d="M 158.472656 31.253906 C 158.492188 31.359375 158.527344 31.539062 158.542969 31.707031 C 158.710938 33.203125 158.820312 36.679688 158.882812 37.199219 C 159.371094 41.085938 159.59375 44.863281 159.59375 48.847656 C 159.59375 49.164062 159.550781 50.84375 159.449219 51.898438 C 159.421875 52.160156 159.371094 52.433594 159.347656 52.554688 C 159.238281 52.574219 159 52.609375 158.796875 52.621094 C 157.871094 52.679688 156.425781 52.640625 156.183594 52.640625 C 156.011719 52.640625 155.871094 52.78125 155.871094 52.953125 C 155.871094 53.125 156.011719 53.265625 156.183594 53.265625 C 156.46875 53.265625 158.351562 53.3125 159.214844 53.210938 C 159.398438 53.191406 159.539062 53.160156 159.628906 53.125 C 159.714844 53.09375 159.773438 53.054688 159.808594 53.015625 C 159.847656 52.980469 159.890625 52.921875 159.921875 52.832031 C 159.957031 52.738281 159.992188 52.582031 160.019531 52.386719 C 160.160156 51.40625 160.21875 49.21875 160.21875 48.847656 C 160.21875 44.839844 159.992188 41.035156 159.503906 37.121094 C 159.4375 36.605469 159.332031 33.132812 159.164062 31.640625 C 159.132812 31.355469 159.097656 31.136719 159.0625 31.011719 C 159.027344 30.890625 158.976562 30.816406 158.9375 30.78125 C 158.898438 30.738281 158.835938 30.699219 158.746094 30.667969 C 158.65625 30.640625 158.511719 30.621094 158.332031 30.617188 C 157.492188 30.597656 155.664062 30.867188 155.296875 30.960938 C 155.128906 31.003906 155.027344 31.171875 155.070312 31.339844 C 155.113281 31.503906 155.285156 31.605469 155.449219 31.566406 C 155.757812 31.488281 157.121094 31.28125 157.992188 31.246094 C 158.164062 31.238281 158.363281 31.246094 158.472656 31.253906 Z M 158.472656 31.253906 " fill-opacity="1" fill-rule="evenodd"/></g><path fill="#dce1de" d="M 125.941406 34.617188 C 126.019531 34.613281 126.226562 34.605469 126.46875 34.597656 C 130.507812 34.449219 153.960938 33.714844 155.300781 33.882812 C 155.46875 33.902344 155.625 33.78125 155.648438 33.613281 C 155.667969 33.441406 155.546875 33.285156 155.378906 33.265625 C 154.035156 33.097656 130.5 33.824219 126.449219 33.972656 C 126.070312 33.988281 125.855469 33.996094 125.832031 34 C 125.769531 34.007812 125.738281 34.027344 125.726562 34.035156 C 125.574219 34.109375 125.558594 34.230469 125.558594 34.304688 C 125.554688 34.386719 125.578125 34.484375 125.6875 34.5625 C 125.691406 34.566406 125.753906 34.621094 125.886719 34.621094 C 125.90625 34.621094 125.925781 34.621094 125.941406 34.617188 Z M 126.0625 34.050781 C 126.023438 34.023438 125.972656 34.003906 125.90625 34 C 125.964844 34.003906 126.015625 34.023438 126.0625 34.050781 Z M 126.0625 34.050781 " fill-opacity="1" fill-rule="evenodd"/><g fill="#dce1de" fill-opacity="1"><g transform="translate(21.655239, 60.014997)"><g><path d="M 17.859375 1.171875 C 17.171875 1.078125 16.390625 1.03125 15.515625 1.03125 L 13.75 1.0625 C 13.40625 1.09375 12.914062 1.109375 12.28125 1.109375 C 12.25 0.929688 12.234375 0.671875 12.234375 0.328125 L 11.546875 0.375 C 11.460938 -0.945312 11.421875 -3.140625 11.421875 -6.203125 L 11.359375 -10.734375 C 11.285156 -10.535156 11.144531 -10.140625 10.9375 -9.546875 C 10.726562 -8.960938 10.523438 -8.53125 10.328125 -8.25 C 10.128906 -7.96875 9.945312 -7.828125 9.78125 -7.828125 C 9.582031 -7.828125 9.335938 -8.070312 9.046875 -8.5625 C 8.671875 -8.582031 8.226562 -9.207031 7.71875 -10.4375 C 7.695312 -9.851562 7.6875 -8.992188 7.6875 -7.859375 C 7.6875 -5.703125 7.804688 -2.765625 8.046875 0.953125 C 7.085938 1.097656 6.070312 1.171875 5 1.171875 L 3.828125 1.21875 C 3.234375 1.21875 2.769531 1.160156 2.4375 1.046875 C 2.113281 0.929688 1.953125 0.707031 1.953125 0.375 L 1.765625 0.375 C 1.566406 0.375 1.394531 0.222656 1.25 -0.078125 C 1.195312 -0.222656 1.164062 -0.800781 1.15625 -1.8125 C 1.144531 -2.832031 1.140625 -4.25 1.140625 -6.0625 C 1.140625 -12.695312 1.175781 -19.164062 1.25 -25.46875 C 1.90625 -25.6875 2.648438 -25.796875 3.484375 -25.796875 C 3.953125 -25.796875 4.3125 -25.785156 4.5625 -25.765625 L 5.734375 -25.71875 C 6.171875 -25.71875 6.523438 -25.734375 6.796875 -25.765625 L 7.3125 -24.984375 L 7.53125 -25.03125 C 8 -24.488281 8.515625 -23.382812 9.078125 -21.71875 L 9.40625 -20.796875 C 9.582031 -21.609375 9.859375 -22.535156 10.234375 -23.578125 C 10.609375 -24.617188 10.96875 -25.382812 11.3125 -25.875 C 11.65625 -25.820312 11.953125 -25.796875 12.203125 -25.796875 C 12.640625 -25.796875 13.445312 -25.820312 14.625 -25.875 C 15.582031 -25.945312 16.460938 -25.984375 17.265625 -25.984375 L 17.234375 -25.25 L 18 -25.25 C 17.976562 -24.632812 17.96875 -23.582031 17.96875 -22.09375 L 18 -18.234375 C 18.03125 -17.367188 18.046875 -16.066406 18.046875 -14.328125 L 18.046875 -12.96875 C 18.046875 -12.0625 18.019531 -11.378906 17.96875 -10.921875 L 17.96875 -10.953125 Z M 16.875 -11.6875 C 16.914062 -12.175781 16.9375 -12.898438 16.9375 -13.859375 L 16.9375 -15.28125 C 16.9375 -16.945312 16.925781 -18.195312 16.90625 -19.03125 L 16.875 -22.828125 C 16.875 -24.078125 16.882812 -25.003906 16.90625 -25.609375 C 16.144531 -25.609375 15.285156 -25.570312 14.328125 -25.5 L 12.046875 -25.4375 C 11.710938 -25.4375 11.519531 -25.445312 11.46875 -25.46875 C 11.25 -25.175781 11.003906 -24.644531 10.734375 -23.875 C 10.460938 -23.101562 10.21875 -22.347656 10 -21.609375 C 9.851562 -21.117188 9.710938 -20.675781 9.578125 -20.28125 C 9.441406 -19.894531 9.347656 -19.710938 9.296875 -19.734375 C 9.148438 -19.734375 8.976562 -19.953125 8.78125 -20.390625 C 8.582031 -20.835938 8.289062 -21.5625 7.90625 -22.5625 C 7.6875 -23.175781 7.460938 -23.757812 7.234375 -24.3125 C 7.015625 -24.863281 6.820312 -25.222656 6.65625 -25.390625 L 6.609375 -25.390625 C 6.335938 -25.367188 5.910156 -25.359375 5.328125 -25.359375 L 4 -25.390625 L 3.421875 -25.390625 C 2.609375 -25.390625 2.003906 -25.328125 1.609375 -25.203125 C 1.535156 -18.929688 1.5 -12.550781 1.5 -6.0625 C 1.5 -3.46875 1.515625 -1.804688 1.546875 -1.078125 C 1.585938 -0.359375 1.660156 0 1.765625 0 L 4.515625 0.03125 C 5.453125 0.03125 6.25 -0.015625 6.90625 -0.109375 C 6.6875 -3.460938 6.578125 -6.289062 6.578125 -8.59375 C 6.578125 -10.4375 6.648438 -12.25 6.796875 -14.03125 L 6.90625 -13.671875 L 7.203125 -12.90625 C 7.597656 -11.769531 7.953125 -10.820312 8.265625 -10.0625 C 8.585938 -9.3125 8.859375 -8.9375 9.078125 -8.9375 C 9.171875 -8.9375 9.335938 -9.226562 9.578125 -9.8125 C 9.828125 -10.394531 10.078125 -11.03125 10.328125 -11.71875 C 10.867188 -13.144531 11.222656 -14.003906 11.390625 -14.296875 C 11.609375 -12.304688 11.742188 -9.195312 11.796875 -4.96875 C 11.796875 -4.394531 11.804688 -3.585938 11.828125 -2.546875 C 11.859375 -1.515625 11.882812 -0.664062 11.90625 0 L 14.21875 -0.03125 L 15.546875 -0.03125 C 15.816406 -0.03125 16.222656 -0.0078125 16.765625 0.03125 Z M 16.875 -11.6875 "/></g></g></g><g fill="#dce1de" fill-opacity="1"><g transform="translate(40.060902, 60.014997)"><g><path d="M 6.65625 -26.015625 L 7.390625 -26.015625 L 7.421875 -24.03125 C 7.472656 -22.613281 7.5 -21.550781 7.5 -20.84375 C 7.226562 -20.425781 6.640625 -20.21875 5.734375 -20.21875 C 5.515625 -20.21875 5.035156 -20.238281 4.296875 -20.28125 L 4.34375 -20.28125 L 3.09375 -20.328125 C 2.601562 -20.328125 2.171875 -20.3125 1.796875 -20.28125 L 1.796875 -21.0625 L 1.0625 -21.015625 C 1.0625 -21.484375 1.039062 -22.179688 1 -23.109375 C 0.945312 -24.242188 0.921875 -25.238281 0.921875 -26.09375 L 0.921875 -26.859375 L 6.65625 -26.75 Z M 1.28125 -25.90625 C 1.28125 -25.144531 1.304688 -24.25 1.359375 -23.21875 C 1.410156 -22.382812 1.4375 -21.785156 1.4375 -21.421875 L 2.0625 -21.421875 C 2.425781 -21.421875 2.953125 -21.398438 3.640625 -21.359375 L 4.96875 -21.3125 C 5.769531 -21.3125 6.242188 -21.4375 6.390625 -21.6875 C 6.390625 -22.46875 6.367188 -23.546875 6.328125 -24.921875 C 6.296875 -25.359375 6.28125 -25.847656 6.28125 -26.390625 L 1.28125 -26.5 Z M 6.796875 -18.046875 L 7.53125 -17.9375 C 7.53125 -16.539062 7.503906 -14.421875 7.453125 -11.578125 C 7.378906 -9.441406 7.34375 -7.257812 7.34375 -5.03125 C 7.34375 -2.851562 7.394531 -0.96875 7.5 0.625 C 7.300781 0.820312 7.03125 0.957031 6.6875 1.03125 C 6.34375 1.101562 5.898438 1.140625 5.359375 1.140625 C 4.648438 1.140625 4.113281 1.128906 3.75 1.109375 L 3.78125 1.109375 L 2.90625 1.0625 C 2.363281 1.0625 1.910156 1.125 1.546875 1.25 C 1.546875 1.082031 1.566406 0.773438 1.609375 0.328125 C 1.242188 0.378906 0.976562 0.441406 0.8125 0.515625 C 0.9375 -1.128906 1 -2.820312 1 -4.5625 C 1 -5.539062 0.972656 -7.007812 0.921875 -8.96875 C 0.867188 -10.925781 0.84375 -12.421875 0.84375 -13.453125 C 0.84375 -15.160156 0.929688 -16.960938 1.109375 -18.859375 C 1.273438 -18.859375 1.394531 -18.867188 1.46875 -18.890625 L 2.0625 -18.96875 C 2.257812 -18.96875 2.628906 -18.945312 3.171875 -18.90625 C 3.722656 -18.875 4.320312 -18.859375 4.96875 -18.859375 L 5.8125 -18.859375 L 6.796875 -18.671875 Z M 4.96875 -18.484375 C 4.15625 -18.484375 3.378906 -18.507812 2.640625 -18.5625 L 1.578125 -18.59375 L 1.4375 -18.59375 L 1.4375 -18.5625 C 1.289062 -17.257812 1.21875 -15.582031 1.21875 -13.53125 C 1.21875 -12.59375 1.238281 -11.117188 1.28125 -9.109375 C 1.332031 -7.097656 1.359375 -5.566406 1.359375 -4.515625 C 1.359375 -2.847656 1.3125 -1.34375 1.21875 0 C 1.257812 -0.0195312 1.453125 -0.03125 1.796875 -0.03125 C 2.316406 -0.03125 2.734375 -0.0195312 3.046875 0 L 4.703125 0.03125 C 5.242188 0.03125 5.640625 0.0195312 5.890625 0 C 6.148438 -0.0195312 6.316406 -0.09375 6.390625 -0.21875 C 6.296875 -1.957031 6.25 -3.929688 6.25 -6.140625 C 6.25 -8.535156 6.285156 -10.910156 6.359375 -13.265625 C 6.410156 -15.566406 6.4375 -17.269531 6.4375 -18.375 L 6.4375 -18.484375 Z M 4.96875 -18.484375 "/></g></g></g><g fill="#dce1de" fill-opacity="1"><g transform="translate(47.665639, 60.014997)"><g><path d="M 7.234375 -17.453125 C 8.441406 -18.191406 9.742188 -18.5625 11.140625 -18.5625 C 11.921875 -18.5625 12.675781 -18.425781 13.40625 -18.15625 C 14.144531 -17.882812 14.695312 -17.46875 15.0625 -16.90625 L 15.515625 -16.578125 C 16.148438 -16.085938 16.46875 -14.03125 16.46875 -10.40625 C 16.46875 -9.445312 16.441406 -8.007812 16.390625 -6.09375 C 16.335938 -4.238281 16.3125 -2.878906 16.3125 -2.015625 C 16.3125 -1.035156 16.335938 -0.03125 16.390625 1 C 15.503906 1.113281 14.472656 1.171875 13.296875 1.171875 L 11.09375 1.171875 C 11.070312 1.003906 11.0625 0.757812 11.0625 0.4375 L 10.359375 0.4375 C 10.285156 -0.320312 10.25 -1.800781 10.25 -4 L 10.25 -5.84375 C 10.25 -7.257812 10.222656 -8.359375 10.171875 -9.140625 C 10.128906 -9.929688 10 -10.597656 9.78125 -11.140625 C 9.582031 -11.210938 9.320312 -11.25 9 -11.25 C 8.269531 -11.25 7.765625 -11.003906 7.484375 -10.515625 C 7.203125 -10.023438 7.0625 -9.082031 7.0625 -7.6875 C 7.0625 -7.019531 7.082031 -6.097656 7.125 -4.921875 C 7.175781 -3.703125 7.203125 -2.804688 7.203125 -2.234375 C 7.203125 -1.179688 7.15625 -0.265625 7.0625 0.515625 L 7.0625 0.921875 C 6.195312 1.140625 5.484375 1.25 4.921875 1.25 C 4.578125 1.25 4.304688 1.238281 4.109375 1.21875 L 3.234375 1.171875 L 2.828125 1.171875 C 2.460938 1.171875 2.109375 1.195312 1.765625 1.25 L 1.765625 0.4375 L 1.03125 0.515625 L 1 -6.4375 C 0.945312 -9.519531 0.921875 -11.859375 0.921875 -13.453125 C 0.921875 -14.742188 0.945312 -16.492188 1 -18.703125 C 1.582031 -18.628906 2.128906 -18.59375 2.640625 -18.59375 C 2.835938 -18.59375 3.160156 -18.628906 3.609375 -18.703125 C 4.066406 -18.773438 4.6875 -18.8125 5.46875 -18.8125 C 6.132812 -18.8125 6.476562 -18.664062 6.5 -18.375 C 6.5 -18.226562 6.613281 -18.097656 6.84375 -17.984375 C 7.082031 -17.878906 7.210938 -17.765625 7.234375 -17.640625 Z M 5.703125 -18.484375 C 5.015625 -18.484375 4.238281 -18.421875 3.375 -18.296875 C 2.988281 -18.253906 2.742188 -18.234375 2.640625 -18.234375 L 2.203125 -18.234375 C 1.890625 -18.234375 1.609375 -18.253906 1.359375 -18.296875 C 1.304688 -17.535156 1.28125 -16.421875 1.28125 -14.953125 L 1.28125 -12.71875 C 1.28125 -11.21875 1.304688 -9.046875 1.359375 -6.203125 L 1.390625 0.109375 C 1.691406 0.0859375 2.085938 0.078125 2.578125 0.078125 L 4.34375 0.109375 C 4.851562 0.109375 5.390625 0.0351562 5.953125 -0.109375 L 5.953125 -0.25 C 6.046875 -1.0625 6.09375 -1.972656 6.09375 -2.984375 C 6.09375 -3.617188 6.070312 -4.546875 6.03125 -5.765625 C 5.976562 -6.992188 5.953125 -7.925781 5.953125 -8.5625 C 5.953125 -10.03125 6.132812 -11.023438 6.5 -11.546875 C 6.875 -12.078125 7.460938 -12.34375 8.265625 -12.34375 C 9.148438 -12.34375 9.71875 -12.078125 9.96875 -11.546875 C 10.226562 -11.023438 10.382812 -10.4375 10.4375 -9.78125 C 10.488281 -9.132812 10.523438 -8.691406 10.546875 -8.453125 C 10.597656 -8.085938 10.625 -7.5 10.625 -6.6875 L 10.625 -1.5 C 10.625 -0.769531 10.644531 -0.242188 10.6875 0.078125 L 12.828125 0.109375 C 13.710938 0.109375 14.53125 0.046875 15.28125 -0.078125 C 15.238281 -1.003906 15.21875 -1.773438 15.21875 -2.390625 C 15.21875 -3.242188 15.238281 -4.628906 15.28125 -6.546875 C 15.332031 -8.554688 15.359375 -10.023438 15.359375 -10.953125 C 15.359375 -12.640625 15.296875 -14.003906 15.171875 -15.046875 C 15.054688 -16.085938 14.835938 -16.753906 14.515625 -17.046875 C 13.679688 -17.804688 12.539062 -18.1875 11.09375 -18.1875 C 10.3125 -18.1875 9.613281 -18.0625 9 -17.8125 C 8.382812 -17.570312 7.804688 -17.296875 7.265625 -16.984375 C 6.734375 -16.679688 6.378906 -16.484375 6.203125 -16.390625 L 6.25 -17.234375 C 6.25 -18.066406 6.066406 -18.484375 5.703125 -18.484375 Z M 5.703125 -18.484375 "/></g></g></g><g fill="#dce1de" fill-opacity="1"><g transform="translate(64.197673, 60.014997)"><g><path d="M 6.65625 -26.015625 L 7.390625 -26.015625 L 7.421875 -24.03125 C 7.472656 -22.613281 7.5 -21.550781 7.5 -20.84375 C 7.226562 -20.425781 6.640625 -20.21875 5.734375 -20.21875 C 5.515625 -20.21875 5.035156 -20.238281 4.296875 -20.28125 L 4.34375 -20.28125 L 3.09375 -20.328125 C 2.601562 -20.328125 2.171875 -20.3125 1.796875 -20.28125 L 1.796875 -21.0625 L 1.0625 -21.015625 C 1.0625 -21.484375 1.039062 -22.179688 1 -23.109375 C 0.945312 -24.242188 0.921875 -25.238281 0.921875 -26.09375 L 0.921875 -26.859375 L 6.65625 -26.75 Z M 1.28125 -25.90625 C 1.28125 -25.144531 1.304688 -24.25 1.359375 -23.21875 C 1.410156 -22.382812 1.4375 -21.785156 1.4375 -21.421875 L 2.0625 -21.421875 C 2.425781 -21.421875 2.953125 -21.398438 3.640625 -21.359375 L 4.96875 -21.3125 C 5.769531 -21.3125 6.242188 -21.4375 6.390625 -21.6875 C 6.390625 -22.46875 6.367188 -23.546875 6.328125 -24.921875 C 6.296875 -25.359375 6.28125 -25.847656 6.28125 -26.390625 L 1.28125 -26.5 Z M 6.796875 -18.046875 L 7.53125 -17.9375 C 7.53125 -16.539062 7.503906 -14.421875 7.453125 -11.578125 C 7.378906 -9.441406 7.34375 -7.257812 7.34375 -5.03125 C 7.34375 -2.851562 7.394531 -0.96875 7.5 0.625 C 7.300781 0.820312 7.03125 0.957031 6.6875 1.03125 C 6.34375 1.101562 5.898438 1.140625 5.359375 1.140625 C 4.648438 1.140625 4.113281 1.128906 3.75 1.109375 L 3.78125 1.109375 L 2.90625 1.0625 C 2.363281 1.0625 1.910156 1.125 1.546875 1.25 C 1.546875 1.082031 1.566406 0.773438 1.609375 0.328125 C 1.242188 0.378906 0.976562 0.441406 0.8125 0.515625 C 0.9375 -1.128906 1 -2.820312 1 -4.5625 C 1 -5.539062 0.972656 -7.007812 0.921875 -8.96875 C 0.867188 -10.925781 0.84375 -12.421875 0.84375 -13.453125 C 0.84375 -15.160156 0.929688 -16.960938 1.109375 -18.859375 C 1.273438 -18.859375 1.394531 -18.867188 1.46875 -18.890625 L 2.0625 -18.96875 C 2.257812 -18.96875 2.628906 -18.945312 3.171875 -18.90625 C 3.722656 -18.875 4.320312 -18.859375 4.96875 -18.859375 L 5.8125 -18.859375 L 6.796875 -18.671875 Z M 4.96875 -18.484375 C 4.15625 -18.484375 3.378906 -18.507812 2.640625 -18.5625 L 1.578125 -18.59375 L 1.4375 -18.59375 L 1.4375 -18.5625 C 1.289062 -17.257812 1.21875 -15.582031 1.21875 -13.53125 C 1.21875 -12.59375 1.238281 -11.117188 1.28125 -9.109375 C 1.332031 -7.097656 1.359375 -5.566406 1.359375 -4.515625 C 1.359375 -2.847656 1.3125 -1.34375 1.21875 0 C 1.257812 -0.0195312 1.453125 -0.03125 1.796875 -0.03125 C 2.316406 -0.03125 2.734375 -0.0195312 3.046875 0 L 4.703125 0.03125 C 5.242188 0.03125 5.640625 0.0195312 5.890625 0 C 6.148438 -0.0195312 6.316406 -0.09375 6.390625 -0.21875 C 6.296875 -1.957031 6.25 -3.929688 6.25 -6.140625 C 6.25 -8.535156 6.285156 -10.910156 6.359375 -13.265625 C 6.410156 -15.566406 6.4375 -17.269531 6.4375 -18.375 L 6.4375 -18.484375 Z M 4.96875 -18.484375 "/></g></g></g><g fill="#dce1de" fill-opacity="1"><g transform="translate(71.802411, 60.014997)"><g><path d="M 6.609375 -17.609375 C 6.710938 -17.117188 6.957031 -15.625 7.34375 -13.125 C 7.664062 -11.039062 7.945312 -9.347656 8.1875 -8.046875 L 8.890625 -11.5 C 9.484375 -14.8125 10.035156 -17.175781 10.546875 -18.59375 C 11.035156 -18.59375 11.722656 -18.617188 12.609375 -18.671875 C 13.484375 -18.722656 14.164062 -18.75 14.65625 -18.75 L 15.171875 -18.75 C 15.585938 -18.75 15.945312 -18.722656 16.25 -18.671875 L 15.984375 -18 C 16.109375 -18 16.441406 -17.976562 16.984375 -17.9375 C 16.335938 -16.238281 15.800781 -14.546875 15.375 -12.859375 C 14.945312 -11.171875 14.460938 -9.015625 13.921875 -6.390625 C 13.828125 -5.972656 13.609375 -4.96875 13.265625 -3.375 C 12.921875 -1.789062 12.554688 -0.296875 12.171875 1.109375 C 11.429688 1.222656 10.445312 1.28125 9.21875 1.28125 L 6.765625 1.25 C 6.242188 1.226562 5.53125 1.21875 4.625 1.21875 L 4.515625 0.484375 L 3.890625 0.484375 C 2.710938 -6.847656 1.378906 -13.296875 -0.109375 -18.859375 C 0.648438 -18.734375 1.265625 -18.671875 1.734375 -18.671875 C 2.296875 -18.671875 2.722656 -18.679688 3.015625 -18.703125 C 3.179688 -18.703125 3.539062 -18.703125 4.09375 -18.703125 C 4.644531 -18.703125 5.128906 -18.675781 5.546875 -18.625 L 5.875 -18.34375 C 5.875 -18.144531 5.898438 -18.019531 5.953125 -17.96875 C 6.003906 -17.914062 6.113281 -17.890625 6.28125 -17.890625 Z M 1.953125 -18.296875 L 1.328125 -18.296875 C 0.929688 -18.296875 0.625 -18.320312 0.40625 -18.375 C 1.78125 -13.351562 3.050781 -7.191406 4.21875 0.109375 C 4.976562 0.109375 5.582031 0.117188 6.03125 0.140625 L 8.421875 0.1875 C 9.546875 0.1875 10.453125 0.132812 11.140625 0.03125 C 11.671875 -1.945312 12.242188 -4.421875 12.859375 -7.390625 C 13.378906 -9.859375 13.847656 -11.921875 14.265625 -13.578125 C 14.679688 -15.234375 15.171875 -16.820312 15.734375 -18.34375 L 14.59375 -18.375 C 14.101562 -18.375 13.441406 -18.347656 12.609375 -18.296875 C 11.816406 -18.253906 11.210938 -18.234375 10.796875 -18.234375 C 10.554688 -17.617188 10.335938 -16.867188 10.140625 -15.984375 C 9.941406 -15.097656 9.753906 -14.21875 9.578125 -13.34375 C 9.410156 -12.476562 9.304688 -11.914062 9.265625 -11.65625 C 8.742188 -8.664062 8.300781 -6.679688 7.9375 -5.703125 C 7.613281 -6.578125 7.320312 -7.703125 7.0625 -9.078125 C 6.8125 -10.453125 6.523438 -12.128906 6.203125 -14.109375 C 6.035156 -15.304688 5.804688 -16.691406 5.515625 -18.265625 C 4.878906 -18.316406 4.398438 -18.34375 4.078125 -18.34375 Z M 1.953125 -18.296875 "/></g></g></g><g fill="#dce1de" fill-opacity="1"><g transform="translate(87.562949, 60.014997)"><g><path d="M 17.234375 -17.609375 C 17.285156 -17.210938 17.3125 -16.90625 17.3125 -16.6875 L 17.3125 -16.3125 C 17.28125 -15.65625 17.265625 -14.703125 17.265625 -13.453125 L 17.3125 -9.328125 C 17.332031 -8.398438 17.34375 -7.019531 17.34375 -5.1875 C 17.34375 -3.738281 17.304688 -2.253906 17.234375 -0.734375 L 17.234375 -0.484375 C 17.234375 0.0351562 17.195312 0.414062 17.125 0.65625 C 17.050781 0.90625 16.832031 1.066406 16.46875 1.140625 L 15.953125 1.140625 C 15.609375 1.140625 15.164062 1.113281 14.625 1.0625 L 13.5625 1.03125 C 13.382812 1.03125 13.125 1.054688 12.78125 1.109375 L 11.984375 1.140625 C 11.585938 1.046875 11.328125 0.800781 11.203125 0.40625 C 10.890625 0.28125 10.695312 0.144531 10.625 0 C 9.34375 0.78125 8.078125 1.171875 6.828125 1.171875 C 5.535156 1.171875 4.390625 0.609375 3.390625 -0.515625 C 2.398438 -1.640625 1.640625 -3.050781 1.109375 -4.75 C 0.585938 -6.457031 0.328125 -8.132812 0.328125 -9.78125 C 0.328125 -11.632812 0.644531 -13.226562 1.28125 -14.5625 C 1.914062 -15.90625 2.789062 -16.914062 3.90625 -17.59375 C 5.03125 -18.28125 6.289062 -18.625 7.6875 -18.625 C 8.363281 -18.625 8.890625 -18.578125 9.265625 -18.484375 C 9.648438 -18.390625 10.003906 -18.144531 10.328125 -17.75 C 10.347656 -17.875 10.367188 -18.070312 10.390625 -18.34375 C 10.421875 -18.613281 10.484375 -18.785156 10.578125 -18.859375 C 10.679688 -18.929688 10.84375 -18.96875 11.0625 -18.96875 C 11.28125 -18.96875 11.476562 -18.945312 11.65625 -18.90625 C 11.84375 -18.875 12.023438 -18.859375 12.203125 -18.859375 L 12.53125 -18.859375 C 13.164062 -18.859375 14.378906 -18.796875 16.171875 -18.671875 L 16.5 -18.34375 L 16.53125 -17.9375 L 16.90625 -17.9375 Z M 12.125 -18.484375 L 11.140625 -18.515625 C 10.890625 -18.515625 10.738281 -18.363281 10.6875 -18.0625 C 10.644531 -17.757812 10.625 -17.328125 10.625 -16.765625 L 10.625 -16.578125 C 10.40625 -17.109375 10.125 -17.5 9.78125 -17.75 C 9.4375 -18 9.054688 -18.144531 8.640625 -18.1875 C 8.222656 -18.238281 7.632812 -18.265625 6.875 -18.265625 C 5.71875 -18.242188 4.664062 -17.859375 3.71875 -17.109375 C 2.78125 -16.359375 2.039062 -15.347656 1.5 -14.078125 C 0.96875 -12.804688 0.703125 -11.375 0.703125 -9.78125 C 0.703125 -8.332031 0.894531 -6.847656 1.28125 -5.328125 C 1.675781 -3.804688 2.285156 -2.523438 3.109375 -1.484375 C 3.929688 -0.441406 4.925781 0.078125 6.09375 0.078125 C 6.925781 0.078125 7.789062 -0.125 8.6875 -0.53125 C 9.582031 -0.9375 10.335938 -1.445312 10.953125 -2.0625 C 10.953125 -1.914062 10.925781 -1.710938 10.875 -1.453125 C 10.820312 -1.191406 10.796875 -0.960938 10.796875 -0.765625 C 10.796875 -0.347656 10.945312 -0.0820312 11.25 0.03125 C 11.445312 0.03125 11.710938 0.0078125 12.046875 -0.03125 L 12.828125 -0.078125 L 14.03125 -0.03125 C 14.570312 0.0078125 14.96875 0.03125 15.21875 0.03125 L 15.65625 0.03125 C 15.851562 -0.0078125 15.984375 -0.109375 16.046875 -0.265625 C 16.109375 -0.429688 16.140625 -0.660156 16.140625 -0.953125 L 16.140625 -1.46875 C 16.234375 -2.914062 16.28125 -4.519531 16.28125 -6.28125 L 16.25 -10.328125 C 16.195312 -12.140625 16.171875 -13.507812 16.171875 -14.4375 C 16.171875 -15.59375 16.179688 -16.460938 16.203125 -17.046875 L 16.203125 -17.421875 C 16.203125 -17.617188 16.179688 -17.910156 16.140625 -18.296875 C 15.453125 -18.347656 14.25 -18.410156 12.53125 -18.484375 Z M 8.859375 -13.34375 C 9.472656 -13.34375 9.90625 -13.285156 10.15625 -13.171875 C 10.414062 -13.066406 10.582031 -12.832031 10.65625 -12.46875 C 10.726562 -12.113281 10.765625 -11.519531 10.765625 -10.6875 L 10.765625 -8.671875 C 10.765625 -7.785156 10.722656 -7.097656 10.640625 -6.609375 C 10.554688 -6.117188 10.347656 -5.738281 10.015625 -5.46875 C 9.679688 -5.207031 9.171875 -5.078125 8.484375 -5.078125 C 7.484375 -5.078125 6.6875 -5.453125 6.09375 -6.203125 C 5.507812 -6.960938 5.21875 -7.910156 5.21875 -9.046875 C 5.21875 -9.847656 5.289062 -10.492188 5.4375 -10.984375 C 5.582031 -11.648438 5.945312 -12.207031 6.53125 -12.65625 C 7.125 -13.113281 7.898438 -13.34375 8.859375 -13.34375 Z M 6.546875 -10.140625 C 6.398438 -9.648438 6.328125 -9.039062 6.328125 -8.3125 C 6.328125 -6.394531 7.046875 -5.4375 8.484375 -5.4375 C 9.097656 -5.4375 9.539062 -5.570312 9.8125 -5.84375 C 10.082031 -6.113281 10.25 -6.476562 10.3125 -6.9375 C 10.375 -7.40625 10.40625 -8.117188 10.40625 -9.078125 L 10.40625 -10.03125 L 10.4375 -11.140625 C 10.4375 -11.523438 10.378906 -11.800781 10.265625 -11.96875 C 10.160156 -12.144531 9.9375 -12.234375 9.59375 -12.234375 C 8.738281 -12.234375 8.050781 -12.035156 7.53125 -11.640625 C 7.019531 -11.253906 6.691406 -10.769531 6.546875 -10.1875 Z M 6.546875 -10.140625 "/></g></g></g><g fill="#dce1de" fill-opacity="1"><g transform="translate(105.050164, 60.014997)"><g><path d="M 7.234375 -17.453125 C 8.441406 -18.191406 9.742188 -18.5625 11.140625 -18.5625 C 11.921875 -18.5625 12.675781 -18.425781 13.40625 -18.15625 C 14.144531 -17.882812 14.695312 -17.46875 15.0625 -16.90625 L 15.515625 -16.578125 C 16.148438 -16.085938 16.46875 -14.03125 16.46875 -10.40625 C 16.46875 -9.445312 16.441406 -8.007812 16.390625 -6.09375 C 16.335938 -4.238281 16.3125 -2.878906 16.3125 -2.015625 C 16.3125 -1.035156 16.335938 -0.03125 16.390625 1 C 15.503906 1.113281 14.472656 1.171875 13.296875 1.171875 L 11.09375 1.171875 C 11.070312 1.003906 11.0625 0.757812 11.0625 0.4375 L 10.359375 0.4375 C 10.285156 -0.320312 10.25 -1.800781 10.25 -4 L 10.25 -5.84375 C 10.25 -7.257812 10.222656 -8.359375 10.171875 -9.140625 C 10.128906 -9.929688 10 -10.597656 9.78125 -11.140625 C 9.582031 -11.210938 9.320312 -11.25 9 -11.25 C 8.269531 -11.25 7.765625 -11.003906 7.484375 -10.515625 C 7.203125 -10.023438 7.0625 -9.082031 7.0625 -7.6875 C 7.0625 -7.019531 7.082031 -6.097656 7.125 -4.921875 C 7.175781 -3.703125 7.203125 -2.804688 7.203125 -2.234375 C 7.203125 -1.179688 7.15625 -0.265625 7.0625 0.515625 L 7.0625 0.921875 C 6.195312 1.140625 5.484375 1.25 4.921875 1.25 C 4.578125 1.25 4.304688 1.238281 4.109375 1.21875 L 3.234375 1.171875 L 2.828125 1.171875 C 2.460938 1.171875 2.109375 1.195312 1.765625 1.25 L 1.765625 0.4375 L 1.03125 0.515625 L 1 -6.4375 C 0.945312 -9.519531 0.921875 -11.859375 0.921875 -13.453125 C 0.921875 -14.742188 0.945312 -16.492188 1 -18.703125 C 1.582031 -18.628906 2.128906 -18.59375 2.640625 -18.59375 C 2.835938 -18.59375 3.160156 -18.628906 3.609375 -18.703125 C 4.066406 -18.773438 4.6875 -18.8125 5.46875 -18.8125 C 6.132812 -18.8125 6.476562 -18.664062 6.5 -18.375 C 6.5 -18.226562 6.613281 -18.097656 6.84375 -17.984375 C 7.082031 -17.878906 7.210938 -17.765625 7.234375 -17.640625 Z M 5.703125 -18.484375 C 5.015625 -18.484375 4.238281 -18.421875 3.375 -18.296875 C 2.988281 -18.253906 2.742188 -18.234375 2.640625 -18.234375 L 2.203125 -18.234375 C 1.890625 -18.234375 1.609375 -18.253906 1.359375 -18.296875 C 1.304688 -17.535156 1.28125 -16.421875 1.28125 -14.953125 L 1.28125 -12.71875 C 1.28125 -11.21875 1.304688 -9.046875 1.359375 -6.203125 L 1.390625 0.109375 C 1.691406 0.0859375 2.085938 0.078125 2.578125 0.078125 L 4.34375 0.109375 C 4.851562 0.109375 5.390625 0.0351562 5.953125 -0.109375 L 5.953125 -0.25 C 6.046875 -1.0625 6.09375 -1.972656 6.09375 -2.984375 C 6.09375 -3.617188 6.070312 -4.546875 6.03125 -5.765625 C 5.976562 -6.992188 5.953125 -7.925781 5.953125 -8.5625 C 5.953125 -10.03125 6.132812 -11.023438 6.5 -11.546875 C 6.875 -12.078125 7.460938 -12.34375 8.265625 -12.34375 C 9.148438 -12.34375 9.71875 -12.078125 9.96875 -11.546875 C 10.226562 -11.023438 10.382812 -10.4375 10.4375 -9.78125 C 10.488281 -9.132812 10.523438 -8.691406 10.546875 -8.453125 C 10.597656 -8.085938 10.625 -7.5 10.625 -6.6875 L 10.625 -1.5 C 10.625 -0.769531 10.644531 -0.242188 10.6875 0.078125 L 12.828125 0.109375 C 13.710938 0.109375 14.53125 0.046875 15.28125 -0.078125 C 15.238281 -1.003906 15.21875 -1.773438 15.21875 -2.390625 C 15.21875 -3.242188 15.238281 -4.628906 15.28125 -6.546875 C 15.332031 -8.554688 15.359375 -10.023438 15.359375 -10.953125 C 15.359375 -12.640625 15.296875 -14.003906 15.171875 -15.046875 C 15.054688 -16.085938 14.835938 -16.753906 14.515625 -17.046875 C 13.679688 -17.804688 12.539062 -18.1875 11.09375 -18.1875 C 10.3125 -18.1875 9.613281 -18.0625 9 -17.8125 C 8.382812 -17.570312 7.804688 -17.296875 7.265625 -16.984375 C 6.734375 -16.679688 6.378906 -16.484375 6.203125 -16.390625 L 6.25 -17.234375 C 6.25 -18.066406 6.066406 -18.484375 5.703125 -18.484375 Z M 5.703125 -18.484375 "/></g></g></g><g fill="#dce1de" fill-opacity="1"><g transform="translate(162.655676, 57.573983)"><g><path d="M 21 -21.4375 C 21.050781 -20.957031 21.078125 -20.585938 21.078125 -20.328125 L 21.078125 -19.875 C 21.054688 -19.070312 21.046875 -17.910156 21.046875 -16.390625 L 21.078125 -11.375 C 21.109375 -10.238281 21.125 -8.550781 21.125 -6.3125 C 21.125 -4.550781 21.082031 -2.742188 21 -0.890625 L 21 -0.578125 C 21 0.046875 20.953125 0.503906 20.859375 0.796875 C 20.765625 1.097656 20.5 1.296875 20.0625 1.390625 L 19.421875 1.390625 C 19.003906 1.390625 18.46875 1.359375 17.8125 1.296875 L 16.515625 1.25 C 16.304688 1.25 15.992188 1.28125 15.578125 1.34375 L 14.59375 1.390625 C 14.113281 1.265625 13.800781 0.96875 13.65625 0.5 C 13.269531 0.34375 13.03125 0.175781 12.9375 0 C 11.382812 0.957031 9.847656 1.4375 8.328125 1.4375 C 6.742188 1.4375 5.347656 0.75 4.140625 -0.625 C 2.929688 -2 2.003906 -3.722656 1.359375 -5.796875 C 0.722656 -7.867188 0.40625 -9.90625 0.40625 -11.90625 C 0.40625 -14.175781 0.789062 -16.125 1.5625 -17.75 C 2.34375 -19.375 3.410156 -20.601562 4.765625 -21.4375 C 6.117188 -22.28125 7.648438 -22.703125 9.359375 -22.703125 C 10.191406 -22.703125 10.835938 -22.640625 11.296875 -22.515625 C 11.765625 -22.398438 12.191406 -22.101562 12.578125 -21.625 C 12.609375 -21.769531 12.640625 -22.003906 12.671875 -22.328125 C 12.703125 -22.660156 12.773438 -22.867188 12.890625 -22.953125 C 13.015625 -23.046875 13.207031 -23.09375 13.46875 -23.09375 C 13.738281 -23.09375 13.984375 -23.070312 14.203125 -23.03125 C 14.429688 -22.988281 14.648438 -22.96875 14.859375 -22.96875 L 15.265625 -22.96875 C 16.035156 -22.96875 17.515625 -22.890625 19.703125 -22.734375 L 20.09375 -22.34375 L 20.140625 -21.84375 L 20.59375 -21.84375 Z M 14.765625 -22.515625 L 13.5625 -22.5625 C 13.257812 -22.5625 13.078125 -22.375 13.015625 -22 C 12.960938 -21.625 12.9375 -21.09375 12.9375 -20.40625 L 12.9375 -20.1875 C 12.664062 -20.84375 12.320312 -21.316406 11.90625 -21.609375 C 11.488281 -21.910156 11.023438 -22.09375 10.515625 -22.15625 C 10.015625 -22.21875 9.300781 -22.25 8.375 -22.25 C 6.96875 -22.21875 5.6875 -21.742188 4.53125 -20.828125 C 3.382812 -19.921875 2.484375 -18.691406 1.828125 -17.140625 C 1.171875 -15.585938 0.84375 -13.84375 0.84375 -11.90625 C 0.84375 -10.144531 1.082031 -8.335938 1.5625 -6.484375 C 2.039062 -4.640625 2.78125 -3.082031 3.78125 -1.8125 C 4.78125 -0.539062 6 0.09375 7.4375 0.09375 C 8.445312 0.09375 9.492188 -0.148438 10.578125 -0.640625 C 11.671875 -1.140625 12.59375 -1.757812 13.34375 -2.5 C 13.34375 -2.320312 13.3125 -2.078125 13.25 -1.765625 C 13.1875 -1.453125 13.15625 -1.175781 13.15625 -0.9375 C 13.15625 -0.425781 13.335938 -0.0976562 13.703125 0.046875 C 13.941406 0.046875 14.269531 0.015625 14.6875 -0.046875 L 15.625 -0.09375 L 17.09375 -0.046875 C 17.75 0.015625 18.226562 0.046875 18.53125 0.046875 L 19.0625 0.046875 C 19.300781 -0.015625 19.457031 -0.140625 19.53125 -0.328125 C 19.613281 -0.523438 19.65625 -0.800781 19.65625 -1.15625 L 19.65625 -1.796875 C 19.769531 -3.554688 19.828125 -5.507812 19.828125 -7.65625 L 19.78125 -12.578125 C 19.726562 -14.785156 19.703125 -16.457031 19.703125 -17.59375 C 19.703125 -19 19.710938 -20.054688 19.734375 -20.765625 L 19.734375 -21.21875 C 19.734375 -21.457031 19.707031 -21.816406 19.65625 -22.296875 C 18.820312 -22.359375 17.359375 -22.429688 15.265625 -22.515625 Z M 10.78125 -16.25 C 11.53125 -16.25 12.0625 -16.179688 12.375 -16.046875 C 12.6875 -15.910156 12.882812 -15.625 12.96875 -15.1875 C 13.0625 -14.757812 13.109375 -14.039062 13.109375 -13.03125 L 13.109375 -10.5625 C 13.109375 -9.488281 13.054688 -8.648438 12.953125 -8.046875 C 12.847656 -7.453125 12.59375 -6.988281 12.1875 -6.65625 C 11.789062 -6.332031 11.175781 -6.171875 10.34375 -6.171875 C 9.113281 -6.171875 8.140625 -6.632812 7.421875 -7.5625 C 6.710938 -8.488281 6.359375 -9.640625 6.359375 -11.015625 C 6.359375 -11.992188 6.445312 -12.785156 6.625 -13.390625 C 6.800781 -14.191406 7.25 -14.867188 7.96875 -15.421875 C 8.6875 -15.972656 9.625 -16.25 10.78125 -16.25 Z M 7.96875 -12.359375 C 7.789062 -11.753906 7.703125 -11.003906 7.703125 -10.109375 C 7.703125 -7.785156 8.582031 -6.625 10.34375 -6.625 C 11.082031 -6.625 11.613281 -6.785156 11.9375 -7.109375 C 12.269531 -7.441406 12.472656 -7.890625 12.546875 -8.453125 C 12.628906 -9.023438 12.671875 -9.894531 12.671875 -11.0625 L 12.671875 -12.21875 L 12.71875 -13.5625 C 12.71875 -14.039062 12.648438 -14.382812 12.515625 -14.59375 C 12.378906 -14.800781 12.101562 -14.90625 11.6875 -14.90625 C 10.632812 -14.90625 9.796875 -14.664062 9.171875 -14.1875 C 8.546875 -13.707031 8.144531 -13.113281 7.96875 -12.40625 Z M 7.96875 -12.359375 "/></g></g></g><g fill="#dce1de" fill-opacity="1"><g transform="translate(183.966366, 57.573983)"><g><path d="M 8.8125 -21.265625 C 10.28125 -22.160156 11.863281 -22.609375 13.5625 -22.609375 C 14.519531 -22.609375 15.445312 -22.441406 16.34375 -22.109375 C 17.238281 -21.785156 17.910156 -21.28125 18.359375 -20.59375 L 18.890625 -20.1875 C 19.671875 -19.59375 20.0625 -17.085938 20.0625 -12.671875 C 20.0625 -11.503906 20.03125 -9.757812 19.96875 -7.4375 C 19.90625 -5.164062 19.875 -3.507812 19.875 -2.46875 C 19.875 -1.269531 19.90625 -0.046875 19.96875 1.203125 C 18.894531 1.359375 17.640625 1.4375 16.203125 1.4375 L 13.515625 1.4375 C 13.484375 1.226562 13.46875 0.925781 13.46875 0.53125 L 12.625 0.53125 C 12.53125 -0.382812 12.484375 -2.1875 12.484375 -4.875 L 12.484375 -7.125 C 12.484375 -8.851562 12.453125 -10.191406 12.390625 -11.140625 C 12.335938 -12.097656 12.175781 -12.90625 11.90625 -13.5625 C 11.664062 -13.65625 11.351562 -13.703125 10.96875 -13.703125 C 10.070312 -13.703125 9.453125 -13.398438 9.109375 -12.796875 C 8.765625 -12.203125 8.59375 -11.054688 8.59375 -9.359375 C 8.59375 -8.546875 8.625 -7.425781 8.6875 -6 C 8.75 -4.507812 8.78125 -3.421875 8.78125 -2.734375 C 8.78125 -1.453125 8.71875 -0.332031 8.59375 0.625 L 8.59375 1.125 C 7.550781 1.382812 6.6875 1.515625 6 1.515625 C 5.582031 1.515625 5.253906 1.503906 5.015625 1.484375 L 3.9375 1.4375 L 3.453125 1.4375 C 3.003906 1.4375 2.570312 1.460938 2.15625 1.515625 L 2.15625 0.53125 L 1.25 0.625 L 1.203125 -7.828125 C 1.148438 -11.585938 1.125 -14.441406 1.125 -16.390625 C 1.125 -17.960938 1.148438 -20.09375 1.203125 -22.78125 C 1.921875 -22.695312 2.59375 -22.65625 3.21875 -22.65625 C 3.457031 -22.65625 3.851562 -22.695312 4.40625 -22.78125 C 4.957031 -22.875 5.710938 -22.921875 6.671875 -22.921875 C 7.472656 -22.921875 7.890625 -22.742188 7.921875 -22.390625 C 7.921875 -22.203125 8.0625 -22.039062 8.34375 -21.90625 C 8.632812 -21.78125 8.789062 -21.640625 8.8125 -21.484375 Z M 6.9375 -22.515625 C 6.101562 -22.515625 5.164062 -22.441406 4.125 -22.296875 C 3.644531 -22.234375 3.34375 -22.203125 3.21875 -22.203125 L 2.6875 -22.203125 C 2.300781 -22.203125 1.957031 -22.234375 1.65625 -22.296875 C 1.59375 -21.367188 1.5625 -20.007812 1.5625 -18.21875 L 1.5625 -15.484375 C 1.5625 -13.671875 1.59375 -11.03125 1.65625 -7.5625 L 1.703125 0.140625 C 2.054688 0.109375 2.535156 0.09375 3.140625 0.09375 L 5.28125 0.140625 C 5.90625 0.140625 6.5625 0.046875 7.25 -0.140625 L 7.25 -0.3125 C 7.375 -1.300781 7.4375 -2.40625 7.4375 -3.625 C 7.4375 -4.40625 7.40625 -5.539062 7.34375 -7.03125 C 7.28125 -8.519531 7.25 -9.65625 7.25 -10.4375 C 7.25 -12.21875 7.472656 -13.429688 7.921875 -14.078125 C 8.367188 -14.722656 9.085938 -15.046875 10.078125 -15.046875 C 11.148438 -15.046875 11.84375 -14.722656 12.15625 -14.078125 C 12.46875 -13.429688 12.648438 -12.710938 12.703125 -11.921875 C 12.765625 -11.140625 12.8125 -10.597656 12.84375 -10.296875 C 12.90625 -9.847656 12.9375 -9.128906 12.9375 -8.140625 L 12.9375 -1.828125 C 12.9375 -0.941406 12.96875 -0.300781 13.03125 0.09375 L 15.625 0.140625 C 16.695312 0.140625 17.695312 0.0625 18.625 -0.09375 C 18.5625 -1.226562 18.53125 -2.164062 18.53125 -2.90625 C 18.53125 -3.957031 18.5625 -5.644531 18.625 -7.96875 C 18.6875 -10.414062 18.71875 -12.207031 18.71875 -13.34375 C 18.71875 -15.394531 18.640625 -17.054688 18.484375 -18.328125 C 18.335938 -19.597656 18.070312 -20.410156 17.6875 -20.765625 C 16.664062 -21.691406 15.273438 -22.15625 13.515625 -22.15625 C 12.566406 -22.15625 11.71875 -22.003906 10.96875 -21.703125 C 10.21875 -21.410156 9.515625 -21.078125 8.859375 -20.703125 C 8.203125 -20.328125 7.769531 -20.082031 7.5625 -19.96875 L 7.609375 -21 C 7.609375 -22.007812 7.382812 -22.515625 6.9375 -22.515625 Z M 6.9375 -22.515625 "/></g></g></g></svg>