<svg xmlns="http://www.w3.org/2000/svg" xmlns:xlink="http://www.w3.org/1999/xlink" width="300" zoomAndPan="magnify" viewBox="0 0 224.87999 74.999997" height="100" preserveAspectRatio="xMidYMid meet" version="1.0"><defs><g/><clipPath id="id1"><path d="M 141 4.515625 L 175 4.515625 L 175 70.480469 L 141 70.480469 Z M 141 4.515625 " clip-rule="nonzero"/></clipPath><clipPath id="id2"><path d="M 134.929688 15 L 148 15 L 148 29 L 134.929688 29 Z M 134.929688 15 " clip-rule="nonzero"/></clipPath><clipPath id="id3"><path d="M 143 4.515625 L 151 4.515625 L 151 9 L 143 9 Z M 143 4.515625 " clip-rule="nonzero"/></clipPath><clipPath id="id4"><path d="M 172 29 L 178.40625 29 L 178.40625 55 L 172 55 Z M 172 29 " clip-rule="nonzero"/></clipPath></defs><g clip-path="url(#id1)"><path fill="#dce1de" d="M 171.101562 20.574219 C 169.761719 17.289062 166.84375 14.507812 163.507812 12.214844 C 158.558594 8.816406 152.6875 6.488281 149.804688 5.128906 C 148.574219 4.550781 146.941406 4.609375 145.441406 5.019531 C 143.945312 5.429688 142.589844 6.1875 141.886719 6.976562 C 141.453125 7.464844 141.210938 8.367188 141.113281 9.390625 C 140.898438 11.652344 141.316406 14.542969 141.316406 14.542969 C 141.335938 14.6875 141.460938 14.789062 141.605469 14.78125 C 141.605469 14.78125 143.78125 14.644531 145.570312 16.140625 C 146.777344 17.152344 147.796875 18.90625 147.890625 21.925781 C 148.09375 28.433594 141.332031 28.359375 141.332031 28.359375 C 141.257812 28.359375 141.1875 28.390625 141.132812 28.441406 C 141.082031 28.496094 141.054688 28.570312 141.054688 28.644531 L 141.695312 50.191406 C 141.699219 50.335938 141.816406 50.453125 141.960938 50.457031 C 141.960938 50.457031 148.285156 50.683594 148.402344 57.308594 C 148.5 63.140625 143.351562 64.285156 143.351562 64.285156 C 143.222656 64.3125 143.132812 64.429688 143.136719 64.5625 L 143.285156 69.667969 C 143.289062 69.8125 143.402344 69.929688 143.546875 69.9375 C 143.546875 69.9375 154.097656 70.445312 158.972656 69.09375 C 161.894531 68.285156 165.828125 67.660156 168.78125 66.199219 C 170.8125 65.1875 172.386719 63.78125 172.910156 61.679688 C 174.90625 53.621094 174.945312 29.984375 171.101562 20.574219 Z M 170.59375 20.785156 C 174.402344 30.117188 174.359375 53.554688 172.375 61.546875 C 171.894531 63.488281 170.417969 64.765625 168.535156 65.699219 C 165.613281 67.148438 161.71875 67.757812 158.828125 68.558594 C 154.453125 69.769531 145.449219 69.460938 143.828125 69.394531 C 143.828125 69.394531 143.691406 64.765625 143.691406 64.765625 C 144.730469 64.457031 149.046875 62.847656 148.949219 57.296875 C 148.839844 50.972656 143.484375 50.050781 142.238281 49.925781 C 142.171875 47.699219 141.683594 31.246094 141.613281 28.90625 C 142.964844 28.828125 148.632812 28.140625 148.441406 21.90625 C 148.339844 18.667969 147.21875 16.800781 145.921875 15.714844 C 144.34375 14.394531 142.496094 14.234375 141.828125 14.222656 C 141.734375 13.5 141.488281 11.265625 141.660156 9.445312 C 141.746094 8.558594 141.921875 7.769531 142.296875 7.347656 C 142.945312 6.617188 144.207031 5.933594 145.585938 5.554688 C 146.957031 5.179688 148.445312 5.105469 149.574219 5.632812 C 152.441406 6.980469 158.277344 9.296875 163.199219 12.675781 C 166.441406 14.902344 169.292969 17.59375 170.59375 20.785156 Z M 170.59375 20.785156 " fill-opacity="1" fill-rule="evenodd"/></g><g clip-path="url(#id2)"><path fill="#dce1de" d="M 141.605469 15.199219 C 140.425781 15.125 138.273438 15.449219 136.734375 16.980469 C 135.710938 18 134.953125 19.550781 134.949219 21.878906 C 134.941406 24.796875 136.777344 26.617188 138.753906 27.496094 C 140.074219 28.082031 141.457031 28.242188 142.386719 28.042969 C 145.777344 27.316406 147.175781 25.367188 147.308594 23.015625 C 147.449219 20.507812 146.917969 18.785156 146.105469 17.613281 C 144.867188 15.824219 142.957031 15.285156 141.605469 15.199219 Z M 141.570312 15.753906 C 142.796875 15.832031 144.535156 16.308594 145.65625 17.929688 C 146.414062 19.027344 146.890625 20.640625 146.757812 22.984375 C 146.640625 25.109375 145.339844 26.84375 142.273438 27.5 C 141.429688 27.679688 140.175781 27.519531 138.976562 26.988281 C 137.175781 26.1875 135.492188 24.539062 135.496094 21.882812 C 135.503906 19.742188 136.179688 18.308594 137.121094 17.375 C 138.527344 15.976562 140.496094 15.683594 141.570312 15.753906 Z M 141.570312 15.753906 " fill-opacity="1" fill-rule="evenodd"/></g><path fill="#dce1de" d="M 142.101562 50.933594 C 140.925781 50.855469 138.769531 51.179688 137.230469 52.714844 C 136.207031 53.730469 135.449219 55.28125 135.445312 57.613281 C 135.4375 60.527344 137.273438 62.347656 139.253906 63.226562 C 140.574219 63.8125 141.953125 63.976562 142.886719 63.777344 C 146.273438 63.050781 147.675781 61.097656 147.804688 58.746094 C 147.945312 56.238281 147.417969 54.519531 146.601562 53.34375 C 145.367188 51.558594 143.453125 51.019531 142.101562 50.933594 Z M 142.066406 51.484375 C 143.292969 51.5625 145.03125 52.042969 146.152344 53.664062 C 146.914062 54.761719 147.386719 56.371094 147.257812 58.714844 C 147.136719 60.84375 145.835938 62.578125 142.773438 63.234375 C 141.925781 63.414062 140.671875 63.253906 139.472656 62.71875 C 137.671875 61.917969 135.988281 60.269531 135.996094 57.613281 C 136 55.476562 136.679688 54.042969 137.617188 53.109375 C 139.023438 51.710938 140.992188 51.417969 142.066406 51.484375 Z M 142.066406 51.484375 " fill-opacity="1" fill-rule="evenodd"/><path fill="#dce1de" d="M 141.484375 16.363281 C 140.546875 16.300781 138.828125 16.570312 137.601562 17.835938 C 136.792969 18.671875 136.1875 19.949219 136.183594 21.863281 C 136.175781 24.265625 137.640625 25.765625 139.210938 26.488281 C 140.265625 26.972656 141.367188 27.105469 142.113281 26.941406 C 144.808594 26.339844 145.925781 24.730469 146.027344 22.792969 C 146.167969 20.207031 145.472656 18.640625 144.539062 17.699219 C 143.589844 16.742188 142.382812 16.421875 141.484375 16.363281 Z M 141.449219 16.917969 C 142.242188 16.96875 143.3125 17.246094 144.148438 18.089844 C 145.003906 18.953125 145.605469 20.398438 145.480469 22.761719 C 145.386719 24.476562 144.375 25.871094 141.992188 26.398438 C 141.339844 26.542969 140.367188 26.410156 139.441406 25.984375 C 138.039062 25.339844 136.726562 24.007812 136.734375 21.867188 C 136.738281 20.136719 137.265625 18.980469 137.996094 18.222656 C 139.085938 17.097656 140.613281 16.863281 141.449219 16.917969 Z M 141.449219 16.917969 " fill-opacity="1" fill-rule="evenodd"/><path fill="#dce1de" d="M 141.984375 52.097656 C 141.042969 52.035156 139.328125 52.300781 138.101562 53.566406 C 137.289062 54.40625 136.683594 55.679688 136.679688 57.597656 C 136.675781 60 138.136719 61.5 139.707031 62.222656 C 140.761719 62.707031 141.867188 62.839844 142.609375 62.671875 C 145.304688 62.074219 146.421875 60.464844 146.523438 58.523438 C 146.664062 55.941406 145.96875 54.375 145.035156 53.433594 C 144.085938 52.476562 142.878906 52.15625 141.984375 52.097656 Z M 141.945312 52.652344 C 142.738281 52.703125 143.808594 52.980469 144.648438 53.824219 C 145.5 54.6875 146.101562 56.132812 145.976562 58.496094 C 145.882812 60.207031 144.871094 61.601562 142.492188 62.132812 C 141.835938 62.277344 140.867188 62.144531 139.9375 61.71875 C 138.535156 61.070312 137.226562 59.742188 137.230469 57.597656 C 137.234375 55.867188 137.761719 54.710938 138.496094 53.957031 C 139.585938 52.832031 141.113281 52.59375 141.945312 52.652344 Z M 141.945312 52.652344 " fill-opacity="1" fill-rule="evenodd"/><path fill="#dce1de" d="M 146.164062 53.378906 C 145.957031 53.058594 145.730469 52.757812 145.46875 52.453125 C 145.398438 52.367188 145.289062 52.203125 145.183594 52.085938 C 145.109375 52.003906 145.027344 51.9375 144.960938 51.90625 C 144.804688 51.828125 144.691406 51.863281 144.621094 51.898438 C 144.570312 51.925781 144.523438 51.960938 144.488281 52.011719 C 143.347656 51.410156 141.761719 51.207031 140.554688 51.410156 C 139.867188 51.523438 138.765625 51.664062 138.164062 52.027344 C 137.023438 52.71875 136.085938 53.988281 135.917969 55.363281 C 135.902344 55.488281 135.890625 55.613281 135.886719 55.742188 C 135.855469 55.90625 135.835938 56.082031 135.835938 56.082031 C 135.828125 56.160156 135.847656 56.238281 135.886719 56.300781 C 135.894531 56.617188 135.914062 56.933594 135.914062 57.234375 C 135.914062 57.773438 135.746094 58.320312 135.835938 58.875 C 135.996094 59.847656 136.609375 60.617188 137.171875 61.375 C 137.457031 61.753906 137.621094 62.140625 138.0625 62.394531 C 138.679688 62.75 139.375 62.863281 140.042969 63.03125 C 140.179688 63.0625 140.304688 63.136719 140.429688 63.203125 C 140.609375 63.296875 140.789062 63.382812 140.988281 63.417969 C 142.1875 63.621094 143.78125 63.65625 144.859375 62.929688 C 147.605469 61.082031 148.523438 57 146.804688 54.109375 C 146.636719 53.832031 146.414062 53.589844 146.164062 53.378906 Z M 146.175781 59.746094 C 146.167969 59.738281 146.15625 59.726562 146.144531 59.714844 C 146.113281 59.6875 146.03125 59.597656 146.046875 59.429688 C 146.054688 59.34375 146.152344 58.957031 146.15625 58.914062 C 146.222656 58.378906 146.230469 57.75 146.183594 57.210938 C 146.039062 55.617188 145.714844 54.101562 144.363281 53.078125 C 143.769531 52.628906 143.050781 52.378906 142.292969 52.296875 C 141.464844 52.210938 140.628906 52.367188 139.707031 52.738281 C 139.261719 52.917969 138.785156 53.042969 138.410156 53.347656 C 138.21875 53.5 138.082031 53.730469 137.964844 53.976562 C 137.820312 54.261719 137.703125 54.566406 137.578125 54.816406 C 137.355469 55.269531 137.050781 55.777344 136.925781 56.28125 C 136.910156 56.351562 136.894531 56.429688 136.882812 56.507812 C 136.882812 56.613281 136.882812 56.71875 136.882812 56.824219 C 136.882812 56.882812 136.867188 56.9375 136.84375 56.988281 C 136.824219 57.710938 136.96875 58.542969 137.09375 59.164062 C 137.121094 59.304688 137.191406 59.429688 137.257812 59.550781 C 137.355469 59.726562 137.457031 59.898438 137.515625 60.082031 C 137.628906 60.417969 137.933594 60.976562 138.25 61.191406 C 138.65625 61.464844 139.046875 61.808594 139.515625 62.042969 C 139.84375 62.210938 140.257812 62.203125 140.609375 62.292969 C 141.519531 62.519531 142.554688 62.683594 143.457031 62.378906 C 144.195312 62.132812 144.902344 61.335938 145.4375 60.796875 C 145.746094 60.484375 145.992188 60.128906 146.175781 59.746094 Z M 146.175781 59.746094 " fill-opacity="1" fill-rule="evenodd"/><path fill="#dce1de" d="M 145.613281 17.652344 C 145.410156 17.332031 145.179688 17.03125 144.921875 16.726562 C 144.851562 16.640625 144.738281 16.476562 144.632812 16.359375 C 144.558594 16.277344 144.476562 16.214844 144.410156 16.179688 C 144.253906 16.101562 144.140625 16.136719 144.070312 16.171875 C 144.019531 16.199219 143.976562 16.234375 143.941406 16.285156 C 142.796875 15.683594 141.210938 15.480469 140.007812 15.683594 C 139.316406 15.800781 138.214844 15.9375 137.613281 16.300781 C 136.472656 16.992188 135.539062 18.261719 135.367188 19.636719 C 135.351562 19.761719 135.34375 19.886719 135.335938 20.015625 C 135.304688 20.179688 135.285156 20.355469 135.285156 20.355469 C 135.277344 20.433594 135.296875 20.511719 135.335938 20.574219 C 135.347656 20.890625 135.363281 21.210938 135.363281 21.507812 C 135.363281 22.046875 135.195312 22.59375 135.289062 23.148438 C 135.449219 24.121094 136.0625 24.890625 136.625 25.648438 C 136.90625 26.027344 137.070312 26.414062 137.511719 26.667969 C 138.128906 27.023438 138.824219 27.136719 139.492188 27.304688 C 139.628906 27.339844 139.753906 27.410156 139.878906 27.476562 C 140.058594 27.570312 140.242188 27.660156 140.4375 27.691406 C 141.636719 27.894531 143.230469 27.929688 144.308594 27.203125 C 147.054688 25.355469 147.972656 21.273438 146.253906 18.382812 C 146.085938 18.105469 145.863281 17.863281 145.613281 17.652344 Z M 145.628906 24.019531 C 145.617188 24.011719 145.605469 24 145.59375 23.988281 C 145.566406 23.960938 145.480469 23.871094 145.496094 23.703125 C 145.503906 23.617188 145.601562 23.230469 145.605469 23.1875 C 145.671875 22.652344 145.679688 22.023438 145.632812 21.484375 C 145.488281 19.894531 145.164062 18.375 143.816406 17.351562 C 143.222656 16.902344 142.5 16.652344 141.742188 16.570312 C 140.917969 16.488281 140.078125 16.640625 139.15625 17.015625 C 138.710938 17.195312 138.234375 17.316406 137.859375 17.621094 C 137.667969 17.773438 137.535156 18.003906 137.414062 18.25 C 137.269531 18.535156 137.152344 18.84375 137.027344 19.09375 C 136.804688 19.542969 136.503906 20.050781 136.378906 20.554688 C 136.359375 20.625 136.34375 20.703125 136.332031 20.78125 C 136.332031 20.886719 136.332031 20.992188 136.332031 21.101562 C 136.332031 21.15625 136.320312 21.210938 136.292969 21.261719 C 136.277344 21.984375 136.421875 22.816406 136.542969 23.4375 C 136.570312 23.578125 136.640625 23.703125 136.710938 23.828125 C 136.804688 24 136.90625 24.171875 136.964844 24.355469 C 137.078125 24.691406 137.386719 25.253906 137.699219 25.464844 C 138.105469 25.738281 138.496094 26.082031 138.964844 26.316406 C 139.292969 26.484375 139.707031 26.476562 140.0625 26.566406 C 140.96875 26.792969 142.007812 26.957031 142.90625 26.65625 C 143.644531 26.40625 144.351562 25.609375 144.890625 25.070312 C 145.199219 24.757812 145.441406 24.402344 145.628906 24.019531 Z M 145.628906 24.019531 " fill-opacity="1" fill-rule="evenodd"/><path fill="#dce1de" d="M 159.917969 13.03125 C 159.84375 13.082031 159.746094 13.210938 159.6875 13.433594 C 159.597656 13.753906 159.53125 14.34375 159.484375 15.121094 C 159.289062 18.5625 159.5 25.769531 159.890625 28.945312 C 159.996094 29.804688 160.132812 30.390625 160.261719 30.574219 C 160.296875 30.625 160.355469 30.683594 160.445312 30.734375 C 160.566406 30.800781 160.761719 30.867188 161.023438 30.925781 C 162.332031 31.21875 165.421875 31.382812 167.464844 31.238281 C 168.265625 31.179688 168.910156 31.070312 169.25 30.914062 C 169.488281 30.800781 169.609375 30.644531 169.640625 30.5 C 169.703125 30.210938 169.777344 27.386719 169.484375 24.542969 C 169.289062 22.636719 168.921875 20.722656 168.289062 19.554688 C 167.183594 17.515625 164.199219 14.742188 162.125 13.53125 C 161.566406 13.207031 161.070312 12.992188 160.6875 12.921875 C 160.359375 12.859375 160.097656 12.90625 159.917969 13.03125 Z M 169.105469 30.355469 C 169.078125 30.375 168.980469 30.429688 168.894531 30.457031 C 168.566406 30.566406 168.046875 30.640625 167.425781 30.683594 C 165.679688 30.808594 163.148438 30.703125 161.683594 30.480469 C 161.324219 30.425781 161.03125 30.367188 160.839844 30.300781 C 160.785156 30.28125 160.722656 30.25 160.703125 30.238281 C 160.671875 30.1875 160.648438 30.09375 160.617188 29.972656 C 160.554688 29.714844 160.492188 29.339844 160.4375 28.878906 C 160.046875 25.722656 159.839844 18.570312 160.035156 15.15625 C 160.070312 14.527344 160.121094 14.03125 160.1875 13.710938 C 160.207031 13.613281 160.242188 13.511719 160.253906 13.472656 C 160.339844 13.433594 160.453125 13.441406 160.589844 13.46875 C 160.925781 13.527344 161.359375 13.726562 161.851562 14.011719 C 163.855469 15.179688 166.738281 17.851562 167.804688 19.820312 C 168.410156 20.941406 168.75 22.777344 168.9375 24.601562 C 169.214844 27.285156 169.164062 29.953125 169.105469 30.355469 Z M 169.105469 30.355469 " fill-opacity="1" fill-rule="evenodd"/><path fill="#dce1de" d="M 169.371094 35.421875 C 169.242188 35.253906 168.933594 35.097656 168.480469 34.996094 C 167.613281 34.804688 166.148438 34.757812 164.707031 34.789062 C 163.070312 34.824219 161.460938 34.96875 160.808594 35.113281 C 160.667969 35.144531 160.5625 35.179688 160.5 35.210938 C 160.433594 35.242188 160.390625 35.28125 160.363281 35.3125 C 160.292969 35.398438 160.226562 35.535156 160.167969 35.722656 C 160.058594 36.070312 159.976562 36.621094 159.914062 37.308594 C 159.722656 39.519531 159.773438 43.183594 159.976562 45.746094 C 160.066406 46.863281 160.183594 47.773438 160.320312 48.28125 C 160.402344 48.578125 160.511719 48.757812 160.605469 48.828125 C 160.765625 48.949219 161.082031 49.0625 161.515625 49.148438 C 162.410156 49.316406 163.839844 49.390625 165.265625 49.382812 C 166.691406 49.371094 168.109375 49.273438 168.972656 49.101562 C 169.398438 49.019531 169.703125 48.90625 169.847656 48.792969 C 169.941406 48.714844 170.050781 48.527344 170.121094 48.230469 C 170.242188 47.722656 170.3125 46.824219 170.339844 45.722656 C 170.398438 43.199219 170.222656 39.613281 169.902344 37.410156 C 169.757812 36.40625 169.566406 35.679688 169.371094 35.421875 Z M 169.496094 48.363281 C 169.390625 48.441406 169.167969 48.5 168.867188 48.558594 C 168.027344 48.722656 166.648438 48.816406 165.261719 48.828125 C 163.878906 48.835938 162.484375 48.765625 161.617188 48.601562 C 161.308594 48.542969 161.070312 48.480469 160.949219 48.394531 C 160.9375 48.371094 160.882812 48.246094 160.851562 48.132812 C 160.71875 47.648438 160.609375 46.773438 160.523438 45.703125 C 160.324219 43.164062 160.273438 39.546875 160.464844 37.355469 C 160.511719 36.808594 160.574219 36.351562 160.652344 36.027344 C 160.6875 35.886719 160.722656 35.773438 160.765625 35.703125 C 160.824219 35.683594 161.015625 35.632812 161.195312 35.605469 C 161.945312 35.480469 163.320312 35.375 164.722656 35.34375 C 166.109375 35.3125 167.527344 35.355469 168.363281 35.539062 C 168.527344 35.574219 168.667969 35.613281 168.777344 35.664062 C 168.847656 35.695312 168.90625 35.71875 168.933594 35.757812 C 168.992188 35.835938 169.042969 35.976562 169.097656 36.15625 C 169.191406 36.488281 169.277344 36.945312 169.359375 37.492188 C 169.671875 39.667969 169.847656 43.214844 169.789062 45.707031 C 169.769531 46.613281 169.71875 47.378906 169.632812 47.882812 C 169.605469 48.039062 169.574219 48.164062 169.542969 48.261719 C 169.527344 48.300781 169.503906 48.351562 169.496094 48.363281 Z M 169.496094 48.363281 " fill-opacity="1" fill-rule="evenodd"/><path fill="#dce1de" d="M 169.4375 52.414062 C 169.378906 52.332031 169.25 52.234375 169.039062 52.171875 C 168.726562 52.078125 168.175781 52.019531 167.503906 51.996094 C 165.984375 51.945312 163.824219 52.066406 162.445312 52.300781 C 161.804688 52.410156 161.328125 52.554688 161.121094 52.703125 C 160.996094 52.792969 160.875 52.972656 160.78125 53.242188 C 160.617188 53.722656 160.507812 54.542969 160.453125 55.527344 C 160.332031 57.761719 160.472656 60.867188 160.734375 62.695312 C 160.8125 63.265625 160.90625 63.714844 161.003906 63.984375 C 161.0625 64.144531 161.128906 64.257812 161.191406 64.320312 C 161.269531 64.398438 161.402344 64.46875 161.585938 64.511719 C 161.886719 64.574219 162.367188 64.570312 162.945312 64.496094 C 164.050781 64.351562 165.53125 63.953125 166.742188 63.363281 C 167.578125 62.953125 168.285156 62.445312 168.671875 61.875 C 169.476562 60.6875 169.875 57.925781 169.894531 55.679688 C 169.902344 54.785156 169.851562 53.972656 169.75 53.375 C 169.675781 52.933594 169.566406 52.601562 169.4375 52.414062 Z M 169 52.75 C 169.089844 52.894531 169.152344 53.144531 169.207031 53.46875 C 169.304688 54.039062 169.351562 54.816406 169.34375 55.675781 C 169.324219 57.808594 168.980469 60.4375 168.21875 61.558594 C 167.875 62.066406 167.242188 62.5 166.503906 62.863281 C 165.347656 63.429688 163.933594 63.804688 162.875 63.945312 C 162.441406 64 162.070312 64.015625 161.808594 63.984375 C 161.734375 63.976562 161.675781 63.964844 161.625 63.945312 C 161.609375 63.941406 161.589844 63.9375 161.582031 63.929688 C 161.546875 63.890625 161.519531 63.804688 161.488281 63.6875 C 161.410156 63.4375 161.339844 63.066406 161.277344 62.617188 C 161.023438 60.816406 160.882812 57.757812 161.003906 55.558594 C 161.046875 54.765625 161.121094 54.085938 161.242188 53.621094 C 161.277344 53.484375 161.316406 53.367188 161.359375 53.273438 C 161.386719 53.21875 161.410156 53.175781 161.441406 53.152344 C 161.609375 53.03125 162.011719 52.9375 162.539062 52.847656 C 163.882812 52.621094 166 52.5 167.484375 52.550781 C 168.015625 52.570312 168.464844 52.609375 168.761719 52.671875 C 168.859375 52.695312 168.96875 52.738281 169 52.75 Z M 169 52.75 " fill-opacity="1" fill-rule="evenodd"/><path fill="#dce1de" d="M 141.84375 21.28125 C 141.808594 21.226562 141.761719 21.167969 141.703125 21.117188 C 141.542969 20.976562 141.292969 20.863281 141.09375 20.84375 C 140.960938 20.828125 140.839844 20.847656 140.753906 20.894531 C 140.515625 21.011719 140.394531 21.183594 140.339844 21.359375 C 140.265625 21.613281 140.34375 21.902344 140.527344 22.121094 C 140.828125 22.476562 141.375 22.625 141.78125 22.214844 C 142.113281 21.882812 142.046875 21.539062 141.84375 21.28125 Z M 141.84375 21.28125 " fill-opacity="1" fill-rule="evenodd"/><path fill="#dce1de" d="M 142.339844 57.015625 C 142.304688 56.957031 142.257812 56.902344 142.199219 56.851562 C 142.039062 56.710938 141.789062 56.597656 141.589844 56.574219 C 141.457031 56.5625 141.339844 56.582031 141.25 56.628906 C 141.015625 56.746094 140.890625 56.917969 140.839844 57.089844 C 140.761719 57.347656 140.839844 57.636719 141.027344 57.855469 C 141.328125 58.210938 141.871094 58.359375 142.277344 57.949219 C 142.609375 57.613281 142.542969 57.273438 142.339844 57.015625 Z M 142.339844 57.015625 " fill-opacity="1" fill-rule="evenodd"/><path fill="#dce1de" d="M 145.554688 20.808594 L 145.527344 20.8125 C 145.050781 20.875 142.382812 21.136719 141.496094 21.269531 C 141.3125 21.296875 141.183594 21.46875 141.210938 21.652344 C 141.238281 21.835938 141.410156 21.964844 141.59375 21.9375 C 142.476562 21.808594 145.140625 21.546875 145.613281 21.480469 C 145.722656 21.46875 145.78125 21.441406 145.792969 21.4375 C 145.984375 21.339844 145.984375 21.179688 145.976562 21.101562 C 145.96875 21.027344 145.941406 20.859375 145.722656 20.804688 C 145.664062 20.789062 145.605469 20.792969 145.554688 20.808594 Z M 145.386719 20.914062 C 145.355469 20.953125 145.328125 21 145.316406 21.050781 C 145.304688 21.109375 145.304688 21.164062 145.316406 21.21875 C 145.289062 21.125 145.292969 21.015625 145.386719 20.914062 Z M 145.34375 21.285156 C 145.371094 21.34375 145.425781 21.429688 145.5625 21.460938 C 145.464844 21.4375 145.386719 21.371094 145.34375 21.285156 Z M 145.34375 21.285156 " fill-opacity="1" fill-rule="evenodd"/><path fill="#dce1de" d="M 146.050781 56.539062 L 146.023438 56.542969 C 145.546875 56.609375 142.878906 56.871094 141.992188 57.003906 C 141.808594 57.027344 141.683594 57.199219 141.707031 57.386719 C 141.734375 57.570312 141.90625 57.699219 142.089844 57.671875 C 142.976562 57.539062 145.636719 57.277344 146.113281 57.214844 C 146.21875 57.199219 146.277344 57.175781 146.289062 57.171875 C 146.480469 57.074219 146.480469 56.914062 146.472656 56.832031 C 146.46875 56.761719 146.4375 56.59375 146.21875 56.539062 C 146.160156 56.523438 146.105469 56.527344 146.050781 56.539062 Z M 145.886719 56.644531 C 145.851562 56.683594 145.828125 56.730469 145.8125 56.785156 C 145.800781 56.839844 145.800781 56.898438 145.816406 56.949219 C 145.789062 56.859375 145.789062 56.75 145.886719 56.644531 Z M 145.839844 57.019531 C 145.867188 57.078125 145.921875 57.160156 146.058594 57.195312 C 145.960938 57.171875 145.882812 57.105469 145.839844 57.019531 Z M 145.839844 57.019531 " fill-opacity="1" fill-rule="evenodd"/><path fill="#dce1de" d="M 141.1875 22.265625 C 141.515625 22.738281 143.058594 25.4375 143.648438 26.03125 C 143.777344 26.164062 143.992188 26.164062 144.121094 26.03125 C 144.253906 25.898438 144.253906 25.683594 144.121094 25.550781 C 143.542969 24.96875 142.03125 22.289062 141.726562 21.863281 C 141.589844 21.660156 141.414062 21.660156 141.382812 21.660156 C 141.285156 21.667969 141.207031 21.707031 141.144531 21.78125 C 141.109375 21.824219 141.070312 21.890625 141.066406 21.988281 C 141.0625 22.101562 141.109375 22.199219 141.1875 22.265625 Z M 141.703125 22.152344 C 141.71875 22.117188 141.734375 22.070312 141.738281 22.015625 C 141.734375 22.066406 141.722656 22.109375 141.703125 22.152344 Z M 141.703125 22.152344 " fill-opacity="1" fill-rule="evenodd"/><path fill="#dce1de" d="M 141.6875 57.996094 C 142.011719 58.46875 143.554688 61.171875 144.144531 61.761719 C 144.277344 61.894531 144.488281 61.894531 144.617188 61.761719 C 144.75 61.632812 144.75 61.417969 144.617188 61.285156 C 144.039062 60.703125 142.527344 58.023438 142.226562 57.59375 C 142.085938 57.394531 141.910156 57.390625 141.878906 57.394531 C 141.78125 57.402344 141.703125 57.441406 141.644531 57.515625 C 141.609375 57.558594 141.566406 57.621094 141.5625 57.722656 C 141.558594 57.832031 141.609375 57.933594 141.6875 57.996094 Z M 142.199219 57.886719 C 142.21875 57.851562 142.230469 57.804688 142.234375 57.75 C 142.230469 57.796875 142.21875 57.84375 142.199219 57.886719 Z M 142.199219 57.886719 " fill-opacity="1" fill-rule="evenodd"/><path fill="#dce1de" d="M 140.75 21.875 C 140.480469 22.421875 138.949219 24.835938 138.5 25.742188 C 138.417969 25.910156 138.484375 26.113281 138.648438 26.195312 C 138.816406 26.28125 139.015625 26.210938 139.101562 26.046875 C 139.550781 25.136719 141.082031 22.722656 141.351562 22.175781 C 141.433594 22.007812 141.363281 21.804688 141.199219 21.722656 C 141.03125 21.640625 140.832031 21.710938 140.75 21.875 Z M 140.75 21.875 " fill-opacity="1" fill-rule="evenodd"/><path fill="#dce1de" d="M 141.246094 57.609375 C 140.980469 58.15625 139.445312 60.570312 138.996094 61.476562 C 138.914062 61.644531 138.980469 61.847656 139.148438 61.929688 C 139.3125 62.011719 139.515625 61.945312 139.597656 61.777344 C 140.046875 60.871094 141.582031 58.457031 141.847656 57.910156 C 141.929688 57.742188 141.863281 57.539062 141.695312 57.457031 C 141.53125 57.375 141.328125 57.441406 141.246094 57.609375 Z M 141.246094 57.609375 " fill-opacity="1" fill-rule="evenodd"/><path fill="#dce1de" d="M 140.988281 21.390625 L 140.902344 21.382812 C 140.296875 21.332031 137.1875 21.042969 137.046875 20.996094 C 136.964844 20.96875 136.746094 20.953125 136.6875 20.953125 L 136.683594 20.949219 L 136.675781 20.949219 L 136.683594 20.949219 L 136.6875 20.953125 C 136.769531 20.957031 136.8125 20.984375 136.820312 20.988281 C 136.777344 20.96875 136.734375 20.953125 136.6875 20.953125 L 136.679688 20.949219 L 136.664062 20.949219 C 136.613281 20.949219 136.503906 21.078125 136.441406 21.21875 L 136.328125 21.289062 L 136.402344 21.339844 C 136.371094 21.488281 136.421875 21.621094 136.664062 21.628906 C 136.683594 21.628906 136.84375 21.640625 136.84375 21.640625 C 136.84375 21.640625 136.835938 21.636719 136.835938 21.636719 C 136.980469 21.6875 140.214844 22.003906 140.84375 22.058594 C 140.921875 22.066406 140.96875 22.066406 140.976562 22.066406 C 141.253906 22.066406 141.300781 21.816406 141.304688 21.792969 C 141.320312 21.710938 141.3125 21.625 141.253906 21.539062 C 141.234375 21.511719 141.191406 21.445312 141.078125 21.40625 C 141.050781 21.398438 141.019531 21.390625 140.988281 21.390625 Z M 136.78125 21.605469 C 136.75 21.617188 136.71875 21.625 136.683594 21.625 C 136.746094 21.625 136.777344 21.609375 136.78125 21.605469 Z M 140.839844 22.039062 C 140.816406 22.027344 140.792969 22.015625 140.773438 21.996094 C 140.789062 22.011719 140.808594 22.023438 140.839844 22.039062 Z M 140.855469 22.042969 L 140.84375 22.039062 L 140.851562 22.042969 Z M 140.855469 22.042969 " fill-opacity="1" fill-rule="evenodd"/><path fill="#dce1de" d="M 141.484375 57.125 L 141.398438 57.117188 C 140.796875 57.0625 137.683594 56.777344 137.542969 56.730469 C 137.460938 56.699219 137.242188 56.6875 137.1875 56.683594 L 137.171875 56.683594 L 137.1875 56.683594 C 137.265625 56.691406 137.308594 56.71875 137.316406 56.722656 C 137.277344 56.699219 137.230469 56.6875 137.183594 56.683594 L 137.164062 56.683594 C 137.113281 56.683594 137 56.808594 136.9375 56.953125 L 136.828125 57.023438 L 136.898438 57.074219 C 136.867188 57.222656 136.917969 57.355469 137.160156 57.359375 C 137.179688 57.359375 137.339844 57.375 137.339844 57.375 C 137.339844 57.375 137.335938 57.371094 137.332031 57.371094 C 137.476562 57.417969 140.710938 57.734375 141.339844 57.792969 C 141.421875 57.796875 141.464844 57.800781 141.472656 57.800781 C 141.753906 57.800781 141.796875 57.550781 141.804688 57.523438 C 141.816406 57.445312 141.808594 57.359375 141.75 57.273438 C 141.734375 57.246094 141.691406 57.175781 141.578125 57.140625 C 141.546875 57.132812 141.515625 57.125 141.484375 57.125 Z M 137.28125 57.339844 C 137.25 57.351562 137.214844 57.359375 137.183594 57.359375 C 137.242188 57.355469 137.273438 57.34375 137.28125 57.339844 Z M 141.335938 57.773438 C 141.3125 57.761719 141.289062 57.746094 141.269531 57.730469 C 141.285156 57.742188 141.308594 57.757812 141.335938 57.773438 Z M 141.351562 57.777344 L 141.339844 57.773438 L 141.347656 57.777344 Z M 141.351562 57.777344 " fill-opacity="1" fill-rule="evenodd"/><path fill="#dce1de" d="M 142.769531 16.996094 L 141.183594 20.996094 C 141.113281 21.167969 141.199219 21.367188 141.371094 21.4375 C 141.542969 21.503906 141.738281 21.421875 141.804688 21.246094 L 143.390625 17.246094 C 143.460938 17.074219 143.378906 16.875 143.207031 16.808594 C 143.035156 16.738281 142.839844 16.824219 142.769531 16.996094 Z M 142.769531 16.996094 " fill-opacity="1" fill-rule="evenodd"/><path fill="#dce1de" d="M 143.265625 52.730469 L 141.679688 56.730469 C 141.613281 56.902344 141.695312 57.101562 141.867188 57.167969 C 142.039062 57.238281 142.234375 57.15625 142.304688 56.980469 L 143.890625 52.980469 C 143.957031 52.808594 143.875 52.609375 143.703125 52.539062 C 143.53125 52.472656 143.335938 52.554688 143.265625 52.730469 Z M 143.265625 52.730469 " fill-opacity="1" fill-rule="evenodd"/><path fill="#dce1de" d="M 137.773438 18.210938 C 137.773438 18.210938 140.214844 20.742188 140.941406 21.472656 C 141.070312 21.605469 141.285156 21.605469 141.414062 21.472656 C 141.546875 21.339844 141.546875 21.125 141.414062 20.992188 C 140.691406 20.265625 138.253906 17.738281 138.253906 17.738281 C 138.125 17.605469 137.910156 17.601562 137.777344 17.734375 C 137.648438 17.863281 137.644531 18.078125 137.773438 18.210938 Z M 137.773438 18.210938 " fill-opacity="1" fill-rule="evenodd"/><path fill="#dce1de" d="M 138.269531 53.945312 C 138.269531 53.945312 140.714844 56.476562 141.4375 57.207031 C 141.570312 57.335938 141.78125 57.335938 141.914062 57.207031 C 142.042969 57.074219 142.042969 56.859375 141.914062 56.726562 C 141.191406 56 138.75 53.472656 138.75 53.472656 C 138.621094 53.339844 138.410156 53.335938 138.277344 53.464844 C 138.144531 53.597656 138.140625 53.8125 138.269531 53.945312 Z M 138.269531 53.945312 " fill-opacity="1" fill-rule="evenodd"/><g clip-path="url(#id3)"><path fill="#dce1de" d="M 150.109375 5.519531 C 149.914062 5.171875 149.632812 4.992188 149.304688 4.902344 C 149.160156 4.835938 149.003906 4.785156 148.835938 4.75 C 147.992188 4.558594 146.90625 4.742188 146.21875 4.820312 C 145.695312 4.878906 145.074219 4.902344 144.585938 5.148438 C 144.421875 5.230469 143.636719 5.664062 143.324219 6.058594 C 143.074219 6.375 143.0625 6.6875 143.300781 6.929688 C 143.683594 7.3125 144.023438 7.621094 144.53125 7.925781 C 145.167969 8.3125 146.296875 8.402344 147.015625 8.296875 C 148.695312 8.054688 150.277344 7.695312 150.605469 5.875 C 150.636719 5.691406 150.515625 5.515625 150.332031 5.480469 C 150.253906 5.464844 150.175781 5.480469 150.109375 5.519531 Z M 150.109375 5.519531 " fill-opacity="1" fill-rule="evenodd"/></g><g clip-path="url(#id4)"><path fill="#dce1de" d="M 176.539062 30.308594 C 176.558594 30.421875 176.59375 30.613281 176.613281 30.800781 C 176.792969 32.425781 176.910156 36.199219 176.980469 36.765625 C 177.503906 40.988281 177.742188 45.09375 177.742188 49.417969 C 177.742188 49.765625 177.695312 51.589844 177.585938 52.734375 C 177.558594 53.019531 177.503906 53.316406 177.476562 53.445312 C 177.359375 53.464844 177.105469 53.507812 176.886719 53.519531 C 175.890625 53.582031 174.339844 53.542969 174.082031 53.542969 C 173.894531 53.542969 173.746094 53.695312 173.746094 53.878906 C 173.746094 54.066406 173.894531 54.21875 174.082031 54.21875 C 174.382812 54.21875 176.40625 54.273438 177.335938 54.160156 C 177.53125 54.136719 177.683594 54.105469 177.78125 54.066406 C 177.871094 54.03125 177.933594 53.988281 177.972656 53.949219 C 178.011719 53.910156 178.058594 53.84375 178.09375 53.746094 C 178.132812 53.644531 178.167969 53.476562 178.199219 53.265625 C 178.351562 52.199219 178.414062 49.824219 178.414062 49.417969 C 178.414062 45.0625 178.171875 40.933594 177.644531 36.679688 C 177.574219 36.117188 177.460938 32.347656 177.28125 30.722656 C 177.246094 30.414062 177.207031 30.175781 177.171875 30.042969 C 177.132812 29.910156 177.078125 29.832031 177.039062 29.792969 C 176.996094 29.746094 176.925781 29.699219 176.832031 29.671875 C 176.734375 29.636719 176.578125 29.617188 176.386719 29.613281 C 175.484375 29.59375 173.523438 29.886719 173.128906 29.988281 C 172.949219 30.03125 172.839844 30.21875 172.882812 30.398438 C 172.929688 30.578125 173.113281 30.6875 173.292969 30.644531 C 173.621094 30.558594 175.085938 30.335938 176.019531 30.296875 C 176.207031 30.285156 176.421875 30.296875 176.539062 30.308594 Z M 176.539062 30.308594 " fill-opacity="1" fill-rule="evenodd"/></g><path fill="#dce1de" d="M 141.597656 33.960938 C 141.679688 33.957031 141.902344 33.945312 142.164062 33.9375 C 146.5 33.777344 171.691406 32.980469 173.128906 33.160156 C 173.3125 33.183594 173.480469 33.050781 173.503906 32.867188 C 173.527344 32.679688 173.394531 32.511719 173.210938 32.488281 C 171.769531 32.308594 146.492188 33.097656 142.140625 33.261719 C 141.734375 33.273438 141.503906 33.285156 141.480469 33.289062 C 141.414062 33.296875 141.375 33.320312 141.363281 33.324219 C 141.203125 33.410156 141.183594 33.539062 141.183594 33.617188 C 141.179688 33.707031 141.207031 33.816406 141.324219 33.898438 C 141.328125 33.90625 141.394531 33.964844 141.539062 33.964844 C 141.558594 33.964844 141.578125 33.964844 141.597656 33.960938 Z M 141.726562 33.34375 C 141.683594 33.3125 141.632812 33.292969 141.558594 33.289062 C 141.621094 33.292969 141.679688 33.3125 141.726562 33.34375 Z M 141.726562 33.34375 " fill-opacity="1" fill-rule="evenodd"/><g fill="#dce1de" fill-opacity="1"><g transform="translate(3.724689, 67.629713)"><g><path d="M 23.34375 1.53125 C 22.445312 1.40625 21.425781 1.34375 20.28125 1.34375 L 17.96875 1.390625 C 17.519531 1.421875 16.878906 1.4375 16.046875 1.4375 C 16.015625 1.21875 16 0.882812 16 0.4375 L 15.09375 0.484375 C 14.988281 -1.242188 14.9375 -4.113281 14.9375 -8.125 L 14.84375 -14.03125 C 14.75 -13.769531 14.566406 -13.253906 14.296875 -12.484375 C 14.023438 -11.722656 13.757812 -11.15625 13.5 -10.78125 C 13.238281 -10.414062 13 -10.234375 12.78125 -10.234375 C 12.519531 -10.234375 12.195312 -10.550781 11.8125 -11.1875 C 11.332031 -11.226562 10.757812 -12.046875 10.09375 -13.640625 C 10.0625 -12.867188 10.046875 -11.75 10.046875 -10.28125 C 10.046875 -7.457031 10.203125 -3.613281 10.515625 1.25 C 9.265625 1.4375 7.9375 1.53125 6.53125 1.53125 L 5 1.578125 C 4.226562 1.578125 3.625 1.503906 3.1875 1.359375 C 2.757812 1.222656 2.546875 0.929688 2.546875 0.484375 L 2.3125 0.484375 C 2.050781 0.484375 1.828125 0.289062 1.640625 -0.09375 C 1.566406 -0.289062 1.519531 -1.050781 1.5 -2.375 C 1.488281 -3.707031 1.484375 -5.554688 1.484375 -7.921875 C 1.484375 -16.609375 1.535156 -25.066406 1.640625 -33.296875 C 2.503906 -33.585938 3.476562 -33.734375 4.5625 -33.734375 C 5.175781 -33.734375 5.640625 -33.71875 5.953125 -33.6875 L 7.5 -33.625 C 8.070312 -33.625 8.535156 -33.644531 8.890625 -33.6875 L 9.5625 -32.671875 L 9.84375 -32.71875 C 10.457031 -32.007812 11.132812 -30.566406 11.875 -28.390625 L 12.296875 -27.1875 C 12.523438 -28.25 12.882812 -29.457031 13.375 -30.8125 C 13.875 -32.175781 14.347656 -33.179688 14.796875 -33.828125 C 15.242188 -33.765625 15.628906 -33.734375 15.953125 -33.734375 C 16.523438 -33.734375 17.582031 -33.765625 19.125 -33.828125 C 20.375 -33.921875 21.523438 -33.96875 22.578125 -33.96875 L 22.53125 -33.015625 L 23.546875 -33.015625 C 23.515625 -32.210938 23.5 -30.832031 23.5 -28.875 L 23.546875 -23.828125 C 23.578125 -22.710938 23.59375 -21.015625 23.59375 -18.734375 L 23.59375 -16.953125 C 23.59375 -15.773438 23.5625 -14.878906 23.5 -14.265625 L 23.5 -14.3125 Z M 22.046875 -15.28125 C 22.117188 -15.914062 22.15625 -16.859375 22.15625 -18.109375 L 22.15625 -19.984375 C 22.15625 -22.160156 22.132812 -23.796875 22.09375 -24.890625 L 22.046875 -29.84375 C 22.046875 -31.46875 22.0625 -32.679688 22.09375 -33.484375 C 21.101562 -33.484375 19.984375 -33.4375 18.734375 -33.34375 L 15.765625 -33.25 C 15.316406 -33.25 15.054688 -33.265625 14.984375 -33.296875 C 14.703125 -32.910156 14.382812 -32.210938 14.03125 -31.203125 C 13.675781 -30.191406 13.351562 -29.207031 13.0625 -28.25 C 12.875 -27.613281 12.691406 -27.035156 12.515625 -26.515625 C 12.335938 -26.003906 12.21875 -25.765625 12.15625 -25.796875 C 11.96875 -25.796875 11.742188 -26.082031 11.484375 -26.65625 C 11.222656 -27.238281 10.835938 -28.1875 10.328125 -29.5 C 10.035156 -30.300781 9.742188 -31.0625 9.453125 -31.78125 C 9.171875 -32.5 8.921875 -32.972656 8.703125 -33.203125 L 8.640625 -33.203125 C 8.296875 -33.171875 7.738281 -33.15625 6.96875 -33.15625 L 5.234375 -33.203125 L 4.46875 -33.203125 C 3.40625 -33.203125 2.617188 -33.117188 2.109375 -32.953125 C 2.015625 -24.753906 1.96875 -16.410156 1.96875 -7.921875 C 1.96875 -4.523438 1.988281 -2.351562 2.03125 -1.40625 C 2.082031 -0.46875 2.175781 0 2.3125 0 L 5.90625 0.046875 C 7.125 0.046875 8.164062 -0.015625 9.03125 -0.140625 C 8.738281 -4.523438 8.59375 -8.226562 8.59375 -11.25 C 8.59375 -13.644531 8.691406 -16.015625 8.890625 -18.359375 L 9.03125 -17.875 L 9.421875 -16.859375 C 9.929688 -15.390625 10.394531 -14.15625 10.8125 -13.15625 C 11.226562 -12.164062 11.582031 -11.671875 11.875 -11.671875 C 12 -11.671875 12.21875 -12.054688 12.53125 -12.828125 C 12.851562 -13.597656 13.175781 -14.429688 13.5 -15.328125 C 14.207031 -17.179688 14.671875 -18.300781 14.890625 -18.6875 C 15.179688 -16.09375 15.359375 -12.023438 15.421875 -6.484375 C 15.421875 -5.742188 15.4375 -4.691406 15.46875 -3.328125 C 15.5 -1.972656 15.53125 -0.863281 15.5625 0 L 18.59375 -0.046875 L 20.328125 -0.046875 C 20.679688 -0.046875 21.207031 -0.015625 21.90625 0.046875 Z M 22.046875 -15.28125 "/></g></g></g><g fill="#dce1de" fill-opacity="1"><g transform="translate(27.789185, 67.629713)"><g><path d="M 8.703125 -34.015625 L 9.65625 -34.015625 L 9.703125 -31.421875 C 9.765625 -29.566406 9.796875 -28.175781 9.796875 -27.25 C 9.441406 -26.695312 8.675781 -26.421875 7.5 -26.421875 C 7.207031 -26.421875 6.582031 -26.453125 5.625 -26.515625 L 5.671875 -26.515625 L 4.03125 -26.5625 C 3.394531 -26.5625 2.835938 -26.546875 2.359375 -26.515625 L 2.359375 -27.53125 L 1.390625 -27.484375 C 1.390625 -28.085938 1.359375 -29 1.296875 -30.21875 C 1.234375 -31.695312 1.203125 -32.992188 1.203125 -34.109375 L 1.203125 -35.125 L 8.703125 -34.984375 Z M 1.6875 -33.875 C 1.6875 -32.882812 1.71875 -31.710938 1.78125 -30.359375 C 1.84375 -29.273438 1.875 -28.492188 1.875 -28.015625 L 2.6875 -28.015625 C 3.164062 -28.015625 3.851562 -27.984375 4.75 -27.921875 L 6.484375 -27.859375 C 7.546875 -27.859375 8.171875 -28.019531 8.359375 -28.34375 C 8.359375 -29.375 8.328125 -30.785156 8.265625 -32.578125 C 8.234375 -33.148438 8.21875 -33.789062 8.21875 -34.5 L 1.6875 -34.640625 Z M 8.890625 -23.59375 L 9.84375 -23.453125 C 9.84375 -21.617188 9.8125 -18.847656 9.75 -15.140625 C 9.65625 -12.347656 9.609375 -9.492188 9.609375 -6.578125 C 9.609375 -3.734375 9.671875 -1.269531 9.796875 0.8125 C 9.546875 1.070312 9.195312 1.25 8.75 1.34375 C 8.300781 1.4375 7.722656 1.484375 7.015625 1.484375 C 6.085938 1.484375 5.382812 1.46875 4.90625 1.4375 L 4.953125 1.4375 L 3.796875 1.390625 C 3.085938 1.390625 2.492188 1.472656 2.015625 1.640625 C 2.015625 1.410156 2.046875 1.007812 2.109375 0.4375 C 1.628906 0.5 1.28125 0.578125 1.0625 0.671875 C 1.21875 -1.472656 1.296875 -3.679688 1.296875 -5.953125 C 1.296875 -7.234375 1.265625 -9.15625 1.203125 -11.71875 C 1.140625 -14.28125 1.109375 -16.234375 1.109375 -17.578125 C 1.109375 -19.828125 1.21875 -22.179688 1.4375 -24.640625 C 1.664062 -24.640625 1.828125 -24.660156 1.921875 -24.703125 L 2.6875 -24.796875 C 2.945312 -24.796875 3.4375 -24.769531 4.15625 -24.71875 C 4.875 -24.664062 5.648438 -24.640625 6.484375 -24.640625 L 7.59375 -24.640625 L 8.890625 -24.40625 Z M 6.484375 -24.171875 C 5.429688 -24.171875 4.421875 -24.203125 3.453125 -24.265625 L 2.0625 -24.3125 L 1.875 -24.3125 L 1.875 -24.265625 C 1.675781 -22.566406 1.578125 -20.375 1.578125 -17.6875 C 1.578125 -16.46875 1.613281 -14.546875 1.6875 -11.921875 C 1.75 -9.285156 1.78125 -7.28125 1.78125 -5.90625 C 1.78125 -3.726562 1.710938 -1.757812 1.578125 0 C 1.648438 -0.03125 1.910156 -0.046875 2.359375 -0.046875 C 3.023438 -0.046875 3.566406 -0.03125 3.984375 0 L 6.15625 0.046875 C 6.851562 0.046875 7.367188 0.03125 7.703125 0 C 8.046875 -0.03125 8.265625 -0.125 8.359375 -0.28125 C 8.234375 -2.5625 8.171875 -5.144531 8.171875 -8.03125 C 8.171875 -11.164062 8.21875 -14.269531 8.3125 -17.34375 C 8.375 -20.351562 8.40625 -22.578125 8.40625 -24.015625 L 8.40625 -24.171875 Z M 6.484375 -24.171875 "/></g></g></g><g fill="#dce1de" fill-opacity="1"><g transform="translate(37.731998, 67.629713)"><g><path d="M 9.46875 -22.828125 C 11.03125 -23.785156 12.726562 -24.265625 14.5625 -24.265625 C 15.582031 -24.265625 16.570312 -24.085938 17.53125 -23.734375 C 18.5 -23.378906 19.222656 -22.832031 19.703125 -22.09375 L 20.28125 -21.671875 C 21.113281 -21.023438 21.53125 -18.332031 21.53125 -13.59375 C 21.53125 -12.34375 21.492188 -10.46875 21.421875 -7.96875 C 21.359375 -5.539062 21.328125 -3.765625 21.328125 -2.640625 C 21.328125 -1.359375 21.359375 -0.046875 21.421875 1.296875 C 20.273438 1.453125 18.929688 1.53125 17.390625 1.53125 L 14.515625 1.53125 C 14.484375 1.3125 14.46875 0.992188 14.46875 0.578125 L 13.546875 0.578125 C 13.453125 -0.410156 13.40625 -2.347656 13.40625 -5.234375 L 13.40625 -7.640625 C 13.40625 -9.492188 13.375 -10.929688 13.3125 -11.953125 C 13.25 -12.984375 13.070312 -13.851562 12.78125 -14.5625 C 12.519531 -14.65625 12.179688 -14.703125 11.765625 -14.703125 C 10.804688 -14.703125 10.140625 -14.378906 9.765625 -13.734375 C 9.398438 -13.097656 9.21875 -11.867188 9.21875 -10.046875 C 9.21875 -9.179688 9.253906 -7.976562 9.328125 -6.4375 C 9.390625 -4.832031 9.421875 -3.664062 9.421875 -2.9375 C 9.421875 -1.550781 9.351562 -0.347656 9.21875 0.671875 L 9.21875 1.203125 C 8.101562 1.492188 7.175781 1.640625 6.4375 1.640625 C 5.988281 1.640625 5.632812 1.617188 5.375 1.578125 L 4.234375 1.53125 L 3.703125 1.53125 C 3.222656 1.53125 2.757812 1.566406 2.3125 1.640625 L 2.3125 0.578125 L 1.34375 0.671875 L 1.296875 -8.40625 C 1.234375 -12.445312 1.203125 -15.503906 1.203125 -17.578125 C 1.203125 -19.273438 1.234375 -21.566406 1.296875 -24.453125 C 2.066406 -24.359375 2.785156 -24.3125 3.453125 -24.3125 C 3.710938 -24.3125 4.140625 -24.359375 4.734375 -24.453125 C 5.328125 -24.546875 6.132812 -24.59375 7.15625 -24.59375 C 8.019531 -24.59375 8.46875 -24.398438 8.5 -24.015625 C 8.5 -23.828125 8.648438 -23.660156 8.953125 -23.515625 C 9.265625 -23.367188 9.4375 -23.21875 9.46875 -23.0625 Z M 7.453125 -24.171875 C 6.554688 -24.171875 5.546875 -24.085938 4.421875 -23.921875 C 3.910156 -23.859375 3.585938 -23.828125 3.453125 -23.828125 L 2.875 -23.828125 C 2.46875 -23.828125 2.101562 -23.859375 1.78125 -23.921875 C 1.71875 -22.929688 1.6875 -21.476562 1.6875 -19.5625 L 1.6875 -16.625 C 1.6875 -14.664062 1.71875 -11.832031 1.78125 -8.125 L 1.828125 0.140625 C 2.210938 0.109375 2.722656 0.09375 3.359375 0.09375 L 5.671875 0.140625 C 6.335938 0.140625 7.039062 0.046875 7.78125 -0.140625 L 7.78125 -0.34375 C 7.90625 -1.394531 7.96875 -2.578125 7.96875 -3.890625 C 7.96875 -4.722656 7.9375 -5.941406 7.875 -7.546875 C 7.8125 -9.148438 7.78125 -10.363281 7.78125 -11.1875 C 7.78125 -13.113281 8.019531 -14.421875 8.5 -15.109375 C 8.976562 -15.796875 9.75 -16.140625 10.8125 -16.140625 C 11.96875 -16.140625 12.710938 -15.796875 13.046875 -15.109375 C 13.378906 -14.421875 13.578125 -13.648438 13.640625 -12.796875 C 13.703125 -11.953125 13.753906 -11.367188 13.796875 -11.046875 C 13.859375 -10.566406 13.890625 -9.800781 13.890625 -8.75 L 13.890625 -1.96875 C 13.890625 -1.007812 13.921875 -0.320312 13.984375 0.09375 L 16.765625 0.140625 C 17.921875 0.140625 18.992188 0.0625 19.984375 -0.09375 C 19.921875 -1.3125 19.890625 -2.320312 19.890625 -3.125 C 19.890625 -4.238281 19.921875 -6.046875 19.984375 -8.546875 C 20.046875 -11.171875 20.078125 -13.09375 20.078125 -14.3125 C 20.078125 -16.53125 20 -18.316406 19.84375 -19.671875 C 19.6875 -21.035156 19.398438 -21.910156 18.984375 -22.296875 C 17.890625 -23.285156 16.398438 -23.78125 14.515625 -23.78125 C 13.484375 -23.78125 12.566406 -23.617188 11.765625 -23.296875 C 10.960938 -22.984375 10.207031 -22.625 9.5 -22.21875 C 8.800781 -21.820312 8.34375 -21.554688 8.125 -21.421875 L 8.171875 -22.53125 C 8.171875 -23.625 7.929688 -24.171875 7.453125 -24.171875 Z M 7.453125 -24.171875 "/></g></g></g><g fill="#dce1de" fill-opacity="1"><g transform="translate(59.34682, 67.629713)"><g><path d="M 8.703125 -34.015625 L 9.65625 -34.015625 L 9.703125 -31.421875 C 9.765625 -29.566406 9.796875 -28.175781 9.796875 -27.25 C 9.441406 -26.695312 8.675781 -26.421875 7.5 -26.421875 C 7.207031 -26.421875 6.582031 -26.453125 5.625 -26.515625 L 5.671875 -26.515625 L 4.03125 -26.5625 C 3.394531 -26.5625 2.835938 -26.546875 2.359375 -26.515625 L 2.359375 -27.53125 L 1.390625 -27.484375 C 1.390625 -28.085938 1.359375 -29 1.296875 -30.21875 C 1.234375 -31.695312 1.203125 -32.992188 1.203125 -34.109375 L 1.203125 -35.125 L 8.703125 -34.984375 Z M 1.6875 -33.875 C 1.6875 -32.882812 1.71875 -31.710938 1.78125 -30.359375 C 1.84375 -29.273438 1.875 -28.492188 1.875 -28.015625 L 2.6875 -28.015625 C 3.164062 -28.015625 3.851562 -27.984375 4.75 -27.921875 L 6.484375 -27.859375 C 7.546875 -27.859375 8.171875 -28.019531 8.359375 -28.34375 C 8.359375 -29.375 8.328125 -30.785156 8.265625 -32.578125 C 8.234375 -33.148438 8.21875 -33.789062 8.21875 -34.5 L 1.6875 -34.640625 Z M 8.890625 -23.59375 L 9.84375 -23.453125 C 9.84375 -21.617188 9.8125 -18.847656 9.75 -15.140625 C 9.65625 -12.347656 9.609375 -9.492188 9.609375 -6.578125 C 9.609375 -3.734375 9.671875 -1.269531 9.796875 0.8125 C 9.546875 1.070312 9.195312 1.25 8.75 1.34375 C 8.300781 1.4375 7.722656 1.484375 7.015625 1.484375 C 6.085938 1.484375 5.382812 1.46875 4.90625 1.4375 L 4.953125 1.4375 L 3.796875 1.390625 C 3.085938 1.390625 2.492188 1.472656 2.015625 1.640625 C 2.015625 1.410156 2.046875 1.007812 2.109375 0.4375 C 1.628906 0.5 1.28125 0.578125 1.0625 0.671875 C 1.21875 -1.472656 1.296875 -3.679688 1.296875 -5.953125 C 1.296875 -7.234375 1.265625 -9.15625 1.203125 -11.71875 C 1.140625 -14.28125 1.109375 -16.234375 1.109375 -17.578125 C 1.109375 -19.828125 1.21875 -22.179688 1.4375 -24.640625 C 1.664062 -24.640625 1.828125 -24.660156 1.921875 -24.703125 L 2.6875 -24.796875 C 2.945312 -24.796875 3.4375 -24.769531 4.15625 -24.71875 C 4.875 -24.664062 5.648438 -24.640625 6.484375 -24.640625 L 7.59375 -24.640625 L 8.890625 -24.40625 Z M 6.484375 -24.171875 C 5.429688 -24.171875 4.421875 -24.203125 3.453125 -24.265625 L 2.0625 -24.3125 L 1.875 -24.3125 L 1.875 -24.265625 C 1.675781 -22.566406 1.578125 -20.375 1.578125 -17.6875 C 1.578125 -16.46875 1.613281 -14.546875 1.6875 -11.921875 C 1.75 -9.285156 1.78125 -7.28125 1.78125 -5.90625 C 1.78125 -3.726562 1.710938 -1.757812 1.578125 0 C 1.648438 -0.03125 1.910156 -0.046875 2.359375 -0.046875 C 3.023438 -0.046875 3.566406 -0.03125 3.984375 0 L 6.15625 0.046875 C 6.851562 0.046875 7.367188 0.03125 7.703125 0 C 8.046875 -0.03125 8.265625 -0.125 8.359375 -0.28125 C 8.234375 -2.5625 8.171875 -5.144531 8.171875 -8.03125 C 8.171875 -11.164062 8.21875 -14.269531 8.3125 -17.34375 C 8.375 -20.351562 8.40625 -22.578125 8.40625 -24.015625 L 8.40625 -24.171875 Z M 6.484375 -24.171875 "/></g></g></g><g fill="#dce1de" fill-opacity="1"><g transform="translate(69.289634, 67.629713)"><g><path d="M 8.640625 -23.015625 C 8.773438 -22.367188 9.097656 -20.414062 9.609375 -17.15625 C 10.023438 -14.425781 10.394531 -12.210938 10.71875 -10.515625 L 11.625 -15.03125 C 12.394531 -19.363281 13.117188 -22.457031 13.796875 -24.3125 C 14.429688 -24.3125 15.328125 -24.34375 16.484375 -24.40625 C 17.628906 -24.46875 18.523438 -24.5 19.171875 -24.5 L 19.84375 -24.5 C 20.382812 -24.5 20.847656 -24.46875 21.234375 -24.40625 L 20.90625 -23.546875 C 21.0625 -23.546875 21.492188 -23.515625 22.203125 -23.453125 C 21.367188 -21.234375 20.671875 -19.019531 20.109375 -16.8125 C 19.546875 -14.601562 18.910156 -11.785156 18.203125 -8.359375 C 18.078125 -7.816406 17.789062 -6.503906 17.34375 -4.421875 C 16.894531 -2.335938 16.414062 -0.382812 15.90625 1.4375 C 14.945312 1.601562 13.664062 1.6875 12.0625 1.6875 L 8.84375 1.640625 C 8.164062 1.597656 7.234375 1.578125 6.046875 1.578125 L 5.90625 0.625 L 5.09375 0.625 C 3.550781 -8.945312 1.804688 -17.367188 -0.140625 -24.640625 C 0.847656 -24.484375 1.648438 -24.40625 2.265625 -24.40625 C 2.992188 -24.40625 3.550781 -24.421875 3.9375 -24.453125 C 4.164062 -24.453125 4.640625 -24.453125 5.359375 -24.453125 C 6.078125 -24.453125 6.707031 -24.421875 7.25 -24.359375 L 7.6875 -23.96875 C 7.6875 -23.71875 7.71875 -23.5625 7.78125 -23.5 C 7.84375 -23.4375 7.988281 -23.40625 8.21875 -23.40625 Z M 2.546875 -23.921875 L 1.734375 -23.921875 C 1.210938 -23.921875 0.8125 -23.953125 0.53125 -24.015625 C 2.320312 -17.453125 3.988281 -9.398438 5.53125 0.140625 C 6.519531 0.140625 7.300781 0.15625 7.875 0.1875 L 11 0.234375 C 12.476562 0.234375 13.664062 0.171875 14.5625 0.046875 C 15.257812 -2.546875 16.007812 -5.78125 16.8125 -9.65625 C 17.488281 -12.894531 18.097656 -15.59375 18.640625 -17.75 C 19.179688 -19.914062 19.820312 -21.988281 20.5625 -23.96875 L 19.078125 -24.015625 C 18.429688 -24.015625 17.566406 -23.984375 16.484375 -23.921875 C 15.453125 -23.859375 14.664062 -23.828125 14.125 -23.828125 C 13.800781 -23.023438 13.507812 -22.046875 13.25 -20.890625 C 13 -19.742188 12.757812 -18.601562 12.53125 -17.46875 C 12.3125 -16.332031 12.171875 -15.585938 12.109375 -15.234375 C 11.429688 -11.328125 10.851562 -8.734375 10.375 -7.453125 C 9.957031 -8.597656 9.582031 -10.066406 9.25 -11.859375 C 8.914062 -13.660156 8.539062 -15.859375 8.125 -18.453125 C 7.894531 -20.015625 7.585938 -21.820312 7.203125 -23.875 C 6.367188 -23.9375 5.742188 -23.96875 5.328125 -23.96875 Z M 2.546875 -23.921875 "/></g></g></g><g fill="#dce1de" fill-opacity="1"><g transform="translate(89.895763, 67.629713)"><g><path d="M 22.53125 -23.015625 C 22.59375 -22.503906 22.625 -22.101562 22.625 -21.8125 L 22.625 -21.328125 C 22.59375 -20.460938 22.578125 -19.210938 22.578125 -17.578125 L 22.625 -12.203125 C 22.65625 -10.984375 22.671875 -9.175781 22.671875 -6.78125 C 22.671875 -4.882812 22.625 -2.941406 22.53125 -0.953125 L 22.53125 -0.625 C 22.53125 0.0507812 22.484375 0.546875 22.390625 0.859375 C 22.296875 1.179688 22.007812 1.390625 21.53125 1.484375 L 20.859375 1.484375 C 20.398438 1.484375 19.820312 1.453125 19.125 1.390625 L 17.734375 1.34375 C 17.503906 1.34375 17.164062 1.375 16.71875 1.4375 L 15.65625 1.484375 C 15.144531 1.359375 14.8125 1.039062 14.65625 0.53125 C 14.238281 0.363281 13.984375 0.1875 13.890625 0 C 12.222656 1.019531 10.570312 1.53125 8.9375 1.53125 C 7.238281 1.53125 5.738281 0.796875 4.4375 -0.671875 C 3.144531 -2.140625 2.15625 -3.988281 1.46875 -6.21875 C 0.78125 -8.445312 0.4375 -10.632812 0.4375 -12.78125 C 0.4375 -15.21875 0.851562 -17.304688 1.6875 -19.046875 C 2.519531 -20.796875 3.660156 -22.117188 5.109375 -23.015625 C 6.566406 -23.910156 8.210938 -24.359375 10.046875 -24.359375 C 10.941406 -24.359375 11.632812 -24.289062 12.125 -24.15625 C 12.625 -24.03125 13.082031 -23.710938 13.5 -23.203125 C 13.53125 -23.367188 13.5625 -23.625 13.59375 -23.96875 C 13.625 -24.320312 13.703125 -24.546875 13.828125 -24.640625 C 13.960938 -24.742188 14.175781 -24.796875 14.46875 -24.796875 C 14.75 -24.796875 15.007812 -24.769531 15.25 -24.71875 C 15.488281 -24.664062 15.722656 -24.640625 15.953125 -24.640625 L 16.390625 -24.640625 C 17.222656 -24.640625 18.804688 -24.5625 21.140625 -24.40625 L 21.578125 -23.96875 L 21.625 -23.453125 L 22.09375 -23.453125 Z M 15.859375 -24.171875 L 14.5625 -24.21875 C 14.238281 -24.21875 14.046875 -24.015625 13.984375 -23.609375 C 13.921875 -23.210938 13.890625 -22.644531 13.890625 -21.90625 L 13.890625 -21.671875 C 13.597656 -22.367188 13.226562 -22.878906 12.78125 -23.203125 C 12.332031 -23.523438 11.832031 -23.71875 11.28125 -23.78125 C 10.738281 -23.84375 9.972656 -23.875 8.984375 -23.875 C 7.472656 -23.84375 6.101562 -23.335938 4.875 -22.359375 C 3.644531 -21.390625 2.675781 -20.070312 1.96875 -18.40625 C 1.257812 -16.738281 0.90625 -14.863281 0.90625 -12.78125 C 0.90625 -10.894531 1.160156 -8.957031 1.671875 -6.96875 C 2.191406 -4.976562 2.988281 -3.300781 4.0625 -1.9375 C 5.132812 -0.582031 6.4375 0.09375 7.96875 0.09375 C 9.0625 0.09375 10.191406 -0.164062 11.359375 -0.6875 C 12.523438 -1.21875 13.507812 -1.882812 14.3125 -2.6875 C 14.3125 -2.5 14.28125 -2.234375 14.21875 -1.890625 C 14.15625 -1.554688 14.125 -1.265625 14.125 -1.015625 C 14.125 -0.460938 14.316406 -0.109375 14.703125 0.046875 C 14.960938 0.046875 15.316406 0.015625 15.765625 -0.046875 L 16.765625 -0.09375 L 18.359375 -0.046875 C 19.054688 0.015625 19.566406 0.046875 19.890625 0.046875 L 20.46875 0.046875 C 20.726562 -0.015625 20.894531 -0.148438 20.96875 -0.359375 C 21.050781 -0.566406 21.09375 -0.863281 21.09375 -1.25 L 21.09375 -1.921875 C 21.21875 -3.804688 21.28125 -5.90625 21.28125 -8.21875 L 21.234375 -13.5 C 21.171875 -15.875 21.140625 -17.664062 21.140625 -18.875 C 21.140625 -20.382812 21.15625 -21.523438 21.1875 -22.296875 L 21.1875 -22.78125 C 21.1875 -23.03125 21.15625 -23.410156 21.09375 -23.921875 C 20.195312 -23.984375 18.628906 -24.066406 16.390625 -24.171875 Z M 11.578125 -17.4375 C 12.378906 -17.4375 12.945312 -17.363281 13.28125 -17.21875 C 13.625 -17.082031 13.84375 -16.78125 13.9375 -16.3125 C 14.03125 -15.84375 14.078125 -15.066406 14.078125 -13.984375 L 14.078125 -11.34375 C 14.078125 -10.1875 14.019531 -9.285156 13.90625 -8.640625 C 13.789062 -8.003906 13.515625 -7.507812 13.078125 -7.15625 C 12.648438 -6.800781 11.988281 -6.625 11.09375 -6.625 C 9.78125 -6.625 8.738281 -7.117188 7.96875 -8.109375 C 7.207031 -9.109375 6.828125 -10.34375 6.828125 -11.8125 C 6.828125 -12.875 6.921875 -13.722656 7.109375 -14.359375 C 7.304688 -15.222656 7.785156 -15.953125 8.546875 -16.546875 C 9.316406 -17.140625 10.328125 -17.4375 11.578125 -17.4375 Z M 8.546875 -13.265625 C 8.359375 -12.617188 8.265625 -11.816406 8.265625 -10.859375 C 8.265625 -8.359375 9.207031 -7.109375 11.09375 -7.109375 C 11.894531 -7.109375 12.472656 -7.285156 12.828125 -7.640625 C 13.179688 -7.992188 13.394531 -8.472656 13.46875 -9.078125 C 13.550781 -9.691406 13.59375 -10.625 13.59375 -11.875 L 13.59375 -13.109375 L 13.640625 -14.5625 C 13.640625 -15.070312 13.566406 -15.4375 13.421875 -15.65625 C 13.285156 -15.882812 12.992188 -16 12.546875 -16 C 11.421875 -16 10.519531 -15.742188 9.84375 -15.234375 C 9.175781 -14.722656 8.742188 -14.082031 8.546875 -13.3125 Z M 8.546875 -13.265625 "/></g></g></g><g fill="#dce1de" fill-opacity="1"><g transform="translate(112.759442, 67.629713)"><g><path d="M 9.46875 -22.828125 C 11.03125 -23.785156 12.726562 -24.265625 14.5625 -24.265625 C 15.582031 -24.265625 16.570312 -24.085938 17.53125 -23.734375 C 18.5 -23.378906 19.222656 -22.832031 19.703125 -22.09375 L 20.28125 -21.671875 C 21.113281 -21.023438 21.53125 -18.332031 21.53125 -13.59375 C 21.53125 -12.34375 21.492188 -10.46875 21.421875 -7.96875 C 21.359375 -5.539062 21.328125 -3.765625 21.328125 -2.640625 C 21.328125 -1.359375 21.359375 -0.046875 21.421875 1.296875 C 20.273438 1.453125 18.929688 1.53125 17.390625 1.53125 L 14.515625 1.53125 C 14.484375 1.3125 14.46875 0.992188 14.46875 0.578125 L 13.546875 0.578125 C 13.453125 -0.410156 13.40625 -2.347656 13.40625 -5.234375 L 13.40625 -7.640625 C 13.40625 -9.492188 13.375 -10.929688 13.3125 -11.953125 C 13.25 -12.984375 13.070312 -13.851562 12.78125 -14.5625 C 12.519531 -14.65625 12.179688 -14.703125 11.765625 -14.703125 C 10.804688 -14.703125 10.140625 -14.378906 9.765625 -13.734375 C 9.398438 -13.097656 9.21875 -11.867188 9.21875 -10.046875 C 9.21875 -9.179688 9.253906 -7.976562 9.328125 -6.4375 C 9.390625 -4.832031 9.421875 -3.664062 9.421875 -2.9375 C 9.421875 -1.550781 9.351562 -0.347656 9.21875 0.671875 L 9.21875 1.203125 C 8.101562 1.492188 7.175781 1.640625 6.4375 1.640625 C 5.988281 1.640625 5.632812 1.617188 5.375 1.578125 L 4.234375 1.53125 L 3.703125 1.53125 C 3.222656 1.53125 2.757812 1.566406 2.3125 1.640625 L 2.3125 0.578125 L 1.34375 0.671875 L 1.296875 -8.40625 C 1.234375 -12.445312 1.203125 -15.503906 1.203125 -17.578125 C 1.203125 -19.273438 1.234375 -21.566406 1.296875 -24.453125 C 2.066406 -24.359375 2.785156 -24.3125 3.453125 -24.3125 C 3.710938 -24.3125 4.140625 -24.359375 4.734375 -24.453125 C 5.328125 -24.546875 6.132812 -24.59375 7.15625 -24.59375 C 8.019531 -24.59375 8.46875 -24.398438 8.5 -24.015625 C 8.5 -23.828125 8.648438 -23.660156 8.953125 -23.515625 C 9.265625 -23.367188 9.4375 -23.21875 9.46875 -23.0625 Z M 7.453125 -24.171875 C 6.554688 -24.171875 5.546875 -24.085938 4.421875 -23.921875 C 3.910156 -23.859375 3.585938 -23.828125 3.453125 -23.828125 L 2.875 -23.828125 C 2.46875 -23.828125 2.101562 -23.859375 1.78125 -23.921875 C 1.71875 -22.929688 1.6875 -21.476562 1.6875 -19.5625 L 1.6875 -16.625 C 1.6875 -14.664062 1.71875 -11.832031 1.78125 -8.125 L 1.828125 0.140625 C 2.210938 0.109375 2.722656 0.09375 3.359375 0.09375 L 5.671875 0.140625 C 6.335938 0.140625 7.039062 0.046875 7.78125 -0.140625 L 7.78125 -0.34375 C 7.90625 -1.394531 7.96875 -2.578125 7.96875 -3.890625 C 7.96875 -4.722656 7.9375 -5.941406 7.875 -7.546875 C 7.8125 -9.148438 7.78125 -10.363281 7.78125 -11.1875 C 7.78125 -13.113281 8.019531 -14.421875 8.5 -15.109375 C 8.976562 -15.796875 9.75 -16.140625 10.8125 -16.140625 C 11.96875 -16.140625 12.710938 -15.796875 13.046875 -15.109375 C 13.378906 -14.421875 13.578125 -13.648438 13.640625 -12.796875 C 13.703125 -11.953125 13.753906 -11.367188 13.796875 -11.046875 C 13.859375 -10.566406 13.890625 -9.800781 13.890625 -8.75 L 13.890625 -1.96875 C 13.890625 -1.007812 13.921875 -0.320312 13.984375 0.09375 L 16.765625 0.140625 C 17.921875 0.140625 18.992188 0.0625 19.984375 -0.09375 C 19.921875 -1.3125 19.890625 -2.320312 19.890625 -3.125 C 19.890625 -4.238281 19.921875 -6.046875 19.984375 -8.546875 C 20.046875 -11.171875 20.078125 -13.09375 20.078125 -14.3125 C 20.078125 -16.53125 20 -18.316406 19.84375 -19.671875 C 19.6875 -21.035156 19.398438 -21.910156 18.984375 -22.296875 C 17.890625 -23.285156 16.398438 -23.78125 14.515625 -23.78125 C 13.484375 -23.78125 12.566406 -23.617188 11.765625 -23.296875 C 10.960938 -22.984375 10.207031 -22.625 9.5 -22.21875 C 8.800781 -21.820312 8.34375 -21.554688 8.125 -21.421875 L 8.171875 -22.53125 C 8.171875 -23.625 7.929688 -24.171875 7.453125 -24.171875 Z M 7.453125 -24.171875 "/></g></g></g><g fill="#dce1de" fill-opacity="1"><g transform="translate(177.200651, 67.629713)"><g><path d="M 22.53125 -23.015625 C 22.59375 -22.503906 22.625 -22.101562 22.625 -21.8125 L 22.625 -21.328125 C 22.59375 -20.460938 22.578125 -19.210938 22.578125 -17.578125 L 22.625 -12.203125 C 22.65625 -10.984375 22.671875 -9.175781 22.671875 -6.78125 C 22.671875 -4.882812 22.625 -2.941406 22.53125 -0.953125 L 22.53125 -0.625 C 22.53125 0.0507812 22.484375 0.546875 22.390625 0.859375 C 22.296875 1.179688 22.007812 1.390625 21.53125 1.484375 L 20.859375 1.484375 C 20.398438 1.484375 19.820312 1.453125 19.125 1.390625 L 17.734375 1.34375 C 17.503906 1.34375 17.164062 1.375 16.71875 1.4375 L 15.65625 1.484375 C 15.144531 1.359375 14.8125 1.039062 14.65625 0.53125 C 14.238281 0.363281 13.984375 0.1875 13.890625 0 C 12.222656 1.019531 10.570312 1.53125 8.9375 1.53125 C 7.238281 1.53125 5.738281 0.796875 4.4375 -0.671875 C 3.144531 -2.140625 2.15625 -3.988281 1.46875 -6.21875 C 0.78125 -8.445312 0.4375 -10.632812 0.4375 -12.78125 C 0.4375 -15.21875 0.851562 -17.304688 1.6875 -19.046875 C 2.519531 -20.796875 3.660156 -22.117188 5.109375 -23.015625 C 6.566406 -23.910156 8.210938 -24.359375 10.046875 -24.359375 C 10.941406 -24.359375 11.632812 -24.289062 12.125 -24.15625 C 12.625 -24.03125 13.082031 -23.710938 13.5 -23.203125 C 13.53125 -23.367188 13.5625 -23.625 13.59375 -23.96875 C 13.625 -24.320312 13.703125 -24.546875 13.828125 -24.640625 C 13.960938 -24.742188 14.175781 -24.796875 14.46875 -24.796875 C 14.75 -24.796875 15.007812 -24.769531 15.25 -24.71875 C 15.488281 -24.664062 15.722656 -24.640625 15.953125 -24.640625 L 16.390625 -24.640625 C 17.222656 -24.640625 18.804688 -24.5625 21.140625 -24.40625 L 21.578125 -23.96875 L 21.625 -23.453125 L 22.09375 -23.453125 Z M 15.859375 -24.171875 L 14.5625 -24.21875 C 14.238281 -24.21875 14.046875 -24.015625 13.984375 -23.609375 C 13.921875 -23.210938 13.890625 -22.644531 13.890625 -21.90625 L 13.890625 -21.671875 C 13.597656 -22.367188 13.226562 -22.878906 12.78125 -23.203125 C 12.332031 -23.523438 11.832031 -23.71875 11.28125 -23.78125 C 10.738281 -23.84375 9.972656 -23.875 8.984375 -23.875 C 7.472656 -23.84375 6.101562 -23.335938 4.875 -22.359375 C 3.644531 -21.390625 2.675781 -20.070312 1.96875 -18.40625 C 1.257812 -16.738281 0.90625 -14.863281 0.90625 -12.78125 C 0.90625 -10.894531 1.160156 -8.957031 1.671875 -6.96875 C 2.191406 -4.976562 2.988281 -3.300781 4.0625 -1.9375 C 5.132812 -0.582031 6.4375 0.09375 7.96875 0.09375 C 9.0625 0.09375 10.191406 -0.164062 11.359375 -0.6875 C 12.523438 -1.21875 13.507812 -1.882812 14.3125 -2.6875 C 14.3125 -2.5 14.28125 -2.234375 14.21875 -1.890625 C 14.15625 -1.554688 14.125 -1.265625 14.125 -1.015625 C 14.125 -0.460938 14.316406 -0.109375 14.703125 0.046875 C 14.960938 0.046875 15.316406 0.015625 15.765625 -0.046875 L 16.765625 -0.09375 L 18.359375 -0.046875 C 19.054688 0.015625 19.566406 0.046875 19.890625 0.046875 L 20.46875 0.046875 C 20.726562 -0.015625 20.894531 -0.148438 20.96875 -0.359375 C 21.050781 -0.566406 21.09375 -0.863281 21.09375 -1.25 L 21.09375 -1.921875 C 21.21875 -3.804688 21.28125 -5.90625 21.28125 -8.21875 L 21.234375 -13.5 C 21.171875 -15.875 21.140625 -17.664062 21.140625 -18.875 C 21.140625 -20.382812 21.15625 -21.523438 21.1875 -22.296875 L 21.1875 -22.78125 C 21.1875 -23.03125 21.15625 -23.410156 21.09375 -23.921875 C 20.195312 -23.984375 18.628906 -24.066406 16.390625 -24.171875 Z M 11.578125 -17.4375 C 12.378906 -17.4375 12.945312 -17.363281 13.28125 -17.21875 C 13.625 -17.082031 13.84375 -16.78125 13.9375 -16.3125 C 14.03125 -15.84375 14.078125 -15.066406 14.078125 -13.984375 L 14.078125 -11.34375 C 14.078125 -10.1875 14.019531 -9.285156 13.90625 -8.640625 C 13.789062 -8.003906 13.515625 -7.507812 13.078125 -7.15625 C 12.648438 -6.800781 11.988281 -6.625 11.09375 -6.625 C 9.78125 -6.625 8.738281 -7.117188 7.96875 -8.109375 C 7.207031 -9.109375 6.828125 -10.34375 6.828125 -11.8125 C 6.828125 -12.875 6.921875 -13.722656 7.109375 -14.359375 C 7.304688 -15.222656 7.785156 -15.953125 8.546875 -16.546875 C 9.316406 -17.140625 10.328125 -17.4375 11.578125 -17.4375 Z M 8.546875 -13.265625 C 8.359375 -12.617188 8.265625 -11.816406 8.265625 -10.859375 C 8.265625 -8.359375 9.207031 -7.109375 11.09375 -7.109375 C 11.894531 -7.109375 12.472656 -7.285156 12.828125 -7.640625 C 13.179688 -7.992188 13.394531 -8.472656 13.46875 -9.078125 C 13.550781 -9.691406 13.59375 -10.625 13.59375 -11.875 L 13.59375 -13.109375 L 13.640625 -14.5625 C 13.640625 -15.070312 13.566406 -15.4375 13.421875 -15.65625 C 13.285156 -15.882812 12.992188 -16 12.546875 -16 C 11.421875 -16 10.519531 -15.742188 9.84375 -15.234375 C 9.175781 -14.722656 8.742188 -14.082031 8.546875 -13.3125 Z M 8.546875 -13.265625 "/></g></g></g><g fill="#dce1de" fill-opacity="1"><g transform="translate(200.06433, 67.629713)"><g><path d="M 9.46875 -22.828125 C 11.03125 -23.785156 12.726562 -24.265625 14.5625 -24.265625 C 15.582031 -24.265625 16.570312 -24.085938 17.53125 -23.734375 C 18.5 -23.378906 19.222656 -22.832031 19.703125 -22.09375 L 20.28125 -21.671875 C 21.113281 -21.023438 21.53125 -18.332031 21.53125 -13.59375 C 21.53125 -12.34375 21.492188 -10.46875 21.421875 -7.96875 C 21.359375 -5.539062 21.328125 -3.765625 21.328125 -2.640625 C 21.328125 -1.359375 21.359375 -0.046875 21.421875 1.296875 C 20.273438 1.453125 18.929688 1.53125 17.390625 1.53125 L 14.515625 1.53125 C 14.484375 1.3125 14.46875 0.992188 14.46875 0.578125 L 13.546875 0.578125 C 13.453125 -0.410156 13.40625 -2.347656 13.40625 -5.234375 L 13.40625 -7.640625 C 13.40625 -9.492188 13.375 -10.929688 13.3125 -11.953125 C 13.25 -12.984375 13.070312 -13.851562 12.78125 -14.5625 C 12.519531 -14.65625 12.179688 -14.703125 11.765625 -14.703125 C 10.804688 -14.703125 10.140625 -14.378906 9.765625 -13.734375 C 9.398438 -13.097656 9.21875 -11.867188 9.21875 -10.046875 C 9.21875 -9.179688 9.253906 -7.976562 9.328125 -6.4375 C 9.390625 -4.832031 9.421875 -3.664062 9.421875 -2.9375 C 9.421875 -1.550781 9.351562 -0.347656 9.21875 0.671875 L 9.21875 1.203125 C 8.101562 1.492188 7.175781 1.640625 6.4375 1.640625 C 5.988281 1.640625 5.632812 1.617188 5.375 1.578125 L 4.234375 1.53125 L 3.703125 1.53125 C 3.222656 1.53125 2.757812 1.566406 2.3125 1.640625 L 2.3125 0.578125 L 1.34375 0.671875 L 1.296875 -8.40625 C 1.234375 -12.445312 1.203125 -15.503906 1.203125 -17.578125 C 1.203125 -19.273438 1.234375 -21.566406 1.296875 -24.453125 C 2.066406 -24.359375 2.785156 -24.3125 3.453125 -24.3125 C 3.710938 -24.3125 4.140625 -24.359375 4.734375 -24.453125 C 5.328125 -24.546875 6.132812 -24.59375 7.15625 -24.59375 C 8.019531 -24.59375 8.46875 -24.398438 8.5 -24.015625 C 8.5 -23.828125 8.648438 -23.660156 8.953125 -23.515625 C 9.265625 -23.367188 9.4375 -23.21875 9.46875 -23.0625 Z M 7.453125 -24.171875 C 6.554688 -24.171875 5.546875 -24.085938 4.421875 -23.921875 C 3.910156 -23.859375 3.585938 -23.828125 3.453125 -23.828125 L 2.875 -23.828125 C 2.46875 -23.828125 2.101562 -23.859375 1.78125 -23.921875 C 1.71875 -22.929688 1.6875 -21.476562 1.6875 -19.5625 L 1.6875 -16.625 C 1.6875 -14.664062 1.71875 -11.832031 1.78125 -8.125 L 1.828125 0.140625 C 2.210938 0.109375 2.722656 0.09375 3.359375 0.09375 L 5.671875 0.140625 C 6.335938 0.140625 7.039062 0.046875 7.78125 -0.140625 L 7.78125 -0.34375 C 7.90625 -1.394531 7.96875 -2.578125 7.96875 -3.890625 C 7.96875 -4.722656 7.9375 -5.941406 7.875 -7.546875 C 7.8125 -9.148438 7.78125 -10.363281 7.78125 -11.1875 C 7.78125 -13.113281 8.019531 -14.421875 8.5 -15.109375 C 8.976562 -15.796875 9.75 -16.140625 10.8125 -16.140625 C 11.96875 -16.140625 12.710938 -15.796875 13.046875 -15.109375 C 13.378906 -14.421875 13.578125 -13.648438 13.640625 -12.796875 C 13.703125 -11.953125 13.753906 -11.367188 13.796875 -11.046875 C 13.859375 -10.566406 13.890625 -9.800781 13.890625 -8.75 L 13.890625 -1.96875 C 13.890625 -1.007812 13.921875 -0.320312 13.984375 0.09375 L 16.765625 0.140625 C 17.921875 0.140625 18.992188 0.0625 19.984375 -0.09375 C 19.921875 -1.3125 19.890625 -2.320312 19.890625 -3.125 C 19.890625 -4.238281 19.921875 -6.046875 19.984375 -8.546875 C 20.046875 -11.171875 20.078125 -13.09375 20.078125 -14.3125 C 20.078125 -16.53125 20 -18.316406 19.84375 -19.671875 C 19.6875 -21.035156 19.398438 -21.910156 18.984375 -22.296875 C 17.890625 -23.285156 16.398438 -23.78125 14.515625 -23.78125 C 13.484375 -23.78125 12.566406 -23.617188 11.765625 -23.296875 C 10.960938 -22.984375 10.207031 -22.625 9.5 -22.21875 C 8.800781 -21.820312 8.34375 -21.554688 8.125 -21.421875 L 8.171875 -22.53125 C 8.171875 -23.625 7.929688 -24.171875 7.453125 -24.171875 Z M 7.453125 -24.171875 "/></g></g></g></svg>